<?xml version="1.0" encoding="UTF-8" standalone="no"?>
<!-- Created with Inkscape (http://www.inkscape.org/) -->

<svg
   xmlns:dc="http://purl.org/dc/elements/1.1/"
   xmlns:cc="http://creativecommons.org/ns#"
   xmlns:rdf="http://www.w3.org/1999/02/22-rdf-syntax-ns#"
   xmlns:svg="http://www.w3.org/2000/svg"
   xmlns="http://www.w3.org/2000/svg"
   xmlns:sodipodi="http://sodipodi.sourceforge.net/DTD/sodipodi-0.dtd"
   xmlns:inkscape="http://www.inkscape.org/namespaces/inkscape"
   width="240mm"
   height="120mm"
   viewBox="0 0 240 120"
   version="1.1"
   id="svg8"
   inkscape:version="0.92.1 r15371"
   sodipodi:docname="func-darby.svg">
  <defs
     id="defs2">
    <inkscape:path-effect
       effect="bspline"
       id="path-effect4503"
       is_visible="true"
       weight="33.333333"
       steps="2"
       helper_size="0"
       apply_no_weight="true"
       apply_with_weight="true"
       only_selected="false" />
    <inkscape:path-effect
       effect="bspline"
       id="path-effect4499"
       is_visible="true"
       weight="33.333333"
       steps="2"
       helper_size="0"
       apply_no_weight="true"
       apply_with_weight="true"
       only_selected="false" />
    <inkscape:path-effect
       effect="bspline"
       id="path-effect4495"
       is_visible="true"
       weight="33.333333"
       steps="2"
       helper_size="0"
       apply_no_weight="true"
       apply_with_weight="true"
       only_selected="false" />
    <inkscape:path-effect
       effect="bspline"
       id="path-effect4491"
       is_visible="true"
       weight="33.333333"
       steps="2"
       helper_size="0"
       apply_no_weight="true"
       apply_with_weight="true"
       only_selected="false" />
    <inkscape:path-effect
       effect="bspline"
       id="path-effect4485"
       is_visible="true"
       weight="33.333333"
       steps="2"
       helper_size="0"
       apply_no_weight="true"
       apply_with_weight="true"
       only_selected="false" />
  </defs>
  <sodipodi:namedview
     id="base"
     pagecolor="#ffffff"
     bordercolor="#666666"
     borderopacity="1.0"
     inkscape:pageopacity="0.0"
     inkscape:pageshadow="2"
     inkscape:zoom="0.35156426"
     inkscape:cx="322.88424"
     inkscape:cy="103.09903"
     inkscape:document-units="mm"
     inkscape:current-layer="layer1"
     showgrid="true"
     showborder="true"
     width="200mm"
     showguides="true"
     inkscape:guide-bbox="true"
     inkscape:window-width="1020"
     inkscape:window-height="578"
     inkscape:window-x="0"
     inkscape:window-y="20"
     inkscape:window-maximized="0">
    <inkscape:grid
       type="xygrid"
       id="grid815"
       units="mm"
       spacingx="10"
       spacingy="10"
       empspacing="4"
       dotted="false" />
  </sodipodi:namedview>
  <metadata
     id="metadata5">
    <rdf:RDF>
      <cc:Work
         rdf:about="">
        <dc:format>image/svg+xml</dc:format>
        <dc:type
           rdf:resource="http://purl.org/dc/dcmitype/StillImage" />
        <dc:title></dc:title>
      </cc:Work>
    </rdf:RDF>
  </metadata>
  <g
     inkscape:label="Layer 1"
     inkscape:groupmode="layer"
     id="layer1"
     transform="translate(0,-177)">
    <path
       style="fill:none;stroke:#000000;stroke-width:0.665;stroke-linecap:butt;stroke-linejoin:miter;stroke-opacity:1;stroke-miterlimit:4;stroke-dasharray:none"
       d="m 39.999999,257 c 1.218628,0.28891 2.435346,0.57737 4.047524,0.72138 1.612178,0.144 3.619082,0.144 5.751417,0.144 2.132336,0 4.390102,0 11.288832,0 6.89873,0 18.438426,0 39.009188,0 20.57076,0 50.17259,0 69.23817,0 19.06558,0 27.59493,0 33.8665,0 6.27157,0 10.28538,0 12.54314,0 2.25777,0 2.7595,0 3.13579,0 0.3763,0 0.62716,0 0.79239,-0.1458 C 219.83818,257.57377 219.91953,257.28531 220,257"
       id="path4483"
       inkscape:connector-curvature="0"
       inkscape:path-effect="#path-effect4485"
       inkscape:original-d="m 39.999999,257 c 1.219364,0.28581 2.436082,0.57427 3.650152,0.86538 2.00955,-0.003 4.016454,-0.003 6.020713,0 2.260412,-0.003 4.518178,-0.003 6.773298,0 11.54234,-0.003 23.082036,-0.003 34.619086,0 29.604472,-0.003 59.206302,-0.003 88.805482,0 8.53198,-0.003 17.06133,-0.003 25.58802,0 4.01645,-0.003 8.03026,-0.003 12.04142,0 0.50437,-0.003 1.0061,-0.003 1.50518,0 0.25351,-0.003 0.50437,-0.003 0.75259,0 0.084,-0.29111 0.16535,-0.57957 0.24406,-0.86538" />
    <path
       style="fill:none;stroke:#000000;stroke-width:1.265;stroke-linecap:butt;stroke-linejoin:miter;stroke-opacity:1;stroke-miterlimit:4;stroke-dasharray:none"
       d="m 59.999998,237 c 0.06939,-0.57369 0.138426,-1.14445 0.550385,-1.80598 0.41196,-0.66154 1.164549,-1.41413 1.916607,-2.54327 0.752058,-1.12915 1.504648,-2.63433 2.006902,-3.38533 0.502255,-0.751 0.753119,-0.751 0.877228,-1.12862 0.124108,-0.37762 0.124108,-1.13021 0.87749,-3.01194 0.753382,-1.88174 2.25856,-4.8921 3.136175,-6.89897 0.877615,-2.00687 1.128478,-3.01032 1.505707,-3.51049 0.377229,-0.50017 0.878956,-0.50017 1.25472,-0.75262 0.375764,-0.25245 0.626628,-0.75418 1.003717,-1.12968 0.377088,-0.3755 0.878813,-0.62636 1.379746,-1.25432 0.500933,-0.62795 1.002659,-1.6314 2.006639,-2.13153 1.00398,-0.50014 2.509157,-0.50014 3.512874,-0.62637 1.003716,-0.12622 1.505446,-0.37709 1.881474,-0.50172 0.376029,-0.12464 0.626891,-0.12464 1.630343,-0.12464 1.003452,0 2.759492,0 3.762944,-0.12675 1.003453,-0.12676 1.254319,-0.37763 1.630611,-0.50173 0.376292,-0.12411 0.878018,-0.12411 1.380008,-0.25034 0.501991,-0.12622 1.003716,-0.37708 1.505178,-0.50172 0.501461,-0.12464 1.003187,-0.12464 2.00664,-0.12464 1.003452,0 2.508629,0 4.515532,0 2.006902,0 4.515532,0 6.020712,0 1.50518,0 2.0069,0 2.3832,0 0.37629,0 0.62715,0 1.00185,0.62647 0.3747,0.62648 0.87643,1.88079 1.253,2.63406 0.37657,0.75328 0.62743,1.00414 0.87803,1.50507 0.2506,0.50094 0.50146,1.25352 0.75232,1.88094 0.25086,0.62743 0.50172,1.12916 0.62742,1.75552 0.12569,0.62636 0.12569,1.37895 0.37788,1.75657 0.25219,0.37761 0.75391,0.37761 1.25411,0.7536 0.5002,0.37599 1.00192,1.12858 1.25299,1.62929 0.25107,0.50071 0.25107,0.75157 0.25107,1.25329 0,0.50173 0,1.25432 0.25086,1.8828 0.25086,0.62847 0.75259,1.1302 1.00346,1.88147 0.25086,0.75127 0.25086,1.75472 0.37761,2.25777 0.12676,0.50305 0.37762,0.50305 0.62716,0.62848 0.24954,0.12543 0.5004,0.37629 0.751,0.87723 0.2506,0.50093 0.50147,1.25352 0.87935,1.6306 0.37788,0.37709 0.8796,0.37709 1.3798,0.75308 0.5002,0.37599 1.00193,1.12858 1.63061,1.50518 0.62869,0.3766 1.38127,0.3766 2.38442,0.50224 1.00315,0.12563 2.25746,0.37649 3.00903,0.62715 0.75157,0.25066 1.00243,0.50152 1.75635,0.62696 0.75391,0.12543 2.00822,0.12543 3.88969,0.12543 1.88148,0 4.39011,0 9.65823,0 5.26812,0 13.29574,0 17.56041,0 4.26467,0 4.76639,0 5.14268,0 0.3763,0 0.62716,0 1.00372,-0.12623 0.37656,-0.12622 0.87829,-0.37708 1.50544,-0.62768 0.62716,-0.2506 1.37975,-0.50147 1.88068,-0.87882 0.50093,-0.37735 0.7518,-0.87908 1.12862,-1.38054 0.37683,-0.50146 0.87855,-1.00319 1.25485,-1.37948 0.37629,-0.3763 0.62715,-0.62716 0.75126,-1.00345 0.12411,-0.3763 0.12411,-0.87802 0.25086,-1.25432 0.12676,-0.37629 0.37762,-0.62715 0.75391,-1.00345 0.3763,-0.37629 0.87803,-0.87802 1.25379,-1.38001 0.37577,-0.50199 0.62663,-1.00372 1.00345,-1.50518 0.37683,-0.50146 0.87855,-1.00318 1.12809,-1.50491 0.24954,-0.50172 0.24954,-1.00345 0.37629,-1.37975 0.12676,-0.37629 0.37762,-0.62715 0.75391,-1.00345 0.3763,-0.37629 0.87803,-0.87802 1.37923,-1.63087 0.5012,-0.75286 1.00292,-1.75631 1.50487,-2.63427 0.50195,-0.87795 1.00368,-1.63055 1.37975,-2.25776 0.37607,-0.62722 0.62693,-1.12895 0.87832,-1.50498 0.25139,-0.37603 0.50225,-0.62689 0.75311,-0.751 0.25087,-0.12411 0.50173,-0.12411 0.62584,-0.62715 0.12411,-0.50305 0.12411,-1.50651 0.62663,-3.01195 0.50252,-1.50544 1.50597,-3.51234 2.13366,-4.5142 0.62769,-1.00187 0.87855,-1.00187 1.12862,-1.37975 0.25007,-0.37789 0.50093,-1.13048 0.87828,-1.63141 0.37735,-0.50093 0.87908,-0.75179 1.06061,-1.11245 0.18153,-0.36065 0.0465,-0.83094 -0.088,-1.29948"
       id="path4489"
       inkscape:connector-curvature="0"
       inkscape:path-effect="#path-effect4491"
       inkscape:original-d="m 59.999998,237 c 0.07168,-0.57341 0.140719,-1.14417 0.207108,-1.71228 0.755235,-0.75524 1.507824,-1.50783 2.257766,-2.25777 0.755235,-1.50782 1.507824,-3.013 2.257767,-4.51553 0.253508,-0.003 0.504372,-0.003 0.752589,0 0.0026,-0.75524 0.0026,-1.50783 0,-2.25777 1.507823,-3.013 3.013,-6.02336 4.515532,-9.03107 0.253508,-1.00609 0.504373,-2.00954 0.752589,-3.01035 0.504372,-0.003 1.006099,-0.003 1.505177,0 0.253511,-0.50437 0.504373,-1.0061 0.752589,-1.50518 0.504373,-0.25351 1.006099,-0.50437 1.505178,-0.75259 0.504372,-1.0061 1.006099,-2.00955 1.505177,-3.01035 1.507824,-0.003 3.013001,-0.003 4.515533,0 0.504372,-0.25351 1.006099,-0.50438 1.505177,-0.75259 0.253511,-0.003 0.504373,-0.003 0.752592,0 1.758685,-0.003 3.514725,-0.003 5.268121,0 0.253508,-0.25351 0.50437,-0.50438 0.752589,-0.75259 0.50437,-0.003 1.006096,-0.003 1.505177,0 0.50437,-0.25351 1.006097,-0.50437 1.505178,-0.75259 0.50437,-0.003 1.006096,-0.003 1.505177,0 1.507824,-0.003 3.013001,-0.003 4.515533,0 2.511273,-0.003 5.019903,-0.003 7.525883,0 0.50438,-0.003 1.0061,-0.003 1.50518,0 0.25351,-0.003 0.50437,-0.003 0.75259,0 0.50437,1.25167 1.0061,2.50598 1.50518,3.76294 0.25351,0.24822 0.50437,0.49908 0.75259,0.75259 0.25351,0.74995 0.50437,1.50253 0.75259,2.25777 0.25351,0.49908 0.50437,1.00081 0.75258,1.50518 0.003,0.74994 0.003,1.50253 0,2.25776 0.50438,-0.003 1.0061,-0.003 1.50518,0 0.50437,0.74995 1.0061,1.50253 1.50518,2.25777 0.003,0.24822 0.003,0.49908 0,0.75259 0.003,0.74994 0.003,1.50253 0,2.25776 0.50437,0.49908 1.0061,1.00081 1.50518,1.50518 0.003,1.00081 0.003,2.00426 0,3.01036 0.25351,-0.003 0.50437,-0.003 0.75259,0 0.25351,0.24822 0.50437,0.49908 0.75259,0.75259 0.25351,0.74994 0.50437,1.50253 0.75259,2.25776 0.50437,-0.003 1.00609,-0.003 1.50517,0 0.50437,0.74995 1.0061,1.50254 1.50518,2.25777 0.75524,-0.003 1.50782,-0.003 2.25777,0 1.25696,0.24822 2.51127,0.49908 3.76294,0.75259 0.25351,0.24822 0.50437,0.49908 0.75259,0.75259 1.25696,-0.003 2.51127,-0.003 3.76294,0 2.51128,-0.003 5.01991,-0.003 7.52589,0 8.03026,-0.003 16.05788,-0.003 24.08284,0 0.50438,-0.003 1.0061,-0.003 1.50518,0 0.25351,-0.003 0.50437,-0.003 0.75259,0 0.50437,-0.25351 1.0061,-0.50437 1.50518,-0.75259 0.75523,-0.25351 1.50782,-0.50437 2.25776,-0.75259 0.25351,-0.50437 0.50438,-1.0061 0.75259,-1.50518 0.50438,-0.50437 1.0061,-1.0061 1.50518,-1.50517 0.25351,-0.25352 0.50437,-0.50438 0.75259,-0.75259 0.003,-0.50438 0.003,-1.0061 0,-1.50518 0.25351,-0.25351 0.50437,-0.50437 0.75259,-0.75259 0.50437,-0.50437 1.0061,-1.0061 1.50518,-1.50518 0.25351,-0.50437 0.50437,-1.0061 0.75258,-1.50518 0.50438,-0.50437 1.0061,-1.00609 1.50518,-1.50517 0.003,-0.50437 0.003,-1.0061 0,-1.50518 0.25351,-0.25351 0.50437,-0.50437 0.75259,-0.75259 0.50437,-0.50437 1.0061,-1.0061 1.50518,-1.50518 0.50437,-1.0061 1.0061,-2.00955 1.50518,-3.01035 0.50437,-0.75524 1.0061,-1.50783 1.50518,-2.25777 0.2535,-0.50437 0.50437,-1.0061 0.75258,-1.50518 0.25351,-0.25351 0.50437,-0.50437 0.75259,-0.75259 0.25351,-0.003 0.50437,-0.003 0.75259,0 0.003,-1.00609 0.003,-2.00955 0,-3.01035 1.0061,-2.00955 2.00955,-4.01645 3.01036,-6.02071 0.25351,-0.003 0.50437,-0.003 0.75259,0 0.2535,-0.75524 0.50437,-1.50783 0.75258,-2.25777 0.50437,-0.25351 1.0061,-0.50437 1.50518,-0.75259 C 190.27263,197.93793 190.13763,197.46764 190,197" />
    <path
       style="fill:none;stroke:#000000;stroke-width:0.26458332px;stroke-linecap:butt;stroke-linejoin:miter;stroke-opacity:1"
       d="m 59.999998,267 c 0,0 0,-20 0,-20"
       id="path4497"
       inkscape:connector-curvature="0"
       inkscape:path-effect="#path-effect4499"
       inkscape:original-d="M 59.999998,267 V 247" />
    <path
       style="fill:none;stroke:#000000;stroke-width:0.26458332px;stroke-linecap:butt;stroke-linejoin:miter;stroke-opacity:1"
       d="m 190,267 c 0,0 0,-20 0,-20"
       id="path4501"
       inkscape:connector-curvature="0"
       inkscape:path-effect="#path-effect4503"
       inkscape:original-d="M 190,267 V 247" />
    <text
       xml:space="preserve"
       style="font-style:normal;font-weight:normal;font-size:10.58333302px;line-height:1.25;font-family:sans-serif;letter-spacing:0px;word-spacing:0px;fill:#000000;fill-opacity:1;stroke:none;stroke-width:0.26458332"
       x="60"
       y="277"
       id="text4507"><tspan
         sodipodi:role="line"
         id="tspan4505"
         x="60"
         y="277"
         style="stroke-width:0.26458332">$a$</tspan></text>
    <text
       xml:space="preserve"
       style="font-style:normal;font-weight:normal;font-size:10.58333302px;line-height:1.25;font-family:sans-serif;letter-spacing:0px;word-spacing:0px;fill:#000000;fill-opacity:1;stroke:none;stroke-width:0.26458332"
       x="190"
       y="277"
       id="text4511"><tspan
         sodipodi:role="line"
         id="tspan4509"
         x="190"
         y="277"
         style="stroke-width:0.26458332">$b$</tspan></text>
    <text
       xml:space="preserve"
       style="font-style:normal;font-weight:normal;font-size:10.58333302px;line-height:1.25;font-family:sans-serif;letter-spacing:0px;word-spacing:0px;fill:#000000;fill-opacity:1;stroke:none;stroke-width:0.26458332"
       x="120"
       y="287"
       id="text4515"><tspan
         sodipodi:role="line"
         x="120"
         y="287"
         style="stroke-width:0.26458332"
         id="tspan4517">$x_i$</tspan></text>
  </g>
</svg>
