<?xml version="1.0" encoding="UTF-8" standalone="no"?>
<!-- Created with Inkscape (http://www.inkscape.org/) -->

<svg
   xmlns:dc="http://purl.org/dc/elements/1.1/"
   xmlns:cc="http://creativecommons.org/ns#"
   xmlns:rdf="http://www.w3.org/1999/02/22-rdf-syntax-ns#"
   xmlns:svg="http://www.w3.org/2000/svg"
   xmlns="http://www.w3.org/2000/svg"
   xmlns:sodipodi="http://sodipodi.sourceforge.net/DTD/sodipodi-0.dtd"
   xmlns:inkscape="http://www.inkscape.org/namespaces/inkscape"
   width="240mm"
   height="80mm"
   viewBox="0 0 240 80"
   version="1.1"
   id="svg8"
   inkscape:version="0.92.1 r15371"
   sodipodi:docname="vandervarden.svg">
  <defs
     id="defs2">
    <inkscape:path-effect
       effect="bspline"
       id="path-effect4495"
       is_visible="true"
       weight="33.333333"
       steps="2"
       helper_size="0"
       apply_no_weight="true"
       apply_with_weight="true"
       only_selected="false" />
    <inkscape:path-effect
       effect="bspline"
       id="path-effect4491"
       is_visible="true"
       weight="33.333333"
       steps="2"
       helper_size="0"
       apply_no_weight="true"
       apply_with_weight="true"
       only_selected="false" />
    <inkscape:path-effect
       effect="bspline"
       id="path-effect4497"
       is_visible="true"
       weight="33.333333"
       steps="2"
       helper_size="0"
       apply_no_weight="true"
       apply_with_weight="true"
       only_selected="false" />
    <inkscape:path-effect
       effect="bspline"
       id="path-effect4493"
       is_visible="true"
       weight="33.333333"
       steps="2"
       helper_size="0"
       apply_no_weight="true"
       apply_with_weight="true"
       only_selected="false" />
    <inkscape:path-effect
       effect="bspline"
       id="path-effect4489"
       is_visible="true"
       weight="33.333333"
       steps="2"
       helper_size="0"
       apply_no_weight="true"
       apply_with_weight="true"
       only_selected="false" />
  </defs>
  <sodipodi:namedview
     id="base"
     pagecolor="#ffffff"
     bordercolor="#666666"
     borderopacity="1.0"
     inkscape:pageopacity="0.0"
     inkscape:pageshadow="2"
     inkscape:zoom="0.70312852"
     inkscape:cx="150.09785"
     inkscape:cy="59.239536"
     inkscape:document-units="mm"
     inkscape:current-layer="layer1"
     showgrid="false"
     showborder="true"
     width="200mm"
     showguides="true"
     inkscape:guide-bbox="true"
     inkscape:window-width="1020"
     inkscape:window-height="578"
     inkscape:window-x="0"
     inkscape:window-y="20"
     inkscape:window-maximized="0">
    <inkscape:grid
       type="xygrid"
       id="grid815"
       units="mm"
       spacingx="10"
       spacingy="10"
       empspacing="4"
       dotted="false" />
  </sodipodi:namedview>
  <metadata
     id="metadata5">
    <rdf:RDF>
      <cc:Work
         rdf:about="">
        <dc:format>image/svg+xml</dc:format>
        <dc:type
           rdf:resource="http://purl.org/dc/dcmitype/StillImage" />
        <dc:title></dc:title>
      </cc:Work>
    </rdf:RDF>
  </metadata>
  <g
     inkscape:label="Layer 1"
     inkscape:groupmode="layer"
     id="layer1"
     transform="translate(0,-217)">
    <path
       style="fill:none;stroke:#000000;stroke-width:0.26458332px;stroke-linecap:butt;stroke-linejoin:miter;stroke-opacity:1"
       d="m 20,277 c 0,0 200,0 200,0"
       id="path4487"
       inkscape:connector-curvature="0"
       inkscape:path-effect="#path-effect4489"
       inkscape:original-d="M 20,277 H 220" />
    <path
       style="fill:none;stroke:#000000;stroke-width:0.26458332px;stroke-linecap:butt;stroke-linejoin:miter;stroke-opacity:1"
       d="m 39.999999,277 c 0,0 30,-30 30,-30 0,0 30.000001,30 30.000001,30 0,0 30,-30 30,-30"
       id="path4491"
       inkscape:connector-curvature="0"
       inkscape:path-effect="#path-effect4493"
       inkscape:original-d="m 39.999999,277 30,-30 L 100,277 130,247" />
    <path
       style="fill:none;stroke:#000000;stroke-width:0.26458332px;stroke-linecap:butt;stroke-linejoin:miter;stroke-opacity:1"
       d="m 130,247 c 0,0 30,30 30,30 0,0 30,-30 30,-30 0,0 30,30 30,30"
       id="path4495"
       inkscape:connector-curvature="0"
       inkscape:path-effect="#path-effect4497"
       inkscape:original-d="m 130,247 30,30 30,-30 30,30" />
    <path
       style="fill:none;stroke:#000000;stroke-width:0.26458332px;stroke-linecap:butt;stroke-linejoin:miter;stroke-opacity:1"
       d="m 100,277 c 0.91235,-0.73613 1.82181,-1.46992 2.52751,-1.89875 0.70571,-0.42883 1.20743,-0.55426 1.52024,-0.74361 0.31282,-0.18934 0.43826,-0.44021 0.7526,-0.62715 0.31434,-0.18695 0.81606,-0.31238 1.25483,-0.56418 0.43878,-0.2518 0.81508,-0.62809 1.0019,-0.87896 0.18683,-0.25086 0.18683,-0.37629 0.25086,-0.43769 0.064,-0.0614 0.18948,-0.0614 0.69121,-0.0614 0.50172,0 1.37974,0 2.06961,0 0.68987,0 1.1916,0 1.44114,0.0614 0.24954,0.0614 0.24954,0.18683 0.43799,0.3765 0.18845,0.18968 0.56475,0.44054 0.75259,0.62716 0.18784,0.18662 0.18784,0.31205 0.31459,0.37609 0.12676,0.064 0.37762,0.064 0.50173,0.12543 0.12411,0.0614 0.12411,0.18683 0.18683,0.31358 0.0627,0.12676 0.18814,0.25219 0.25086,0.43901 0.0627,0.18683 0.0627,0.43769 0.12543,0.62716 0.0627,0.18946 0.18815,0.3149 0.3149,0.37761 0.12676,0.0627 0.25219,0.0627 0.37762,0.0627 0.12543,0 0.25086,0 0.31225,-0.064 0.0614,-0.064 0.0614,-0.18947 0.12544,-0.25086 0.064,-0.0614 0.18947,-0.0614 0.44059,-0.12464 0.25113,-0.0632 0.62743,-0.18868 0.87802,-0.25086 0.2506,-0.0622 0.37604,-0.0622 0.6269,-0.25166 0.25086,-0.18947 0.62715,-0.56577 0.94073,-0.75259 0.31358,-0.18682 0.56445,-0.18682 0.9409,-0.37608 0.37645,-0.18925 0.87818,-0.56555 1.1916,-0.75258 0.31342,-0.18704 0.43885,-0.18704 0.50024,-0.25108 0.0614,-0.064 0.0614,-0.18947 0.25086,-0.25087 0.18947,-0.0614 0.56577,-0.0614 1.31836,-0.0614 0.75259,0 1.88147,0 2.57055,0.063 0.68908,0.063 0.93994,0.18841 1.1908,0.31384 0.25086,0.12543 0.50173,0.25087 0.62664,0.43743 0.1249,0.18656 0.1249,0.43742 0.18893,0.56417 0.064,0.12676 0.18947,0.12676 0.25086,0.18815 0.0614,0.0614 0.0614,0.18683 0.37599,0.31379 0.3146,0.12696 0.94176,0.25239 1.31783,0.18788 0.37607,-0.0645 0.5015,-0.31537 0.62746,-0.43921 0.12596,-0.12385 0.2514,-0.12385 0.43981,-0.18736 0.18841,-0.0635 0.43927,-0.18894 0.62716,-0.3149 0.18788,-0.12596 0.31331,-0.25139 0.43874,-0.31279 0.12543,-0.0614 0.25086,-0.0614 0.43901,-0.0614 0.18815,0 0.43901,0 0.56312,-0.064 0.12411,-0.064 0.12411,-0.18947 0.25086,-0.25086 0.12675,-0.0614 0.37762,-0.0614 0.50173,-0.12543 0.12411,-0.064 0.12411,-0.18947 0.25086,-0.25087 0.12675,-0.0614 0.37762,-0.0614 0.62875,-0.1249 0.25112,-0.0635 0.50199,-0.18894 0.68987,-0.25086 0.18788,-0.0619 0.31331,-0.0619 0.6896,-0.0619 0.3763,0 1.00346,0 1.31571,-0.064 0.31226,-0.064 0.31226,-0.18947 0.81531,-0.25087 0.50305,-0.0614 1.5065,-0.0614 2.38452,-0.0614 0.87802,0 1.63061,0 2.0683,0.0627 0.43768,0.0627 0.56311,0.18814 0.68987,0.25086 0.12675,0.0627 0.25218,0.0627 0.31357,0.18682 0.0614,0.12411 0.0614,0.37498 0.12544,0.50173 0.064,0.12676 0.18947,0.12676 0.25086,0.18815 0.0614,0.0614 0.0614,0.18682 0.18815,0.25086 0.12675,0.064 0.37762,0.064 0.50172,0.12543 0.12411,0.0614 0.12411,0.18683 0.25007,0.31385 0.12596,0.12702 0.37683,0.25245 0.50173,0.3763 0.1249,0.12384 0.1249,0.24927 0.18894,0.31331 0.064,0.064 0.18947,0.064 0.25086,0.12543 0.0614,0.0614 0.0614,0.18682 0.12544,0.25086 0.064,0.064 0.18947,0.064 0.37761,0.064 0.18815,0 0.43901,0 0.62663,-0.12702 0.18762,-0.12702 0.31305,-0.37788 0.43901,-0.50172 0.12596,-0.12385 0.25139,-0.12385 0.43954,-0.25061 0.18815,-0.12675 0.43901,-0.37761 0.8153,-0.50172 0.3763,-0.12411 0.87802,-0.12411 1.1916,-0.18815 0.31358,-0.064 0.43901,-0.18947 0.68988,-0.25086 0.25086,-0.0614 0.62716,-0.0614 1.12888,-0.0614 0.50173,0 1.12888,0 1.50517,0 0.3763,0 0.50173,0 0.56312,0.0614 0.0614,0.0614 0.0614,0.18682 0.12544,0.25086 0.064,0.064 0.18947,0.064 0.31331,0.18894 0.12385,0.12491 0.24928,0.37577 0.37629,0.50173 0.12702,0.12596 0.25246,0.12596 0.3763,0.25086 0.12385,0.12491 0.24928,0.37577 0.43901,0.50173 0.18974,0.12596 0.4406,0.12596 0.62716,0.25086 0.18656,0.1249 0.31199,0.37577 0.50173,0.50173 0.18973,0.12596 0.44059,0.12596 0.62741,0.18867 0.18683,0.0627 0.31226,0.18815 0.43902,0.25087 0.12675,0.0627 0.25218,0.0627 0.18946,0.0627 -0.0627,0 -0.31357,0 -0.25086,0 0.0627,0 0.43901,0 0.68987,0 0.25087,0 0.3763,0 0.50173,0 0.12543,0 0.25087,0 0.43769,0.12543 0.18682,0.12543 0.43768,0.37629 0.62716,0.50173 0.18947,0.12543 0.3149,0.12543 0.3149,0.12543 0,0 -0.12543,0 0.0112,0.17882 0.13666,0.17882 0.53792,0.53632 0.93901,0.89367"
       id="path4493"
       inkscape:connector-curvature="0"
       inkscape:path-effect="#path-effect4495"
       inkscape:original-d="m 100,277 c 0.9121,-0.73644 1.82156,-1.47023 2.72837,-2.20137 0.50438,-0.12808 1.0061,-0.25351 1.50518,-0.3763 0.12808,-0.2535 0.25351,-0.50437 0.3763,-0.75258 0.50437,-0.12808 1.00609,-0.25351 1.50517,-0.3763 0.37894,-0.37894 0.75524,-0.75523 1.12889,-1.12888 0.003,-0.12808 0.003,-0.25351 0,-0.3763 0.12807,-0.003 0.25351,-0.003 0.37629,0 0.88067,-0.003 1.75869,-0.003 2.63406,0 0.50437,-0.003 1.0061,-0.003 1.50518,0 0.003,0.12279 0.003,0.24822 0,0.3763 0.37894,0.24821 0.75523,0.49908 1.12888,0.75259 0.003,0.12278 0.003,0.24821 0,0.37629 0.25351,-0.003 0.50437,-0.003 0.75259,0 0.003,0.12279 0.003,0.24822 0,0.3763 0.12808,0.12278 0.25351,0.24821 0.3763,0.37629 0.003,0.24822 0.003,0.49908 0,0.75259 0.12807,0.12278 0.2535,0.24822 0.37629,0.37629 0.12808,-0.003 0.25351,-0.003 0.3763,0 0.12807,-0.003 0.2535,-0.003 0.37629,0 0.003,-0.12807 0.003,-0.25351 0,-0.37629 0.12808,-0.003 0.25351,-0.003 0.37629,0 0.37894,-0.12808 0.75524,-0.25351 1.12889,-0.3763 0.12807,-0.003 0.25351,-0.003 0.37629,0 0.37894,-0.37894 0.75524,-0.75523 1.12888,-1.12888 0.25351,-0.003 0.50438,-0.003 0.75259,0 0.50437,-0.37894 1.0061,-0.75523 1.50518,-1.12888 0.12808,-0.003 0.25351,-0.003 0.3763,0 0.003,-0.12808 0.003,-0.25351 0,-0.3763 0.37893,-0.003 0.75523,-0.003 1.12888,0 1.13153,-0.003 2.26041,-0.003 3.38665,0 0.25351,0.12279 0.50437,0.24822 0.75259,0.3763 0.2535,0.12278 0.50437,0.24821 0.75259,0.37629 0.003,0.24822 0.003,0.49908 0,0.75259 0.12807,-0.003 0.2535,-0.003 0.37629,0 0.003,0.12279 0.003,0.24822 0,0.3763 0.6298,0.12278 1.25696,0.24821 1.88147,0.37629 0.12808,-0.25351 0.25351,-0.50437 0.3763,-0.75259 0.12807,-0.003 0.25351,-0.003 0.37629,0 0.25351,-0.12808 0.50437,-0.25351 0.75259,-0.37629 0.12808,-0.12808 0.25351,-0.25351 0.3763,-0.3763 0.12807,-0.003 0.2535,-0.003 0.37629,0 0.25351,-0.003 0.50437,-0.003 0.75259,0 0.003,-0.12808 0.003,-0.25351 0,-0.37629 0.2535,-0.003 0.50437,-0.003 0.75259,0 0.003,-0.12808 0.003,-0.25351 0,-0.3763 0.2535,-0.003 0.50437,-0.003 0.75258,0 0.25351,-0.12808 0.50438,-0.25351 0.75259,-0.37629 0.12808,-0.003 0.25351,-0.003 0.3763,0 0.6298,-0.003 1.25696,-0.003 1.88147,0 0.003,-0.12808 0.003,-0.25351 0,-0.3763 1.0061,-0.003 2.00955,-0.003 3.01035,0 0.75524,-0.003 1.50783,-0.003 2.25777,0 0.12808,0.12279 0.25351,0.24822 0.3763,0.3763 0.12807,-0.003 0.2535,-0.003 0.37629,0 0.003,0.24821 0.003,0.49908 0,0.75259 0.12808,-0.003 0.25351,-0.003 0.3763,0 0.003,0.12278 0.003,0.24821 0,0.37629 0.2535,-0.003 0.50437,-0.003 0.75258,0 0.003,0.12279 0.003,0.24822 0,0.3763 0.25351,0.12278 0.50438,0.24821 0.75259,0.37629 0.003,0.12279 0.003,0.24822 0,0.3763 0.12808,-0.003 0.25351,-0.003 0.3763,0 0.003,0.12278 0.003,0.24821 0,0.37629 0.12808,-0.003 0.25351,-0.003 0.37629,0 0.25351,-0.003 0.50437,-0.003 0.75259,0 0.12808,-0.25351 0.25351,-0.50437 0.3763,-0.75259 0.12807,-0.003 0.2535,-0.003 0.37629,0 0.25351,-0.25351 0.50437,-0.50437 0.75259,-0.75259 0.50437,-0.003 1.00609,-0.003 1.50518,0 0.12807,-0.12808 0.2535,-0.25351 0.37629,-0.37629 0.37894,-0.003 0.75524,-0.003 1.12888,0 0.62981,-0.003 1.25696,-0.003 1.88148,0 0.12807,-0.003 0.2535,-0.003 0.37629,0 0.003,0.12278 0.003,0.24821 0,0.37629 0.12808,-0.003 0.25351,-0.003 0.37629,0 0.12808,0.24822 0.25351,0.49908 0.3763,0.75259 0.12807,-0.003 0.25351,-0.003 0.37629,0 0.12808,0.24822 0.25351,0.49908 0.3763,0.75259 0.25351,-0.003 0.50437,-0.003 0.75259,0 0.12807,0.24822 0.25351,0.49908 0.37629,0.75259 0.25351,-0.003 0.50437,-0.003 0.75259,0 0.12808,0.12278 0.25351,0.24822 0.37629,0.37629 0.12808,-0.003 0.25351,-0.003 0.3763,0 -0.24822,-0.003 -0.49908,-0.003 -0.75259,0 0.37894,-0.003 0.75523,-0.003 1.12888,0 0.12808,-0.003 0.25351,-0.003 0.3763,0 0.12807,-0.003 0.25351,-0.003 0.37629,0 0.25351,0.24822 0.50437,0.49908 0.75259,0.75259 0.12808,-0.003 0.25351,-0.003 0.37629,0 -0.12278,-0.003 -0.24821,-0.003 -0.37629,0 0.4039,0.35485 0.80515,0.71235 1.20376,1.07249" />
    <text
       xml:space="preserve"
       style="font-style:normal;font-weight:normal;font-size:10.58333302px;line-height:1.25;font-family:sans-serif;letter-spacing:0px;word-spacing:0px;fill:#000000;fill-opacity:1;stroke:none;stroke-width:0.26458332"
       x="156.91478"
       y="285.33487"
       id="text4499"><tspan
         sodipodi:role="line"
         x="156.91478"
         y="285.33487"
         style="stroke-width:0.26458332"
         id="tspan4501">$0$</tspan></text>
    <text
       xml:space="preserve"
       style="font-style:normal;font-weight:normal;font-size:10.58333302px;line-height:1.25;font-family:sans-serif;letter-spacing:0px;word-spacing:0px;fill:#000000;fill-opacity:1;stroke:none;stroke-width:0.26458332"
       x="37.253147"
       y="258.61798"
       id="text4497"><tspan
         sodipodi:role="line"
         id="tspan4495"
         x="37.253147"
         y="258.61798"
         style="stroke-width:0.26458332">$f_j$</tspan></text>
    <circle
       style="fill:#010000;fill-opacity:0.99248125;stroke:#000000;stroke-width:0.76499999;stroke-miterlimit:4;stroke-dasharray:none;stroke-dashoffset:0;stroke-opacity:1"
       id="path4499"
       cx="73.906746"
       cy="251.23329"
       r="1.1288832" />
    <circle
       style="fill:#010000;fill-opacity:0.99248125;stroke:#000000;stroke-width:0.76499999;stroke-miterlimit:4;stroke-dasharray:none;stroke-dashoffset:0;stroke-opacity:1"
       id="path4499-3"
       cx="94.826195"
       cy="271.78827"
       r="1.1288832" />
  </g>
</svg>
