<?xml version="1.0" encoding="UTF-8" standalone="no"?>
<!-- Created with Inkscape (http://www.inkscape.org/) -->

<svg
   width="144.69022mm"
   height="24.002756mm"
   viewBox="0 0 144.69022 24.002756"
   version="1.1"
   id="svg8"
   inkscape:version="1.1.2 (0a00cf5339, 2022-02-04, custom)"
   sodipodi:docname="block-tree.svg"
   xmlns:inkscape="http://www.inkscape.org/namespaces/inkscape"
   xmlns:sodipodi="http://sodipodi.sourceforge.net/DTD/sodipodi-0.dtd"
   xmlns="http://www.w3.org/2000/svg"
   xmlns:svg="http://www.w3.org/2000/svg"
   xmlns:rdf="http://www.w3.org/1999/02/22-rdf-syntax-ns#"
   xmlns:cc="http://creativecommons.org/ns#"
   xmlns:dc="http://purl.org/dc/elements/1.1/">
  <defs
     id="defs2" />
  <sodipodi:namedview
     id="base"
     pagecolor="#ffffff"
     bordercolor="#666666"
     borderopacity="1.0"
     inkscape:pageopacity="0.0"
     inkscape:pageshadow="2"
     inkscape:zoom="1.9887478"
     inkscape:cx="342.17512"
     inkscape:cy="38.466417"
     inkscape:document-units="mm"
     inkscape:current-layer="layer1"
     showgrid="false"
     showborder="true"
     width="200mm"
     showguides="true"
     inkscape:guide-bbox="true"
     inkscape:window-width="1920"
     inkscape:window-height="1048"
     inkscape:window-x="0"
     inkscape:window-y="32"
     inkscape:window-maximized="1"
     inkscape:pagecheckerboard="0"
     fit-margin-left="3"
     fit-margin-right="3"
     fit-margin-top="0"
     fit-margin-bottom="0">
    <inkscape:grid
       type="xygrid"
       id="grid815"
       units="mm"
       spacingx="10"
       spacingy="10"
       empspacing="4"
       dotted="false"
       originx="-12.711251"
       originy="-5.0942504" />
  </sodipodi:namedview>
  <metadata
     id="metadata5">
    <rdf:RDF>
      <cc:Work
         rdf:about="">
        <dc:format>image/svg+xml</dc:format>
        <dc:type
           rdf:resource="http://purl.org/dc/dcmitype/StillImage" />
      </cc:Work>
    </rdf:RDF>
  </metadata>
  <g
     inkscape:label="Layer 1"
     inkscape:groupmode="layer"
     id="layer1"
     transform="translate(-12.711251,-182.09425)">
    <path
       style="fill:none;fill-opacity:1;stroke:#000000;stroke-width:0.280882;stroke-dasharray:none;stroke-opacity:1;marker-start:none;marker-end:none"
       id="path30"
       sodipodi:type="arc"
       sodipodi:cx="30.178736"
       sodipodi:cy="193.63712"
       sodipodi:rx="9.637702"
       sodipodi:ry="5.8645792"
       sodipodi:start="0"
       sodipodi:end="6.2813004"
       sodipodi:open="true"
       sodipodi:arc-type="arc"
       d="m 39.816438,193.63712 a 9.637702,5.8645792 0 0 1 -9.633161,5.86457 9.637702,5.8645792 0 0 1 -9.642239,-5.85905 9.637702,5.8645792 0 0 1 9.624073,-5.8701 9.637702,5.8645792 0 0 1 9.65131,5.85352" />
    <path
       style="fill:none;fill-opacity:1;stroke:#000000;stroke-width:0.280882;stroke-dasharray:none;stroke-opacity:1;marker-start:none;marker-end:none"
       id="path30-3"
       sodipodi:type="arc"
       sodipodi:cx="44.225372"
       sodipodi:cy="192.76401"
       sodipodi:rx="9.637702"
       sodipodi:ry="5.8645792"
       sodipodi:start="0"
       sodipodi:end="6.2813004"
       sodipodi:open="true"
       sodipodi:arc-type="arc"
       d="m 53.863074,192.76401 a 9.637702,5.8645792 0 0 1 -9.63316,5.86458 9.637702,5.8645792 0 0 1 -9.642239,-5.85906 9.637702,5.8645792 0 0 1 9.624073,-5.8701 9.637702,5.8645792 0 0 1 9.651309,5.85352" />
    <path
       style="fill:none;fill-opacity:1;stroke:#000000;stroke-width:0.280882;stroke-dasharray:none;stroke-opacity:1;marker-start:none;marker-end:none"
       id="path30-6"
       sodipodi:type="arc"
       sodipodi:cx="78.41256"
       sodipodi:cy="193.41826"
       sodipodi:rx="9.637702"
       sodipodi:ry="5.8645792"
       sodipodi:start="0"
       sodipodi:end="6.2813004"
       sodipodi:open="true"
       sodipodi:arc-type="arc"
       d="m 88.050261,193.41826 a 9.637702,5.8645792 0 0 1 -9.63316,5.86458 9.637702,5.8645792 0 0 1 -9.642239,-5.85905 9.637702,5.8645792 0 0 1 9.624073,-5.8701 9.637702,5.8645792 0 0 1 9.651309,5.85351" />
    <path
       style="fill:none;fill-opacity:1;stroke:#000000;stroke-width:0.280882;stroke-dasharray:none;stroke-opacity:1;marker-start:none;marker-end:none"
       id="path30-7"
       sodipodi:type="arc"
       sodipodi:cx="91.873138"
       sodipodi:cy="193.38069"
       sodipodi:rx="9.637702"
       sodipodi:ry="5.8645792"
       sodipodi:start="0"
       sodipodi:end="6.2813004"
       sodipodi:open="true"
       sodipodi:arc-type="arc"
       d="m 101.51084,193.38069 a 9.637702,5.8645792 0 0 1 -9.63316,5.86458 9.637702,5.8645792 0 0 1 -9.642239,-5.85905 9.637702,5.8645792 0 0 1 9.624073,-5.8701 9.637702,5.8645792 0 0 1 9.651306,5.85352" />
    <path
       style="fill:none;fill-opacity:1;stroke:#000000;stroke-width:0.280882;stroke-dasharray:none;stroke-opacity:1;marker-start:none;marker-end:none"
       id="path30-6-5"
       sodipodi:type="arc"
       sodipodi:cx="125.49935"
       sodipodi:cy="193.61113"
       sodipodi:rx="9.637702"
       sodipodi:ry="5.8645792"
       sodipodi:start="0"
       sodipodi:end="6.2813004"
       sodipodi:open="true"
       sodipodi:arc-type="arc"
       d="m 135.13705,193.61113 a 9.637702,5.8645792 0 0 1 -9.63316,5.86458 9.637702,5.8645792 0 0 1 -9.64224,-5.85905 9.637702,5.8645792 0 0 1 9.62408,-5.8701 9.637702,5.8645792 0 0 1 9.65131,5.85352" />
    <path
       style="fill:none;fill-opacity:1;stroke:#000000;stroke-width:0.280882;stroke-dasharray:none;stroke-opacity:1;marker-start:none;marker-end:none"
       id="path30-7-3"
       sodipodi:type="arc"
       sodipodi:cx="138.95992"
       sodipodi:cy="193.57356"
       sodipodi:rx="9.637702"
       sodipodi:ry="5.8645792"
       sodipodi:start="0"
       sodipodi:end="6.2813004"
       sodipodi:open="true"
       sodipodi:arc-type="arc"
       d="m 148.59762,193.57356 a 9.637702,5.8645792 0 0 1 -9.63316,5.86458 9.637702,5.8645792 0 0 1 -9.64224,-5.85905 9.637702,5.8645792 0 0 1 9.62407,-5.8701 9.637702,5.8645792 0 0 1 9.65131,5.85352" />
    <path
       style="fill:#000000;fill-opacity:1;stroke:#000000;stroke-width:0;stroke-miterlimit:4;stroke-dasharray:none;stroke-opacity:1;marker-start:none;marker-end:none"
       id="path341-5"
       sodipodi:type="arc"
       sodipodi:cx="84.382339"
       sodipodi:cy="194.18094"
       sodipodi:rx="0.53459758"
       sodipodi:ry="0.53437382"
       sodipodi:start="0"
       sodipodi:end="6.2820508"
       sodipodi:open="true"
       sodipodi:arc-type="arc"
       d="m 84.916937,194.18094 a 0.53459758,0.53437382 0 0 1 -0.534446,0.53437 0.53459758,0.53437382 0 0 1 -0.534749,-0.53407 0.53459758,0.53437382 0 0 1 0.534143,-0.53467 0.53459758,0.53437382 0 0 1 0.535052,0.53376" />
    <path
       style="fill:#000000;fill-opacity:1;stroke:#000000;stroke-width:0;stroke-miterlimit:4;stroke-dasharray:none;stroke-opacity:1;marker-start:none;marker-end:none"
       id="path341-5-5"
       sodipodi:type="arc"
       sodipodi:cx="131.97585"
       sodipodi:cy="193.49698"
       sodipodi:rx="0.53459758"
       sodipodi:ry="0.53437382"
       sodipodi:start="0"
       sodipodi:end="6.2820508"
       sodipodi:open="true"
       sodipodi:arc-type="arc"
       d="m 132.51044,193.49698 a 0.53459758,0.53437382 0 0 1 -0.53444,0.53437 0.53459758,0.53437382 0 0 1 -0.53475,-0.53407 0.53459758,0.53437382 0 0 1 0.53414,-0.53467 0.53459758,0.53437382 0 0 1 0.53505,0.53376" />
    <path
       style="fill:#000000;fill-opacity:1;stroke:#000000;stroke-width:0;stroke-miterlimit:4;stroke-dasharray:none;stroke-opacity:1;marker-start:none;marker-end:none"
       id="path341-5-6"
       sodipodi:type="arc"
       sodipodi:cx="118.14943"
       sodipodi:cy="193.8961"
       sodipodi:rx="0.53459758"
       sodipodi:ry="0.53437382"
       sodipodi:start="0"
       sodipodi:end="6.2820508"
       sodipodi:open="true"
       sodipodi:arc-type="arc"
       d="m 118.68403,193.8961 a 0.53459758,0.53437382 0 0 1 -0.53445,0.53438 0.53459758,0.53437382 0 0 1 -0.53475,-0.53407 0.53459758,0.53437382 0 0 1 0.53414,-0.53468 0.53459758,0.53437382 0 0 1 0.53506,0.53377" />
    <path
       style="fill:#000000;fill-opacity:1;stroke:#000000;stroke-width:0;stroke-miterlimit:4;stroke-dasharray:none;stroke-opacity:1;marker-start:none;marker-end:none"
       id="path341-5-2"
       sodipodi:type="arc"
       sodipodi:cx="99.114922"
       sodipodi:cy="193.76306"
       sodipodi:rx="0.53459758"
       sodipodi:ry="0.53437382"
       sodipodi:start="0"
       sodipodi:end="6.2820508"
       sodipodi:open="true"
       sodipodi:arc-type="arc"
       d="m 99.649519,193.76306 a 0.53459758,0.53437382 0 0 1 -0.534446,0.53438 0.53459758,0.53437382 0 0 1 -0.534749,-0.53408 0.53459758,0.53437382 0 0 1 0.534143,-0.53467 0.53459758,0.53437382 0 0 1 0.535052,0.53377" />
    <path
       style="fill:#000000;fill-opacity:1;stroke:#000000;stroke-width:0;stroke-miterlimit:4;stroke-dasharray:none;stroke-opacity:1;marker-start:none;marker-end:none"
       id="path341-5-9"
       sodipodi:type="arc"
       sodipodi:cx="71.043449"
       sodipodi:cy="193.36394"
       sodipodi:rx="0.53459758"
       sodipodi:ry="0.53437382"
       sodipodi:start="0"
       sodipodi:end="6.2820508"
       sodipodi:open="true"
       sodipodi:arc-type="arc"
       d="m 71.578047,193.36394 a 0.53459758,0.53437382 0 0 1 -0.534446,0.53437 0.53459758,0.53437382 0 0 1 -0.534749,-0.53407 0.53459758,0.53437382 0 0 1 0.534143,-0.53468 0.53459758,0.53437382 0 0 1 0.535052,0.53377" />
    <path
       style="fill:#000000;fill-opacity:1;stroke:#000000;stroke-width:0;stroke-miterlimit:4;stroke-dasharray:none;stroke-opacity:1;marker-start:none;marker-end:none"
       id="path341-5-1"
       sodipodi:type="arc"
       sodipodi:cx="51.247002"
       sodipodi:cy="193.31007"
       sodipodi:rx="0.53459758"
       sodipodi:ry="0.53437382"
       sodipodi:start="0"
       sodipodi:end="6.2820508"
       sodipodi:open="true"
       sodipodi:arc-type="arc"
       d="m 51.781599,193.31007 a 0.53459758,0.53437382 0 0 1 -0.534446,0.53438 0.53459758,0.53437382 0 0 1 -0.534749,-0.53407 0.53459758,0.53437382 0 0 1 0.534143,-0.53468 0.53459758,0.53437382 0 0 1 0.535052,0.53377" />
    <path
       style="fill:#000000;fill-opacity:1;stroke:#000000;stroke-width:0;stroke-miterlimit:4;stroke-dasharray:none;stroke-opacity:1;marker-start:none;marker-end:none"
       id="path341-5-27"
       sodipodi:type="arc"
       sodipodi:cx="37.253147"
       sodipodi:cy="193.22769"
       sodipodi:rx="0.53459758"
       sodipodi:ry="0.53437382"
       sodipodi:start="0"
       sodipodi:end="6.2820508"
       sodipodi:open="true"
       sodipodi:arc-type="arc"
       d="m 37.787745,193.22769 a 0.53459758,0.53437382 0 0 1 -0.534446,0.53438 0.53459758,0.53437382 0 0 1 -0.534749,-0.53408 0.53459758,0.53437382 0 0 1 0.534142,-0.53467 0.53459758,0.53437382 0 0 1 0.535052,0.53377" />
    <path
       style="fill:none;fill-opacity:1;stroke:#000000;stroke-width:0.124112;stroke-linecap:butt;stroke-linejoin:miter;stroke-dasharray:0.930845, 0.930845;stroke-opacity:1;marker-start:none;marker-end:none"
       d="m 41.947065,183.64602 c -11.399284,-0.43619 -28.658048,-4.96508 -25.878837,7.49002 3.018072,13.52557 16.257789,11.66528 24.687954,11.66528 h 19.84221 c 6.490686,0 12.958049,0.19835 19.454572,0.19835 13.789879,0 11.537731,-18.33094 6.90005,-20.23879 -4.605712,-1.89469 -29.829924,1.29512 -45.005949,0.88514 z"
       id="path417"
       sodipodi:nodetypes="csssssc" />
    <path
       style="fill:none;fill-opacity:1;stroke:#000000;stroke-width:0.124081;stroke-linecap:butt;stroke-linejoin:miter;stroke-dasharray:0.930612, 0.930612;stroke-opacity:1;marker-start:none;marker-end:none"
       d="m 128.00876,184.72415 -19.83789,-1.5e-4 c -19.042238,-1.4e-4 -25.612687,-2.4989 -26.758615,5.07732 -1.302515,8.6115 1.833251,14.07743 4.092577,14.80102 3.151394,1.0093 6.424775,0.8311 16.308488,1.02366 22.77759,-0.13388 26.67736,1.33462 41.62435,-0.59619 5.42759,-0.70112 15.95131,-6.81364 8.11371,-15.18077 -5.75624,-6.14516 -17.33245,-5.15799 -24.48595,-5.15799"
       id="path875"
       sodipodi:nodetypes="cssscssc" />
    <text
       style="font-size:3.175px;font-family:Iosevka;-inkscape-font-specification:'Iosevka, Normal';fill:#000000;fill-opacity:1;stroke:none;stroke-width:0.264583"
       xml:space="preserve"
       id="text1735"
       y="196.70525"
       x="73.260979"><tspan
         sodipodi:role="line"
         id="tspan1733"
         style="stroke-width:0.264583"
         x="73.260979"
         y="196.70525">$B_1'$</tspan></text>
    <text
       style="font-size:3.175px;font-family:Iosevka;-inkscape-font-specification:'Iosevka, Normal';fill:#000000;fill-opacity:1;stroke:none;stroke-width:0.264583"
       xml:space="preserve"
       id="text1747"
       y="198.99821"
       x="51.912582"><tspan
         sodipodi:role="line"
         id="tspan1745"
         style="stroke-width:0.264583"
         x="51.912582"
         y="198.99821">$H_1$</tspan></text>
    <text
       style="font-size:3.175px;font-family:Iosevka;-inkscape-font-specification:'Iosevka, Normal';fill:#000000;fill-opacity:1;stroke:none;stroke-width:0.264583"
       xml:space="preserve"
       id="text1759"
       y="194.1792"
       x="24.256721"><tspan
         sodipodi:role="line"
         id="tspan1757"
         style="stroke-width:0.264583"
         x="24.256721"
         y="194.1792">$B_1$</tspan></text>
    <text
       style="font-size:3.175px;font-family:Iosevka;-inkscape-font-specification:'Iosevka, Normal';fill:#000000;fill-opacity:1;stroke:none;stroke-width:0.264583"
       xml:space="preserve"
       id="text1771"
       y="193.1501"
       x="84.291664"><tspan
         sodipodi:role="line"
         id="tspan1769"
         style="stroke-width:0.264583"
         x="84.291664"
         y="193.1501">$a$</tspan></text>
    <text
       style="font-size:3.175px;font-family:Iosevka;-inkscape-font-specification:'Iosevka, Normal';fill:#000000;fill-opacity:1;stroke:none;stroke-width:0.264583"
       xml:space="preserve"
       id="text1783"
       y="200.18747"
       x="108.20283"><tspan
         sodipodi:role="line"
         id="tspan1781"
         style="stroke-width:0.264583"
         x="108.20283"
         y="200.18747">$H_2$</tspan></text>
    <text
       style="font-size:3.175px;font-family:Iosevka;-inkscape-font-specification:'Iosevka, Normal';fill:#000000;fill-opacity:1;stroke:none;stroke-width:0.264583"
       xml:space="preserve"
       id="text1795"
       y="195.74905"
       x="140.50266"><tspan
         sodipodi:role="line"
         id="tspan1793"
         style="stroke-width:0.264583"
         x="140.50266"
         y="195.74905">$B_2$</tspan></text>
    <text
       style="font-size:3.175px;font-family:Iosevka;-inkscape-font-specification:'Iosevka, Normal';fill:#000000;fill-opacity:1;stroke:none;stroke-width:0.264583"
       xml:space="preserve"
       id="text1807"
       y="196.44641"
       x="92.301765"><tspan
         sodipodi:role="line"
         id="tspan1805"
         style="stroke-width:0.264583"
         x="92.301765"
         y="196.44641">$B_2'$</tspan></text>
  </g>
</svg>
