<?xml version="1.0" encoding="UTF-8" standalone="no"?>
<!-- Created with Inkscape (http://www.inkscape.org/) -->

<svg
   width="91.635025mm"
   height="33.978825mm"
   viewBox="0 0 91.635025 33.978825"
   version="1.1"
   id="svg8"
   inkscape:version="1.1.2 (0a00cf5339, 2022-02-04, custom)"
   sodipodi:docname="checkmark-lemma.svg"
   xmlns:inkscape="http://www.inkscape.org/namespaces/inkscape"
   xmlns:sodipodi="http://sodipodi.sourceforge.net/DTD/sodipodi-0.dtd"
   xmlns="http://www.w3.org/2000/svg"
   xmlns:svg="http://www.w3.org/2000/svg"
   xmlns:rdf="http://www.w3.org/1999/02/22-rdf-syntax-ns#"
   xmlns:cc="http://creativecommons.org/ns#"
   xmlns:dc="http://purl.org/dc/elements/1.1/">
  <defs
     id="defs2" />
  <sodipodi:namedview
     id="base"
     pagecolor="#ffffff"
     bordercolor="#666666"
     borderopacity="1.0"
     inkscape:pageopacity="0.0"
     inkscape:pageshadow="2"
     inkscape:zoom="2.8125141"
     inkscape:cx="153.0659"
     inkscape:cy="121.06606"
     inkscape:document-units="mm"
     inkscape:current-layer="layer1"
     showgrid="false"
     showborder="true"
     width="200mm"
     showguides="true"
     inkscape:guide-bbox="true"
     inkscape:window-width="1920"
     inkscape:window-height="1048"
     inkscape:window-x="0"
     inkscape:window-y="32"
     inkscape:window-maximized="1"
     inkscape:pagecheckerboard="0"
     fit-margin-left="15"
     fit-margin-right="15"
     fit-margin-top="0"
     fit-margin-bottom="0">
    <inkscape:grid
       type="xygrid"
       id="grid815"
       units="mm"
       spacingx="10"
       spacingy="10"
       empspacing="4"
       dotted="false"
       originx="-67.740046"
       originy="-2.7367176" />
  </sodipodi:namedview>
  <metadata
     id="metadata5">
    <rdf:RDF>
      <cc:Work
         rdf:about="">
        <dc:format>image/svg+xml</dc:format>
        <dc:type
           rdf:resource="http://purl.org/dc/dcmitype/StillImage" />
      </cc:Work>
    </rdf:RDF>
  </metadata>
  <g
     inkscape:label="Layer 1"
     inkscape:groupmode="layer"
     id="layer1"
     transform="translate(-67.740047,-179.73672)">
    <path
       style="fill:none;fill-opacity:1;stroke:#000000;stroke-width:0.280882;stroke-dasharray:1.05331, 1.05331;stroke-opacity:1;marker-start:none;marker-end:none"
       id="path63"
       sodipodi:type="arc"
       sodipodi:cx="92.261467"
       sodipodi:cy="203.3343"
       sodipodi:rx="9.3815479"
       sodipodi:ry="7.3425884"
       sodipodi:start="0"
       sodipodi:end="6.2813004"
       sodipodi:open="true"
       sodipodi:arc-type="arc"
       d="m 101.64301,203.3343 a 9.3815479,7.3425884 0 0 1 -9.377122,7.34259 9.3815479,7.3425884 0 0 1 -9.385965,-7.33566 9.3815479,7.3425884 0 0 1 9.368281,-7.34951 9.3815479,7.3425884 0 0 1 9.394796,7.32874" />
    <path
       style="fill:none;fill-opacity:1;stroke:#000000;stroke-width:0.280882;stroke-dasharray:1.05331, 1.05331;stroke-opacity:1;marker-start:none;marker-end:none"
       id="path93"
       sodipodi:type="arc"
       sodipodi:cx="104.58025"
       sodipodi:cy="205.97934"
       sodipodi:rx="10.43857"
       sodipodi:ry="7.6042676"
       sodipodi:start="0"
       sodipodi:end="6.2813004"
       sodipodi:open="true"
       sodipodi:arc-type="arc"
       d="m 115.01882,205.97934 a 10.43857,7.6042676 0 0 1 -10.43365,7.60427 10.43857,7.6042676 0 0 1 -10.443482,-7.5971 10.43857,7.6042676 0 0 1 10.423812,-7.61143 10.43857,7.6042676 0 0 1 10.45331,7.58993" />
    <path
       style="fill:none;fill-opacity:1;stroke:#000000;stroke-width:0.280882;stroke-dasharray:1.05331, 1.05331;stroke-opacity:1;marker-start:none;marker-end:none"
       id="path93-3"
       sodipodi:type="arc"
       sodipodi:cx="119.2033"
       sodipodi:cy="204.94269"
       sodipodi:rx="10.43857"
       sodipodi:ry="7.6042676"
       sodipodi:start="0"
       sodipodi:end="6.2813004"
       sodipodi:open="true"
       sodipodi:arc-type="arc"
       d="m 129.64187,204.94269 a 10.43857,7.6042676 0 0 1 -10.43365,7.60426 10.43857,7.6042676 0 0 1 -10.44348,-7.5971 10.43857,7.6042676 0 0 1 10.4238,-7.61142 10.43857,7.6042676 0 0 1 10.45331,7.58992" />
    <path
       style="fill:none;fill-opacity:1;stroke:#000000;stroke-width:0.280882;stroke-dasharray:1.05331, 1.05331;stroke-opacity:1;marker-start:none;marker-end:none"
       id="path93-6"
       sodipodi:type="arc"
       sodipodi:cx="133.79608"
       sodipodi:cy="203.25375"
       sodipodi:rx="10.43857"
       sodipodi:ry="7.6042676"
       sodipodi:start="0"
       sodipodi:end="6.2813004"
       sodipodi:open="true"
       sodipodi:arc-type="arc"
       d="m 144.23465,203.25375 a 10.43857,7.6042676 0 0 1 -10.43365,7.60427 10.43857,7.6042676 0 0 1 -10.44348,-7.5971 10.43857,7.6042676 0 0 1 10.4238,-7.61143 10.43857,7.6042676 0 0 1 10.45331,7.58993" />
    <path
       style="fill:#000000;fill-opacity:1;stroke:#000000;stroke-width:0;stroke-miterlimit:4;stroke-dasharray:none;stroke-opacity:1;marker-start:none;marker-end:none"
       id="path341-5"
       sodipodi:type="arc"
       sodipodi:cx="114.36252"
       sodipodi:cy="183.35431"
       sodipodi:rx="0.53459758"
       sodipodi:ry="0.53437382"
       sodipodi:start="0"
       sodipodi:end="6.2820508"
       sodipodi:open="true"
       sodipodi:arc-type="arc"
       d="m 114.89712,183.35431 a 0.53459758,0.53437382 0 0 1 -0.53445,0.53437 0.53459758,0.53437382 0 0 1 -0.53475,-0.53407 0.53459758,0.53437382 0 0 1 0.53414,-0.53467 0.53459758,0.53437382 0 0 1 0.53506,0.53376"
       inkscape:transform-center-x="8.6799895"
       inkscape:transform-center-y="11.628468" />
    <path
       style="fill:#000000;fill-opacity:1;stroke:#000000;stroke-width:0;stroke-miterlimit:4;stroke-dasharray:none;stroke-opacity:1;marker-start:none;marker-end:none"
       id="path341-5-7"
       sodipodi:type="arc"
       sodipodi:cx="87.453178"
       sodipodi:cy="201.74136"
       sodipodi:rx="0.53459758"
       sodipodi:ry="0.53437382"
       sodipodi:start="0"
       sodipodi:end="6.2820508"
       sodipodi:open="true"
       sodipodi:arc-type="arc"
       d="m 87.987776,201.74136 a 0.53459758,0.53437382 0 0 1 -0.534446,0.53438 0.53459758,0.53437382 0 0 1 -0.534749,-0.53407 0.53459758,0.53437382 0 0 1 0.534143,-0.53468 0.53459758,0.53437382 0 0 1 0.535052,0.53377" />
    <path
       style="fill:#000000;fill-opacity:1;stroke:#000000;stroke-width:0;stroke-miterlimit:4;stroke-dasharray:none;stroke-opacity:1;marker-start:none;marker-end:none"
       id="path341-5-5"
       sodipodi:type="arc"
       sodipodi:cx="97.648399"
       sodipodi:cy="205.03394"
       sodipodi:rx="0.53459758"
       sodipodi:ry="0.53437382"
       sodipodi:start="0"
       sodipodi:end="6.2820508"
       sodipodi:open="true"
       sodipodi:arc-type="arc"
       d="m 98.182997,205.03394 a 0.53459758,0.53437382 0 0 1 -0.534446,0.53437 0.53459758,0.53437382 0 0 1 -0.534749,-0.53407 0.53459758,0.53437382 0 0 1 0.534142,-0.53468 0.53459758,0.53437382 0 0 1 0.535053,0.53377" />
    <path
       style="fill:#000000;fill-opacity:1;stroke:#000000;stroke-width:0;stroke-miterlimit:4;stroke-dasharray:none;stroke-opacity:1;marker-start:none;marker-end:none"
       id="path341-5-3"
       sodipodi:type="arc"
       sodipodi:cx="112.32388"
       sodipodi:cy="205.8806"
       sodipodi:rx="0.53459758"
       sodipodi:ry="0.53437382"
       sodipodi:start="0"
       sodipodi:end="6.2820508"
       sodipodi:open="true"
       sodipodi:arc-type="arc"
       d="m 112.85848,205.8806 a 0.53459758,0.53437382 0 0 1 -0.53445,0.53437 0.53459758,0.53437382 0 0 1 -0.53474,-0.53407 0.53459758,0.53437382 0 0 1 0.53414,-0.53467 0.53459758,0.53437382 0 0 1 0.53505,0.53376" />
    <path
       style="fill:#000000;fill-opacity:1;stroke:#000000;stroke-width:0;stroke-miterlimit:4;stroke-dasharray:none;stroke-opacity:1;marker-start:none;marker-end:none"
       id="path341-5-56"
       sodipodi:type="arc"
       sodipodi:cx="126.62307"
       sodipodi:cy="203.90504"
       sodipodi:rx="0.53459758"
       sodipodi:ry="0.53437382"
       sodipodi:start="0"
       sodipodi:end="6.2820508"
       sodipodi:open="true"
       sodipodi:arc-type="arc"
       d="m 127.15767,203.90504 a 0.53459758,0.53437382 0 0 1 -0.53445,0.53438 0.53459758,0.53437382 0 0 1 -0.53475,-0.53407 0.53459758,0.53437382 0 0 1 0.53414,-0.53468 0.53459758,0.53437382 0 0 1 0.53506,0.53377" />
    <path
       style="fill:#000000;fill-opacity:1;stroke:#000000;stroke-width:0;stroke-miterlimit:4;stroke-dasharray:none;stroke-opacity:1;marker-start:none;marker-end:none"
       id="path341-5-2"
       sodipodi:type="arc"
       sodipodi:cx="137.02995"
       sodipodi:cy="200.33026"
       sodipodi:rx="0.53459758"
       sodipodi:ry="0.53437382"
       sodipodi:start="0"
       sodipodi:end="6.2820508"
       sodipodi:open="true"
       sodipodi:arc-type="arc"
       d="m 137.56455,200.33026 a 0.53459758,0.53437382 0 0 1 -0.53445,0.53438 0.53459758,0.53437382 0 0 1 -0.53474,-0.53408 0.53459758,0.53437382 0 0 1 0.53414,-0.53467 0.53459758,0.53437382 0 0 1 0.53505,0.53376" />
    <path
       style="fill:#000000;fill-opacity:1;stroke:#000000;stroke-width:0;stroke-miterlimit:4;stroke-dasharray:none;stroke-opacity:1;marker-start:none;marker-end:none"
       id="path341-5-9"
       sodipodi:type="arc"
       sodipodi:cx="119.0619"
       sodipodi:cy="200.47142"
       sodipodi:rx="0.53459758"
       sodipodi:ry="0.53437382"
       sodipodi:start="0"
       sodipodi:end="6.2820508"
       sodipodi:open="true"
       sodipodi:arc-type="arc"
       d="m 119.59649,200.47142 a 0.53459758,0.53437382 0 0 1 -0.53444,0.53437 0.53459758,0.53437382 0 0 1 -0.53475,-0.53407 0.53459758,0.53437382 0 0 1 0.53414,-0.53467 0.53459758,0.53437382 0 0 1 0.53505,0.53376" />
    <path
       style="fill:none;stroke:#000000;stroke-width:0.264583px;stroke-linecap:butt;stroke-linejoin:miter;stroke-opacity:1"
       d="m 87.458607,201.74076 26.909343,-18.38706 4.69938,17.11711"
       id="path351" />
    <path
       style="fill:none;stroke:#000000;stroke-width:0.264583px;stroke-linecap:butt;stroke-linejoin:miter;stroke-opacity:1"
       d="m 114.36795,183.3537 22.66744,16.97595"
       id="path353" />
    <text
       style="font-size:3.175px;font-family:Iosevka;-inkscape-font-specification:'Iosevka, Normal';fill:#000000;fill-opacity:1;stroke:none;stroke-width:0.264583"
       xml:space="preserve"
       id="text437"
       y="200.35135"
       x="137.91711"><tspan
         sodipodi:role="line"
         id="tspan435"
         style="stroke-width:0.264583"
         x="137.91711"
         y="200.35135">$c$</tspan></text>
    <text
       style="font-size:3.175px;font-family:Iosevka;-inkscape-font-specification:'Iosevka, Normal';fill:#000000;fill-opacity:1;stroke:none;stroke-width:0.264583"
       xml:space="preserve"
       id="text449"
       y="200.76701"
       x="85.255699"><tspan
         sodipodi:role="line"
         id="tspan447"
         style="stroke-width:0.264583"
         x="85.255699"
         y="200.76701">$a$</tspan></text>
    <text
       style="font-size:3.175px;font-family:Iosevka;-inkscape-font-specification:'Iosevka, Normal';fill:#000000;fill-opacity:1;stroke:none;stroke-width:0.264583"
       xml:space="preserve"
       id="text461"
       y="182.39737"
       x="113.30078"><tspan
         sodipodi:role="line"
         id="tspan459"
         style="stroke-width:0.264583"
         x="113.30078"
         y="182.39737">$b$</tspan></text>
    <text
       style="font-size:3.175px;font-family:Iosevka;-inkscape-font-specification:'Iosevka, Normal';fill:#000000;fill-opacity:1;stroke:none;stroke-width:0.264583"
       xml:space="preserve"
       id="text565"
       y="207.27779"
       x="87.908775"><tspan
         sodipodi:role="line"
         id="tspan563"
         style="stroke-width:0.264583"
         x="87.908775"
         y="207.27779">$B_a$</tspan></text>
    <text
       style="font-size:3.175px;font-family:Iosevka;-inkscape-font-specification:'Iosevka, Normal';fill:#000000;fill-opacity:1;stroke:none;stroke-width:0.264583"
       xml:space="preserve"
       id="text577"
       y="206.97047"
       x="134.00044"><tspan
         sodipodi:role="line"
         id="tspan575"
         style="stroke-width:0.264583"
         x="134.00044"
         y="206.97047">$B_c$</tspan></text>
  </g>
</svg>
