<?xml version="1.0" encoding="UTF-8" standalone="no"?>
<!-- Created with Inkscape (http://www.inkscape.org/) -->

<svg
   width="34.003838mm"
   height="31.651291mm"
   viewBox="0 0 34.003838 31.651291"
   version="1.1"
   id="svg8"
   inkscape:version="1.1.2 (0a00cf5339, 2022-02-04, custom)"
   sodipodi:docname="dirac-lemma-2.svg"
   xmlns:inkscape="http://www.inkscape.org/namespaces/inkscape"
   xmlns:sodipodi="http://sodipodi.sourceforge.net/DTD/sodipodi-0.dtd"
   xmlns="http://www.w3.org/2000/svg"
   xmlns:svg="http://www.w3.org/2000/svg"
   xmlns:rdf="http://www.w3.org/1999/02/22-rdf-syntax-ns#"
   xmlns:cc="http://creativecommons.org/ns#"
   xmlns:dc="http://purl.org/dc/elements/1.1/">
  <defs
     id="defs2" />
  <sodipodi:namedview
     id="base"
     pagecolor="#ffffff"
     bordercolor="#666666"
     borderopacity="1.0"
     inkscape:pageopacity="0.0"
     inkscape:pageshadow="2"
     inkscape:zoom="5.12"
     inkscape:cx="63.574219"
     inkscape:cy="70.605469"
     inkscape:document-units="mm"
     inkscape:current-layer="layer1"
     showgrid="false"
     showborder="true"
     width="200mm"
     showguides="true"
     inkscape:guide-bbox="true"
     inkscape:window-width="960"
     inkscape:window-height="1048"
     inkscape:window-x="960"
     inkscape:window-y="32"
     inkscape:window-maximized="1"
     inkscape:pagecheckerboard="0"
     fit-margin-top="0"
     fit-margin-left="0"
     fit-margin-right="0"
     fit-margin-bottom="0">
    <inkscape:grid
       type="xygrid"
       id="grid815"
       units="mm"
       spacingx="10"
       spacingy="10"
       empspacing="4"
       dotted="false"
       originx="-22.132534"
       originy="-20.009944" />
  </sodipodi:namedview>
  <metadata
     id="metadata5">
    <rdf:RDF>
      <cc:Work
         rdf:about="">
        <dc:format>image/svg+xml</dc:format>
        <dc:type
           rdf:resource="http://purl.org/dc/dcmitype/StillImage" />
      </cc:Work>
    </rdf:RDF>
  </metadata>
  <g
     inkscape:label="Layer 1"
     inkscape:groupmode="layer"
     id="layer1"
     transform="translate(-22.132535,-197.00994)">
    <path
       style="opacity:0.93;fill:#000000;fill-opacity:1;stroke:#000000;stroke-width:0;stroke-miterlimit:4;stroke-dasharray:none;stroke-opacity:1;marker-start:none;marker-end:none"
       id="path341-5"
       sodipodi:type="arc"
       sodipodi:cx="47.353256"
       sodipodi:cy="214.99706"
       sodipodi:rx="0.53460008"
       sodipodi:ry="0.53437382"
       sodipodi:start="0"
       sodipodi:end="6.2820508"
       sodipodi:open="true"
       sodipodi:arc-type="arc"
       d="m 47.887856,214.99706 a 0.53460008,0.53437382 0 0 1 -0.534448,0.53437 0.53460008,0.53437382 0 0 1 -0.534752,-0.53407 0.53460008,0.53437382 0 0 1 0.534145,-0.53468 0.53460008,0.53437382 0 0 1 0.535055,0.53377" />
    <path
       style="opacity:0.93;fill:#000000;fill-opacity:1;stroke:#000000;stroke-width:0;stroke-miterlimit:4;stroke-dasharray:none;stroke-opacity:1;marker-start:none;marker-end:none"
       id="path341-5-6"
       sodipodi:type="arc"
       sodipodi:cx="35.396252"
       sodipodi:cy="204.46909"
       sodipodi:rx="0.53460008"
       sodipodi:ry="0.53437382"
       sodipodi:start="0"
       sodipodi:end="6.2820508"
       sodipodi:open="true"
       sodipodi:arc-type="arc"
       d="m 35.930852,204.46909 a 0.53460008,0.53437382 0 0 1 -0.534449,0.53437 0.53460008,0.53437382 0 0 1 -0.534751,-0.53407 0.53460008,0.53437382 0 0 1 0.534145,-0.53468 0.53460008,0.53437382 0 0 1 0.535054,0.53377" />
    <path
       style="opacity:0.93;fill:#000000;fill-opacity:1;stroke:#000000;stroke-width:0;stroke-miterlimit:4;stroke-dasharray:none;stroke-opacity:1;marker-start:none;marker-end:none"
       id="path341-5-7"
       sodipodi:type="arc"
       sodipodi:cx="34.729176"
       sodipodi:cy="225.63803"
       sodipodi:rx="0.53460008"
       sodipodi:ry="0.53437382"
       sodipodi:start="0"
       sodipodi:end="6.2820508"
       sodipodi:open="true"
       sodipodi:arc-type="arc"
       d="m 35.263776,225.63803 a 0.53460008,0.53437382 0 0 1 -0.534449,0.53437 0.53460008,0.53437382 0 0 1 -0.534751,-0.53407 0.53460008,0.53437382 0 0 1 0.534145,-0.53467 0.53460008,0.53437382 0 0 1 0.535054,0.53376" />
    <path
       style="opacity:0.93;fill:#000000;fill-opacity:1;stroke:#000000;stroke-width:0;stroke-miterlimit:4;stroke-dasharray:none;stroke-opacity:1;marker-start:none;marker-end:none"
       id="path341-5-5"
       sodipodi:type="arc"
       sodipodi:cx="22.667135"
       sodipodi:cy="215.19899"
       sodipodi:rx="0.53460008"
       sodipodi:ry="0.53437382"
       sodipodi:start="0"
       sodipodi:end="6.2820508"
       sodipodi:open="true"
       sodipodi:arc-type="arc"
       d="m 23.201735,215.19899 a 0.53460008,0.53437382 0 0 1 -0.534448,0.53437 0.53460008,0.53437382 0 0 1 -0.534752,-0.53407 0.53460008,0.53437382 0 0 1 0.534145,-0.53467 0.53460008,0.53437382 0 0 1 0.535055,0.53376" />
    <path
       style="opacity:0.93;fill:none;fill-opacity:1;stroke:#000000;stroke-width:0.280882;stroke-dasharray:none;stroke-opacity:1;marker-start:none;marker-end:none"
       id="path30"
       sodipodi:type="arc"
       sodipodi:cx="35.022602"
       sodipodi:cy="215.0067"
       sodipodi:rx="12.323323"
       sodipodi:ry="10.57239"
       sodipodi:start="0"
       sodipodi:end="6.2813004"
       sodipodi:open="true"
       sodipodi:arc-type="arc"
       d="M 47.345925,215.0067 A 12.323323,10.57239 0 0 1 35.028409,225.57909 12.323323,10.57239 0 0 1 22.699284,215.01666 12.323323,10.57239 0 0 1 35.005181,204.43432 12.323323,10.57239 0 0 1 47.345903,214.98677" />
    <path
       style="opacity:0.93;fill:none;stroke:#000000;stroke-width:0.254253px;stroke-linecap:butt;stroke-linejoin:miter;stroke-opacity:1"
       d="m 35.639682,204.46857 c -4.04318,2.59676 -4.287501,7.3432 -2.289439,11.67391 0.625742,1.35626 1.526386,2.51621 1.913371,3.99968 0.232186,0.89005 0.713795,2.71244 0.426603,3.64544 -0.228178,0.74129 -1.051951,1.34738 -0.666536,1.84992"
       id="path711" />
    <path
       style="opacity:0.93;fill:none;stroke:#000000;stroke-width:0.269699px;stroke-linecap:butt;stroke-linejoin:miter;stroke-opacity:1"
       d="m 22.843365,215.19847 c 1.057792,-1.85261 5.011731,-8.30021 9.537806,-6.52875"
       id="path183"
       sodipodi:nodetypes="cc" />
    <path
       style="opacity:0.93;fill:#000000;fill-opacity:1;stroke:#000000;stroke-width:0;stroke-miterlimit:4;stroke-dasharray:none;stroke-opacity:1;marker-start:none;marker-end:none"
       id="path341-5-3"
       sodipodi:type="arc"
       sodipodi:cx="32.328804"
       sodipodi:cy="208.83911"
       sodipodi:rx="0.53460008"
       sodipodi:ry="0.53437382"
       sodipodi:start="0"
       sodipodi:end="6.2820508"
       sodipodi:open="true"
       sodipodi:arc-type="arc"
       d="m 32.863404,208.83911 a 0.53460008,0.53437382 0 0 1 -0.534448,0.53438 0.53460008,0.53437382 0 0 1 -0.534752,-0.53408 0.53460008,0.53437382 0 0 1 0.534145,-0.53467 0.53460008,0.53437382 0 0 1 0.535055,0.53377" />
    <path
       style="opacity:0.93;fill:none;fill-opacity:1;stroke:#000000;stroke-width:0.140441;stroke-linecap:butt;stroke-linejoin:miter;stroke-dasharray:1.05331, 1.05331;stroke-opacity:1;marker-start:none;marker-end:none"
       d="m 32.863406,208.83859 c 1.286367,0.66583 3.380996,0.25591 4.861543,0.99443 1.356789,0.6768 2.645676,1.35632 2.337546,3.05795 -0.848115,4.68368 -6.312596,3.73074 -7.380169,5.43885 -2.74925,4.39878 6.59081,1.81727 8.122867,0.92182 2.110098,-1.23332 4.285367,-3.55107 6.54071,-4.26479"
       id="path550" />
    <text
       style="font-size:3.175px;font-family:Iosevka;-inkscape-font-specification:'Iosevka, Normal';fill:#000000;fill-opacity:1;stroke:none;stroke-width:0.264583"
       xml:space="preserve"
       id="text137"
       x="27.393026"
       y="212.35136"><tspan
         sodipodi:role="line"
         id="tspan135"
         style="stroke-width:0.264583"
         x="27.393026"
         y="212.35136">$P$</tspan></text>
    <text
       style="font-size:3.175px;font-family:Iosevka;-inkscape-font-specification:'Iosevka, Normal';fill:#000000;fill-opacity:1;stroke:none;stroke-width:0.264583"
       xml:space="preserve"
       id="text674"
       x="48.637383"
       y="215.20499"><tspan
         sodipodi:role="line"
         id="tspan672"
         style="stroke-width:0.264583"
         x="48.637383"
         y="215.20499">$a_m$</tspan></text>
    <text
       style="font-size:3.175px;font-family:Iosevka;-inkscape-font-specification:'Iosevka, Normal';fill:#000000;fill-opacity:1;stroke:none;stroke-width:0.264583"
       xml:space="preserve"
       id="text686"
       x="33.916283"
       y="215.99519"><tspan
         sodipodi:role="line"
         id="tspan684"
         style="stroke-width:0.264583"
         x="33.916283"
         y="215.99519">$Q$</tspan></text>
    <text
       style="font-size:3.175px;font-family:Iosevka;-inkscape-font-specification:'Iosevka, Normal';fill:#000000;fill-opacity:1;stroke:none;stroke-width:0.264583"
       xml:space="preserve"
       id="text698"
       x="33.839714"
       y="208.33995"><tspan
         sodipodi:role="line"
         id="tspan696"
         style="stroke-width:0.264583"
         x="33.839714"
         y="208.33995">$u$</tspan></text>
    <text
       style="font-size:3.175px;font-family:Iosevka;-inkscape-font-specification:'Iosevka, Normal';fill:#000000;fill-opacity:1;stroke:none;stroke-width:0.264583"
       xml:space="preserve"
       id="text710"
       x="35.577995"
       y="203.13718"><tspan
         sodipodi:role="line"
         id="tspan708"
         style="stroke-width:0.264583"
         x="35.577995"
         y="203.13718">$a_x$</tspan></text>
    <text
       style="font-size:3.175px;font-family:Iosevka;-inkscape-font-specification:'Iosevka, Normal';fill:#000000;fill-opacity:1;stroke:none;stroke-width:0.264583"
       xml:space="preserve"
       id="text722"
       x="35.03973"
       y="228.3653"><tspan
         sodipodi:role="line"
         id="tspan720"
         style="stroke-width:0.264583"
         x="35.03973"
         y="228.3653">$a_y$</tspan></text>
    <text
       style="font-size:3.175px;font-family:Iosevka;-inkscape-font-specification:'Iosevka, Normal';fill:#000000;fill-opacity:1;stroke:none;stroke-width:0.264583"
       xml:space="preserve"
       id="text734"
       x="23.753471"
       y="216.50116"><tspan
         sodipodi:role="line"
         id="tspan732"
         style="stroke-width:0.264583"
         x="23.753471"
         y="216.50116">$a_2$</tspan></text>
  </g>
</svg>
