<?xml version="1.0" encoding="UTF-8" standalone="no"?>
<!-- Created with Inkscape (http://www.inkscape.org/) -->

<svg
   width="41.317646mm"
   height="31.651291mm"
   viewBox="0 0 41.317646 31.651291"
   version="1.1"
   id="svg8"
   inkscape:version="1.1.2 (0a00cf5339, 2022-02-04, custom)"
   sodipodi:docname="dirac-lemma-3.svg"
   xmlns:inkscape="http://www.inkscape.org/namespaces/inkscape"
   xmlns:sodipodi="http://sodipodi.sourceforge.net/DTD/sodipodi-0.dtd"
   xmlns="http://www.w3.org/2000/svg"
   xmlns:svg="http://www.w3.org/2000/svg"
   xmlns:rdf="http://www.w3.org/1999/02/22-rdf-syntax-ns#"
   xmlns:cc="http://creativecommons.org/ns#"
   xmlns:dc="http://purl.org/dc/elements/1.1/">
  <defs
     id="defs2" />
  <sodipodi:namedview
     id="base"
     pagecolor="#ffffff"
     bordercolor="#666666"
     borderopacity="1.0"
     inkscape:pageopacity="0.0"
     inkscape:pageshadow="2"
     inkscape:zoom="3.9774955"
     inkscape:cx="67.001961"
     inkscape:cy="65.744889"
     inkscape:document-units="mm"
     inkscape:current-layer="layer1"
     showgrid="false"
     showborder="true"
     width="200mm"
     showguides="true"
     inkscape:guide-bbox="true"
     inkscape:window-width="1920"
     inkscape:window-height="1048"
     inkscape:window-x="0"
     inkscape:window-y="32"
     inkscape:window-maximized="1"
     inkscape:pagecheckerboard="0">
    <inkscape:grid
       type="xygrid"
       id="grid815"
       units="mm"
       spacingx="10"
       spacingy="10"
       empspacing="4"
       dotted="false"
       originx="-67.511451"
       originy="-13.282389" />
  </sodipodi:namedview>
  <metadata
     id="metadata5">
    <rdf:RDF>
      <cc:Work
         rdf:about="">
        <dc:format>image/svg+xml</dc:format>
        <dc:type
           rdf:resource="http://purl.org/dc/dcmitype/StillImage" />
      </cc:Work>
    </rdf:RDF>
  </metadata>
  <g
     inkscape:label="Layer 1"
     inkscape:groupmode="layer"
     id="layer1"
     transform="translate(-67.511449,-190.28239)">
    <path
       style="fill:none;stroke:#000000;stroke-width:0.264583px;stroke-linecap:butt;stroke-linejoin:miter;stroke-opacity:1"
       d="m 86.604794,198.07694 c 19.338326,-4.15801 20.663636,15.80887 2.292898,16.60224"
       id="path74" />
    <path
       style="fill:none;stroke:#000000;stroke-width:0.264583px;stroke-linecap:butt;stroke-linejoin:miter;stroke-opacity:1"
       d="m 86.604794,198.07694 c 0,0 -12.466651,-0.14061 -16.500496,9.45828 9.874799,8.7619 18.793394,7.14396 18.793394,7.14396"
       id="path111" />
    <path
       style="fill:none;stroke:#000000;stroke-width:0.264583px;stroke-linecap:butt;stroke-linejoin:miter;stroke-opacity:1"
       d="m 86.604846,198.07694 c 0,0 -5.491082,2.98467 -6.099693,8.3973 3.66304,6.25338 8.392539,8.20494 8.392539,8.20494"
       id="path113"
       sodipodi:nodetypes="ccc" />
    <path
       style="fill:none;stroke:#000000;stroke-width:0.264583px;stroke-linecap:butt;stroke-linejoin:miter;stroke-opacity:1"
       d="m 80.505101,206.47424 c -4.189741,-2.91406 -10.400803,1.06098 -10.400803,1.06098"
       id="path115" />
    <path
       style="fill:none;fill-opacity:1;stroke:#000000;stroke-width:0.140441;stroke-linecap:butt;stroke-linejoin:miter;stroke-dasharray:1.05331, 1.05331;stroke-opacity:1;marker-start:none;marker-end:none"
       d="m 89.082149,194.05676 c -7.338166,-0.039 -4.785776,20.35446 -1.902579,22.66102 1.313846,1.05108 4.126185,0.78542 5.660151,0.4568 2.767227,-0.59282 5.271051,-1.23502 7.477529,-3.09952 3.43239,-2.9004 6.27498,-11.47473 3.01955,-15.35765 -3.13065,-3.73408 -9.871313,-3.7836 -14.254651,-4.66065 z"
       id="path150" />
    <path
       style="fill:none;fill-opacity:1;stroke:#000000;stroke-width:0.140441;stroke-linecap:butt;stroke-linejoin:miter;stroke-dasharray:1.05331, 1.05331;stroke-opacity:1;marker-start:none;marker-end:none"
       d="m 81.786888,195.8195 c 2.936977,0.0255 5.021056,0.43466 7.584687,1.72002 3.176196,2.07275 4.478355,6.09257 4.478355,9.54646 0,6.20303 -3.571677,10.50464 -10.432894,10.50464 -1.886252,0 -3.930417,0.22067 -5.752005,-0.34322 -8.102346,-2.50816 -15.266872,-14.1592 -5.01012,-19.14276 3.402575,-1.65325 5.621885,-2.26218 9.131977,-2.28514 z"
       id="path191"
       sodipodi:nodetypes="ccssssc" />
    <path
       style="fill:#000000;fill-opacity:1;stroke:#000000;stroke-width:0;stroke-miterlimit:4;stroke-dasharray:none;stroke-opacity:1;marker-start:none;marker-end:none"
       id="path341-5"
       sodipodi:type="arc"
       sodipodi:cx="86.609146"
       sodipodi:cy="198.19897"
       sodipodi:rx="0.53459758"
       sodipodi:ry="0.53437382"
       sodipodi:start="0"
       sodipodi:end="6.2820508"
       sodipodi:open="true"
       sodipodi:arc-type="arc"
       d="m 87.143744,198.19897 a 0.53459758,0.53437382 0 0 1 -0.534446,0.53438 0.53459758,0.53437382 0 0 1 -0.534749,-0.53407 0.53459758,0.53437382 0 0 1 0.534142,-0.53468 0.53459758,0.53437382 0 0 1 0.535052,0.53377" />
    <path
       style="fill:#000000;fill-opacity:1;stroke:#000000;stroke-width:0;stroke-miterlimit:4;stroke-dasharray:none;stroke-opacity:1;marker-start:none;marker-end:none"
       id="path341-5-3"
       sodipodi:type="arc"
       sodipodi:cx="88.874481"
       sodipodi:cy="214.64574"
       sodipodi:rx="0.53459758"
       sodipodi:ry="0.53437382"
       sodipodi:start="0"
       sodipodi:end="6.2820508"
       sodipodi:open="true"
       sodipodi:arc-type="arc"
       d="m 89.409079,214.64574 a 0.53459758,0.53437382 0 0 1 -0.534446,0.53437 0.53459758,0.53437382 0 0 1 -0.534749,-0.53407 0.53459758,0.53437382 0 0 1 0.534142,-0.53468 0.53459758,0.53437382 0 0 1 0.535052,0.53377" />
    <path
       style="fill:#000000;fill-opacity:1;stroke:#000000;stroke-width:0;stroke-miterlimit:4;stroke-dasharray:none;stroke-opacity:1;marker-start:none;marker-end:none"
       id="path341-5-6"
       sodipodi:type="arc"
       sodipodi:cx="80.503487"
       sodipodi:cy="206.59795"
       sodipodi:rx="0.53459758"
       sodipodi:ry="0.53437382"
       sodipodi:start="0"
       sodipodi:end="6.2820508"
       sodipodi:open="true"
       sodipodi:arc-type="arc"
       d="m 81.038084,206.59795 a 0.53459758,0.53437382 0 0 1 -0.534446,0.53437 0.53459758,0.53437382 0 0 1 -0.534749,-0.53407 0.53459758,0.53437382 0 0 1 0.534143,-0.53468 0.53459758,0.53437382 0 0 1 0.535052,0.53377" />
    <path
       style="fill:#000000;fill-opacity:1;stroke:#000000;stroke-width:0;stroke-miterlimit:4;stroke-dasharray:none;stroke-opacity:1;marker-start:none;marker-end:none"
       id="path341-5-7"
       sodipodi:type="arc"
       sodipodi:cx="70.225945"
       sodipodi:cy="207.53868"
       sodipodi:rx="0.53459758"
       sodipodi:ry="0.53437382"
       sodipodi:start="0"
       sodipodi:end="6.2820508"
       sodipodi:open="true"
       sodipodi:arc-type="arc"
       d="m 70.760542,207.53868 a 0.53459758,0.53437382 0 0 1 -0.534446,0.53437 0.53459758,0.53437382 0 0 1 -0.534749,-0.53407 0.53459758,0.53437382 0 0 1 0.534143,-0.53467 0.53459758,0.53437382 0 0 1 0.535052,0.53376" />
    <path
       style="fill:none;fill-opacity:1;stroke:#000000;stroke-width:0.280882;stroke-linecap:butt;stroke-linejoin:miter;stroke-dasharray:1.05331, 1.05331;stroke-opacity:1;marker-start:none;marker-end:none"
       d="m 86.604794,198.07694 2.292898,16.60224"
       id="path377" />
    <text
       style="font-size:3.175px;font-family:Iosevka;-inkscape-font-specification:'Iosevka, Normal';fill:#000000;fill-opacity:1;stroke:none;stroke-width:0.264583"
       xml:space="preserve"
       id="text913"
       y="200.22476"
       x="87.378876"><tspan
         sodipodi:role="line"
         id="tspan911"
         style="stroke-width:0.264583"
         x="87.378876"
         y="200.22476">$a$</tspan></text>
    <text
       style="font-size:3.175px;font-family:Iosevka;-inkscape-font-specification:'Iosevka, Normal';fill:#000000;fill-opacity:1;stroke:none;stroke-width:0.264583"
       xml:space="preserve"
       id="text1518"
       y="213.64513"
       x="89.179054"><tspan
         sodipodi:role="line"
         id="tspan1516"
         style="stroke-width:0.264583"
         x="89.179054"
         y="213.64513">$b$</tspan></text>
    <text
       style="font-size:3.175px;font-family:Iosevka;-inkscape-font-specification:'Iosevka, Normal';fill:#000000;fill-opacity:1;stroke:none;stroke-width:0.264583"
       xml:space="preserve"
       id="text1541"
       y="216.19104"
       x="101.0694"><tspan
         sodipodi:role="line"
         id="tspan1539"
         style="stroke-width:0.264583"
         x="101.0694"
         y="216.19104">$G_2$</tspan></text>
    <text
       style="font-size:3.175px;font-family:Iosevka;-inkscape-font-specification:'Iosevka, Normal';fill:#000000;fill-opacity:1;stroke:none;stroke-width:0.264583"
       xml:space="preserve"
       id="text1553"
       y="219.14798"
       x="69.989708"><tspan
         sodipodi:role="line"
         id="tspan1551"
         style="stroke-width:0.264583"
         x="69.989708"
         y="219.14798">$G_1$</tspan></text>
    <text
       style="font-size:3.175px;font-family:Iosevka;-inkscape-font-specification:'Iosevka, Normal';fill:#000000;fill-opacity:1;stroke:none;stroke-width:0.264583"
       xml:space="preserve"
       id="text154"
       x="97.432831"
       y="206.01869"><tspan
         sodipodi:role="line"
         id="tspan152"
         style="stroke-width:0.264583"
         x="97.432831"
         y="206.01869">$P$</tspan></text>
  </g>
</svg>
