<?xml version="1.0" encoding="UTF-8" standalone="no"?>
<!-- Created with Inkscape (http://www.inkscape.org/) -->

<svg
   width="79.534813mm"
   height="44.123764mm"
   viewBox="0 0 79.534813 44.123764"
   version="1.1"
   id="svg8"
   inkscape:version="1.1.2 (0a00cf5339, 2022-02-04, custom)"
   sodipodi:docname="jordan-theorem-2.svg"
   xmlns:inkscape="http://www.inkscape.org/namespaces/inkscape"
   xmlns:sodipodi="http://sodipodi.sourceforge.net/DTD/sodipodi-0.dtd"
   xmlns="http://www.w3.org/2000/svg"
   xmlns:svg="http://www.w3.org/2000/svg"
   xmlns:rdf="http://www.w3.org/1999/02/22-rdf-syntax-ns#"
   xmlns:cc="http://creativecommons.org/ns#"
   xmlns:dc="http://purl.org/dc/elements/1.1/">
  <defs
     id="defs2">
    <marker
       id="marker-arrow-0.5308"
       orient="auto-start-reverse"
       refY="0"
       refX="0"
       markerHeight="1.6900001"
       markerWidth="0.91100001">
      <g
         transform="scale(2.1535293)"
         id="g1086">
        <path
           d="M -1.55415,2.0722 C -1.42464,1.29512 0,0.1295 0.38852,0 0,-0.1295 -1.42464,-1.29512 -1.55415,-2.0722"
           style="fill:none;stroke:#000000;stroke-width:0.6;stroke-linecap:round;stroke-linejoin:round;stroke-miterlimit:10;stroke-dasharray:none;stroke-opacity:1"
           inkscape:connector-curvature="0"
           id="path1084" />
      </g>
    </marker>
  </defs>
  <sodipodi:namedview
     id="base"
     pagecolor="#ffffff"
     bordercolor="#666666"
     borderopacity="1.0"
     inkscape:pageopacity="0.0"
     inkscape:pageshadow="2"
     inkscape:zoom="2.8125141"
     inkscape:cx="156.62144"
     inkscape:cy="115.73276"
     inkscape:document-units="mm"
     inkscape:current-layer="layer1"
     showgrid="false"
     showborder="true"
     width="200mm"
     showguides="true"
     inkscape:guide-bbox="true"
     inkscape:window-width="1920"
     inkscape:window-height="1048"
     inkscape:window-x="0"
     inkscape:window-y="32"
     inkscape:window-maximized="1"
     inkscape:pagecheckerboard="0">
    <inkscape:grid
       type="xygrid"
       id="grid815"
       units="mm"
       spacingx="10"
       spacingy="10"
       empspacing="4"
       dotted="false"
       originx="-51.934959"
       originy="-19.405558" />
  </sodipodi:namedview>
  <metadata
     id="metadata5">
    <rdf:RDF>
      <cc:Work
         rdf:about="">
        <dc:format>image/svg+xml</dc:format>
        <dc:type
           rdf:resource="http://purl.org/dc/dcmitype/StillImage" />
      </cc:Work>
    </rdf:RDF>
  </metadata>
  <g
     inkscape:label="Layer 1"
     inkscape:groupmode="layer"
     id="layer1"
     transform="translate(-51.934957,-196.40556)">
    <path
       style="fill:none;fill-opacity:1;stroke:#000000;stroke-width:0.421322;stroke-linecap:butt;stroke-linejoin:miter;stroke-dasharray:none;stroke-opacity:1;marker-start:none;marker-end:none"
       d="M 82.606054,229.82149 66.472183,212.87197 99.659955,201.49174 90.953412,220.6065 117.0678,208.70144 116.3599,236.91747 Z"
       id="path41"
       sodipodi:nodetypes="ccccccc" />
    <path
       style="fill:none;stroke:#000000;stroke-width:0.264583px;stroke-linecap:butt;stroke-linejoin:miter;stroke-opacity:1"
       d="m 81.036971,232.25568 -19.973541,-20.94892 43.70313,-14.67711 -9.340589,19.83892 24.648099,-12.76681 -0.82423,36.66501 z"
       id="path594" />
    <path
       style="fill:none;fill-opacity:1;stroke:#000000;stroke-width:0.280882;stroke-linecap:butt;stroke-linejoin:miter;stroke-dasharray:none;stroke-opacity:1;marker-start:none;marker-end:none"
       d="m 84.292389,227.44045 -13.103842,-13.69183 24.137988,-8.45237 -8.647888,19.73105 28.427853,-12.65374 -0.62005,21.11608 z"
       id="path596" />
    <path
       style="fill:none;fill-opacity:1;stroke:#000000;stroke-width:0.140441;stroke-linecap:butt;stroke-linejoin:miter;stroke-dasharray:none;stroke-opacity:1;marker-start:none;marker-end:url(#marker-arrow-0.5308)"
       d="m 52.458281,221.64891 78.804179,9.86293"
       id="path1082" />
    <path
       style="fill:#000000;fill-opacity:1;stroke:#000000;stroke-width:0;stroke-miterlimit:4;stroke-dasharray:none;stroke-opacity:1;marker-start:none;marker-end:none"
       id="path341-5"
       sodipodi:type="arc"
       sodipodi:cx="77.77459"
       sodipodi:cy="224.81314"
       sodipodi:rx="0.53459758"
       sodipodi:ry="0.53437382"
       sodipodi:start="0"
       sodipodi:end="6.2820508"
       sodipodi:open="true"
       sodipodi:arc-type="arc"
       d="m 78.309187,224.81314 a 0.53459758,0.53437382 0 0 1 -0.534446,0.53437 0.53459758,0.53437382 0 0 1 -0.534749,-0.53407 0.53459758,0.53437382 0 0 1 0.534143,-0.53467 0.53459758,0.53437382 0 0 1 0.535052,0.53376" />
    <path
       style="fill:#000000;fill-opacity:1;stroke:#000000;stroke-width:0;stroke-miterlimit:4;stroke-dasharray:none;stroke-opacity:1;marker-start:none;marker-end:none"
       id="path341-5-7"
       sodipodi:type="arc"
       sodipodi:cx="73.377411"
       sodipodi:cy="224.2955"
       sodipodi:rx="0.53459758"
       sodipodi:ry="0.53437382"
       sodipodi:start="0"
       sodipodi:end="6.2820508"
       sodipodi:open="true"
       sodipodi:arc-type="arc"
       d="m 73.912008,224.2955 a 0.53459758,0.53437382 0 0 1 -0.534445,0.53438 0.53459758,0.53437382 0 0 1 -0.53475,-0.53408 0.53459758,0.53437382 0 0 1 0.534143,-0.53467 0.53459758,0.53437382 0 0 1 0.535052,0.53377" />
    <path
       style="fill:#000000;fill-opacity:1;stroke:#000000;stroke-width:0;stroke-miterlimit:4;stroke-dasharray:none;stroke-opacity:1;marker-start:none;marker-end:none"
       id="path341-5-5"
       sodipodi:type="arc"
       sodipodi:cx="114.5736"
       sodipodi:cy="229.43277"
       sodipodi:rx="0.53459758"
       sodipodi:ry="0.53437382"
       sodipodi:start="0"
       sodipodi:end="6.2820508"
       sodipodi:open="true"
       sodipodi:arc-type="arc"
       d="m 115.1082,229.43277 a 0.53459758,0.53437382 0 0 1 -0.53445,0.53437 0.53459758,0.53437382 0 0 1 -0.53475,-0.53407 0.53459758,0.53437382 0 0 1 0.53415,-0.53467 0.53459758,0.53437382 0 0 1 0.53505,0.53376" />
    <path
       style="fill:#000000;fill-opacity:1;stroke:#000000;stroke-width:0;stroke-miterlimit:4;stroke-dasharray:none;stroke-opacity:1;marker-start:none;marker-end:none"
       id="path341-5-3"
       sodipodi:type="arc"
       sodipodi:cx="116.55719"
       sodipodi:cy="229.64157"
       sodipodi:rx="0.53459758"
       sodipodi:ry="0.53437382"
       sodipodi:start="0"
       sodipodi:end="6.2820508"
       sodipodi:open="true"
       sodipodi:arc-type="arc"
       d="m 117.09179,229.64157 a 0.53459758,0.53437382 0 0 1 -0.53445,0.53437 0.53459758,0.53437382 0 0 1 -0.53475,-0.53407 0.53459758,0.53437382 0 0 1 0.53415,-0.53467 0.53459758,0.53437382 0 0 1 0.53505,0.53376" />
    <path
       style="fill:#000000;fill-opacity:1;stroke:#000000;stroke-width:0;stroke-miterlimit:4;stroke-dasharray:none;stroke-opacity:1;marker-start:none;marker-end:none"
       id="path341-5-56"
       sodipodi:type="arc"
       sodipodi:cx="119.47883"
       sodipodi:cy="230.08102"
       sodipodi:rx="0.53459758"
       sodipodi:ry="0.53437382"
       sodipodi:start="0"
       sodipodi:end="6.2820508"
       sodipodi:open="true"
       sodipodi:arc-type="arc"
       d="m 120.01343,230.08102 a 0.53459758,0.53437382 0 0 1 -0.53445,0.53438 0.53459758,0.53437382 0 0 1 -0.53475,-0.53407 0.53459758,0.53437382 0 0 1 0.53414,-0.53468 0.53459758,0.53437382 0 0 1 0.53506,0.53377" />
    <path
       style="fill:#000000;fill-opacity:1;stroke:#000000;stroke-width:0;stroke-miterlimit:4;stroke-dasharray:none;stroke-opacity:1;marker-start:none;marker-end:none"
       id="path341-5-2"
       sodipodi:type="arc"
       sodipodi:cx="126.12919"
       sodipodi:cy="230.85713"
       sodipodi:rx="0.53459758"
       sodipodi:ry="0.53437382"
       sodipodi:start="0"
       sodipodi:end="6.2820508"
       sodipodi:open="true"
       sodipodi:arc-type="arc"
       d="m 126.66379,230.85713 a 0.53459758,0.53437382 0 0 1 -0.53445,0.53438 0.53459758,0.53437382 0 0 1 -0.53475,-0.53407 0.53459758,0.53437382 0 0 1 0.53414,-0.53468 0.53459758,0.53437382 0 0 1 0.53506,0.53377" />
    <path
       style="fill:#000000;fill-opacity:1;stroke:#000000;stroke-width:0;stroke-miterlimit:4;stroke-dasharray:none;stroke-opacity:1;marker-start:none;marker-end:none"
       id="path341-5-9"
       sodipodi:type="arc"
       sodipodi:cx="52.469555"
       sodipodi:cy="221.68497"
       sodipodi:rx="0.53459758"
       sodipodi:ry="0.53437382"
       sodipodi:start="0"
       sodipodi:end="6.2820508"
       sodipodi:open="true"
       sodipodi:arc-type="arc"
       d="m 53.004152,221.68497 a 0.53459758,0.53437382 0 0 1 -0.534445,0.53437 0.53459758,0.53437382 0 0 1 -0.53475,-0.53407 0.53459758,0.53437382 0 0 1 0.534143,-0.53468 0.53459758,0.53437382 0 0 1 0.535052,0.53377" />
    <text
       style="font-size:3.175px;font-family:Iosevka;-inkscape-font-specification:'Iosevka, Normal';fill:#000000;fill-opacity:1;stroke:none;stroke-width:0.264583"
       xml:space="preserve"
       id="text1316"
       y="220.61591"
       x="50.522976"><tspan
         sodipodi:role="line"
         id="tspan1314"
         style="stroke-width:0.264583"
         x="50.522976"
         y="220.61591">$A$</tspan></text>
    <text
       style="font-size:3.175px;font-family:Iosevka;-inkscape-font-specification:'Iosevka, Normal';fill:#000000;fill-opacity:1;stroke:none;stroke-width:0.264583"
       xml:space="preserve"
       id="text1328"
       y="203.47421"
       x="77.641029"><tspan
         sodipodi:role="line"
         id="tspan1326"
         style="stroke-width:0.264583"
         x="77.641029"
         y="203.47421">$P'$</tspan></text>
    <text
       style="font-size:3.175px;font-family:Iosevka;-inkscape-font-specification:'Iosevka, Normal';fill:#000000;fill-opacity:1;stroke:none;stroke-width:0.264583"
       xml:space="preserve"
       id="text1340"
       y="214.14566"
       x="81.576485"><tspan
         sodipodi:role="line"
         id="tspan1338"
         style="stroke-width:0.264583"
         x="81.576485"
         y="214.14566">$P''$</tspan></text>
    <text
       style="font-size:3.175px;font-family:Iosevka;-inkscape-font-specification:'Iosevka, Normal';fill:#000000;fill-opacity:1;stroke:none;stroke-width:0.264583"
       xml:space="preserve"
       id="text1352"
       y="228.87524"
       x="68.997879"><tspan
         sodipodi:role="line"
         id="tspan1350"
         style="stroke-width:0.264583"
         x="68.997879"
         y="228.87524">$A'$</tspan></text>
    <text
       style="font-size:2.92057px;font-family:Iosevka;-inkscape-font-specification:'Iosevka, Normal';fill:#000000;fill-opacity:1;stroke:none;stroke-width:0.243381"
       xml:space="preserve"
       id="text1364"
       y="211.32854"
       x="137.11028"
       transform="scale(0.91986547,1.0871155)"><tspan
         sodipodi:role="line"
         id="tspan1362"
         style="stroke-width:0.243381"
         x="137.11028"
         y="211.32854">$B$</tspan></text>
    <text
       style="font-size:3.175px;font-family:Iosevka;-inkscape-font-specification:'Iosevka, Normal';fill:#000000;fill-opacity:1;stroke:none;stroke-width:0.264583"
       xml:space="preserve"
       id="text1376"
       y="229.32985"
       x="119.94839"><tspan
         sodipodi:role="line"
         id="tspan1374"
         style="stroke-width:0.264583"
         x="119.94839"
         y="229.32985">$B'$</tspan></text>
    <text
       style="font-size:3.175px;font-family:Iosevka;-inkscape-font-specification:'Iosevka, Normal';fill:#000000;fill-opacity:1;stroke:none;stroke-width:0.264583"
       xml:space="preserve"
       id="text1388"
       y="227.44859"
       x="108.0051"><tspan
         sodipodi:role="line"
         id="tspan1386"
         style="stroke-width:0.264583"
         x="108.0051"
         y="227.44859">$B ^*$</tspan></text>
  </g>
</svg>
