<?xml version="1.0" encoding="UTF-8" standalone="no"?>
<!-- Created with Inkscape (http://www.inkscape.org/) -->

<svg
   width="47.56625mm"
   height="40.268078mm"
   viewBox="0 0 47.56625 40.268078"
   version="1.1"
   id="svg8"
   inkscape:version="1.1.2 (0a00cf5339, 2022-02-04)"
   sodipodi:docname="lm-circle.svg"
   xmlns:inkscape="http://www.inkscape.org/namespaces/inkscape"
   xmlns:sodipodi="http://sodipodi.sourceforge.net/DTD/sodipodi-0.dtd"
   xmlns="http://www.w3.org/2000/svg"
   xmlns:svg="http://www.w3.org/2000/svg"
   xmlns:rdf="http://www.w3.org/1999/02/22-rdf-syntax-ns#"
   xmlns:cc="http://creativecommons.org/ns#"
   xmlns:dc="http://purl.org/dc/elements/1.1/">
  <defs
     id="defs2">
    <marker
       id="marker-arrow-0.5308"
       orient="auto-start-reverse"
       refY="0"
       refX="0"
       markerHeight="1.6900001"
       markerWidth="0.91100001">
      <g
         transform="scale(2.1535293)"
         id="g8529">
        <path
           d="M -1.55415,2.0722 C -1.42464,1.29512 0,0.1295 0.38852,0 0,-0.1295 -1.42464,-1.29512 -1.55415,-2.0722"
           style="fill:none;stroke:#000000;stroke-width:0.6;stroke-linecap:round;stroke-linejoin:round;stroke-miterlimit:10;stroke-dasharray:none;stroke-opacity:1"
           inkscape:connector-curvature="0"
           id="path8527" />
      </g>
    </marker>
    <marker
       id="marker-arrow-1.0616"
       orient="auto-start-reverse"
       refY="0"
       refX="0"
       markerHeight="1.6900001"
       markerWidth="0.91100001">
      <g
         transform="scale(1.3434313)"
         id="g8771">
        <path
           d="M -1.55415,2.0722 C -1.42464,1.29512 0,0.1295 0.38852,0 0,-0.1295 -1.42464,-1.29512 -1.55415,-2.0722"
           style="fill:none;stroke:#000000;stroke-width:0.6;stroke-linecap:round;stroke-linejoin:round;stroke-miterlimit:10;stroke-dasharray:none;stroke-opacity:1"
           inkscape:connector-curvature="0"
           id="path8769" />
      </g>
    </marker>
    <marker
       id="marker-arrow-1.0616-6"
       orient="auto-start-reverse"
       refY="0"
       refX="0"
       markerHeight="1.6900001"
       markerWidth="0.91100001">
      <g
         transform="scale(1.3434313)"
         id="g8897">
        <path
           d="M -1.55415,2.0722 C -1.42464,1.29512 0,0.1295 0.38852,0 0,-0.1295 -1.42464,-1.29512 -1.55415,-2.0722"
           style="fill:none;stroke:#000000;stroke-width:0.6;stroke-linecap:round;stroke-linejoin:round;stroke-miterlimit:10;stroke-dasharray:none;stroke-opacity:1"
           inkscape:connector-curvature="0"
           id="path8895" />
      </g>
    </marker>
  </defs>
  <sodipodi:namedview
     id="base"
     pagecolor="#ffffff"
     bordercolor="#666666"
     borderopacity="1.0"
     inkscape:pageopacity="0.0"
     inkscape:pageshadow="2"
     inkscape:zoom="3.9774955"
     inkscape:cx="171.08756"
     inkscape:cy="95.663213"
     inkscape:document-units="mm"
     inkscape:current-layer="layer1"
     showgrid="false"
     showborder="true"
     width="200mm"
     showguides="true"
     inkscape:guide-bbox="true"
     inkscape:window-width="1920"
     inkscape:window-height="1048"
     inkscape:window-x="0"
     inkscape:window-y="32"
     inkscape:window-maximized="1"
     inkscape:pagecheckerboard="0"
     fit-margin-top="0"
     fit-margin-left="0"
     fit-margin-right="0"
     fit-margin-bottom="0">
    <inkscape:grid
       type="xygrid"
       id="grid815"
       units="mm"
       spacingx="10"
       spacingy="10"
       empspacing="4"
       dotted="false"
       originx="-19.864885"
       originy="-19.865876" />
  </sodipodi:namedview>
  <metadata
     id="metadata5">
    <rdf:RDF>
      <cc:Work
         rdf:about="">
        <dc:format>image/svg+xml</dc:format>
        <dc:type
           rdf:resource="http://purl.org/dc/dcmitype/StillImage" />
      </cc:Work>
    </rdf:RDF>
  </metadata>
  <g
     inkscape:label="Layer 1"
     inkscape:groupmode="layer"
     id="layer1"
     transform="translate(-19.864885,-196.86588)">
    <path
       style="fill:none;fill-rule:evenodd;stroke:#000000;stroke-width:0.264583"
       id="path63"
       sodipodi:type="arc"
       sodipodi:cx="43.704166"
       sodipodi:cy="217"
       sodipodi:rx="20"
       sodipodi:ry="20"
       sodipodi:start="0"
       sodipodi:end="5.6910249"
       sodipodi:open="true"
       sodipodi:arc-type="arc"
       d="m 63.704166,217 a 20,20 0 0 1 -17.05,19.78124 20,20 0 0 1 -22.07975,-13.94578 20,20 0 0 1 10.536477,-23.89524 20,20 0 0 1 25.188009,6.89668" />
    <text
       style="font-size:3.175px;font-family:Iosevka;-inkscape-font-specification:'Iosevka, Normal';fill:#000000;fill-opacity:1;stroke:none;stroke-width:0.264583"
       xml:space="preserve"
       id="text397"
       y="206.1189"
       x="61.299866"><tspan
         sodipodi:role="line"
         id="tspan395"
         style="stroke-width:0.264583"
         x="61.299866"
         y="206.1189">$a_1$</tspan></text>
    <path
       style="fill:#000000;stroke:none"
       id="path1138"
       sodipodi:type="arc"
       sodipodi:cx="60.134727"
       sodipodi:cy="205.83748"
       sodipodi:rx="0.69334024"
       sodipodi:ry="0.69334024"
       sodipodi:start="0"
       sodipodi:end="6.2823475"
       sodipodi:arc-type="slice"
       d="m 60.828068,205.83748 a 0.69334024,0.69334024 0 0 1 -0.693195,0.69334 0.69334024,0.69334024 0 0 1 -0.693486,-0.69305 0.69334024,0.69334024 0 0 1 0.692905,-0.69363 0.69334024,0.69334024 0 0 1 0.693775,0.69276 l -0.69334,5.8e-4 z" />
    <path
       style="fill:#000000;stroke:none"
       id="path1138-3"
       sodipodi:type="arc"
       sodipodi:cx="63.705276"
       sodipodi:cy="217.31117"
       sodipodi:rx="0.69334024"
       sodipodi:ry="0.69334024"
       sodipodi:start="0"
       sodipodi:end="6.2823475"
       sodipodi:arc-type="slice"
       d="m 64.398617,217.31117 a 0.69334024,0.69334024 0 0 1 -0.693195,0.69334 0.69334024,0.69334024 0 0 1 -0.693486,-0.69305 0.69334024,0.69334024 0 0 1 0.692905,-0.69363 0.69334024,0.69334024 0 0 1 0.693775,0.69276 l -0.69334,5.8e-4 z" />
    <path
       style="fill:#000000;stroke:none"
       id="path1138-3-5"
       sodipodi:type="arc"
       sodipodi:cx="25.345327"
       sodipodi:cy="224.7478"
       sodipodi:rx="0.69334024"
       sodipodi:ry="0.69334024"
       sodipodi:start="0"
       sodipodi:end="6.2823475"
       sodipodi:arc-type="slice"
       d="m 26.038668,224.7478 a 0.69334024,0.69334024 0 0 1 -0.693195,0.69334 0.69334024,0.69334024 0 0 1 -0.693486,-0.69305 0.69334024,0.69334024 0 0 1 0.692905,-0.69363 0.69334024,0.69334024 0 0 1 0.693775,0.69276 l -0.69334,5.8e-4 z" />
    <path
       style="fill:#000000;stroke:none"
       id="path1138-6"
       sodipodi:type="arc"
       sodipodi:cx="29.948206"
       sodipodi:cy="231.52527"
       sodipodi:rx="0.69334024"
       sodipodi:ry="0.69334024"
       sodipodi:start="0"
       sodipodi:end="6.2823475"
       sodipodi:arc-type="slice"
       d="m 30.641546,231.52527 a 0.69334024,0.69334024 0 0 1 -0.693195,0.69334 0.69334024,0.69334024 0 0 1 -0.693485,-0.69305 0.69334024,0.69334024 0 0 1 0.692904,-0.69363 0.69334024,0.69334024 0 0 1 0.693776,0.69276 l -0.69334,5.8e-4 z" />
    <text
       style="font-size:3.175px;font-family:Iosevka;-inkscape-font-specification:'Iosevka, Normal';fill:#000000;fill-opacity:1;stroke:none;stroke-width:0.264583"
       xml:space="preserve"
       id="text1222"
       y="215.70496"
       x="63.90477"><tspan
         sodipodi:role="line"
         id="tspan1220"
         style="stroke-width:0.264583"
         x="63.90477"
         y="215.70496">$a_n$</tspan></text>
    <text
       style="font-size:3.175px;font-family:Iosevka;-inkscape-font-specification:'Iosevka, Normal';fill:#000000;fill-opacity:1;stroke:none;stroke-width:0.264583"
       xml:space="preserve"
       id="text7540"
       y="223.11049"
       x="25.881018"><tspan
         sodipodi:role="line"
         id="tspan7538"
         style="stroke-width:0.264583"
         x="25.881018"
         y="223.11049">$a_k$</tspan></text>
    <text
       style="font-size:3.175px;font-family:Iosevka;-inkscape-font-specification:'Iosevka, Normal';fill:#000000;fill-opacity:1;stroke:none;stroke-width:0.264583"
       xml:space="preserve"
       id="text7671"
       y="233.41153"
       x="32.914124"><tspan
         sodipodi:role="line"
         id="tspan7669"
         style="stroke-width:0.264583"
         x="32.914124"
         y="233.41153">$a_{k-1}$</tspan></text>
    <path
       style="fill:none;fill-opacity:1;stroke:#000000;stroke-width:0.292367;stroke-linecap:butt;stroke-linejoin:miter;stroke-dasharray:none;stroke-opacity:1;marker-start:none;marker-end:none"
       d="m 25.098429,224.80933 c 20.12931,0 38.606847,-7.49816 38.606847,-7.49816"
       id="path7769"
       sodipodi:nodetypes="cc" />
    <path
       style="fill:none;fill-opacity:1;stroke:#000000;stroke-width:0.287026;stroke-linecap:butt;stroke-linejoin:miter;stroke-dasharray:none;stroke-opacity:1;marker-start:none;marker-end:none"
       d="m 29.945595,231.52721 c 21.517068,-4.94469 30.189132,-25.68973 30.189132,-25.68973"
       id="path8728" />
    <path
       style="fill:none;stroke:black;stroke-width:0.28088167;stroke-linecap:butt;stroke-linejoin:miter;stroke-opacity:1;fill-opacity:1;marker-end:none;marker-start:none;stroke-dasharray:0.28088167,0.70220417"
       d="m 60.298901,205.8369 3.406376,11.47427"
       id="path1102" />
  </g>
</svg>
