<?xml version="1.0" encoding="UTF-8" standalone="no"?>
<!-- Created with Inkscape (http://www.inkscape.org/) -->

<svg
   width="65.736832mm"
   height="31.293491mm"
   viewBox="0 0 65.736831 31.293491"
   version="1.1"
   id="svg8"
   inkscape:version="1.1.2 (0a00cf5339, 2022-02-04, custom)"
   sodipodi:docname="thm-khvatal-ehrdesh-2.svg"
   xmlns:inkscape="http://www.inkscape.org/namespaces/inkscape"
   xmlns:sodipodi="http://sodipodi.sourceforge.net/DTD/sodipodi-0.dtd"
   xmlns="http://www.w3.org/2000/svg"
   xmlns:svg="http://www.w3.org/2000/svg"
   xmlns:rdf="http://www.w3.org/1999/02/22-rdf-syntax-ns#"
   xmlns:cc="http://creativecommons.org/ns#"
   xmlns:dc="http://purl.org/dc/elements/1.1/">
  <defs
     id="defs2" />
  <sodipodi:namedview
     id="base"
     pagecolor="#ffffff"
     bordercolor="#666666"
     borderopacity="1.0"
     inkscape:pageopacity="0.0"
     inkscape:pageshadow="2"
     inkscape:zoom="1"
     inkscape:cx="263.5"
     inkscape:cy="-107.5"
     inkscape:document-units="mm"
     inkscape:current-layer="layer1"
     showgrid="false"
     showborder="true"
     width="200mm"
     showguides="true"
     inkscape:guide-bbox="true"
     inkscape:window-width="1920"
     inkscape:window-height="1018"
     inkscape:window-x="0"
     inkscape:window-y="62"
     inkscape:window-maximized="1"
     inkscape:pagecheckerboard="0"
     fit-margin-left="5"
     fit-margin-right="5"
     fit-margin-top="0"
     fit-margin-bottom="0">
    <inkscape:grid
       type="xygrid"
       id="grid815"
       units="mm"
       spacingx="10"
       spacingy="10"
       empspacing="4"
       dotted="false"
       originx="-69.838086"
       originy="-1.1163132" />
  </sodipodi:namedview>
  <metadata
     id="metadata5">
    <rdf:RDF>
      <cc:Work
         rdf:about="">
        <dc:format>image/svg+xml</dc:format>
        <dc:type
           rdf:resource="http://purl.org/dc/dcmitype/StillImage" />
      </cc:Work>
    </rdf:RDF>
  </metadata>
  <g
     inkscape:label="Layer 1"
     inkscape:groupmode="layer"
     id="layer1"
     transform="translate(-69.838085,-178.11632)">
    <path
       style="fill:none;stroke:#ff0000;stroke-width:0.264583px;stroke-linecap:butt;stroke-linejoin:miter;stroke-opacity:1"
       d="m 104.61679,193.0977 c -5.75393,4.52646 -7.713942,11.51166 -7.713942,11.51166 v 0 0 0"
       id="path527" />
    <path
       style="fill:none;stroke:#ff0000;stroke-width:0.264583px;stroke-linecap:butt;stroke-linejoin:miter;stroke-opacity:1"
       d="m 122.10209,201.4097 -20.8441,0.12441"
       id="path459" />
    <path
       style="fill:none;stroke:#ff0000;stroke-width:0.264583px;stroke-linecap:butt;stroke-linejoin:miter;stroke-opacity:1"
       d="m 104.61679,193.0977 c -0.26734,5.04928 -3.3588,8.43641 -3.3588,8.43641"
       id="path233" />
    <path
       style="fill:none;fill-opacity:1;stroke:#ff0000;stroke-width:0.280882;stroke-linecap:butt;stroke-linejoin:miter;stroke-dasharray:none;stroke-opacity:1;marker-start:none;marker-end:none"
       d="m 121.08279,186.76092 c 3.02416,4.61665 -2.1466,4.62774 -1.09034,7.87886 1.05626,3.25112 4.08516,3.42139 3.0974,5.09565 -0.98776,1.67427 -0.98776,1.67427 -0.98776,1.67427"
       id="path6323" />
    <path
       style="fill:#ff0000;stroke:#ff0000;stroke-width:0.264583px;stroke-linecap:butt;stroke-linejoin:miter;stroke-opacity:1"
       d="m 104.19771,188.88484 16.88508,-2.12392"
       id="path6152" />
    <path
       style="fill:none;fill-opacity:1;stroke:#000000;stroke-width:0.280882;stroke-dasharray:none;stroke-opacity:1;marker-start:none;marker-end:none"
       id="path63"
       sodipodi:type="arc"
       sodipodi:cx="89.799309"
       sodipodi:cy="193.33615"
       sodipodi:rx="14.82"
       sodipodi:ry="12.92699"
       sodipodi:start="0.68693928"
       sodipodi:end="6.2647385"
       sodipodi:open="true"
       sodipodi:arc-type="arc"
       d="m 101.25799,201.53411 a 14.82,12.92699 0 0 1 -18.701133,3.08026 14.82,12.92699 0 0 1 -6.757377,-15.51901 14.82,12.92699 0 0 1 16.330191,-8.52538 14.82,12.92699 0 0 1 12.487119,12.52772" />
    <path
       style="fill:none;fill-opacity:1;stroke:#000000;stroke-width:0.280882;stroke-linecap:butt;stroke-linejoin:miter;stroke-dasharray:1.05331, 1.05331;stroke-opacity:1;marker-start:none;marker-end:none"
       d="m 115.02345,199.46828 c -2.72218,-6.34086 -2.09967,-21.22131 5.93748,-21.22131 8.03715,0 8.35197,19.47701 4.23838,28.27448 -4.22747,9.04101 -10.17586,-7.05317 -10.17586,-7.05317 z"
       id="path3789"
       sodipodi:nodetypes="cssc" />
    <path
       style="fill:#000000;fill-opacity:1;stroke:#000000;stroke-width:0;stroke-miterlimit:4;stroke-dasharray:none;stroke-opacity:1;marker-start:none;marker-end:none"
       id="path341-5"
       sodipodi:type="arc"
       sodipodi:cx="121.00209"
       sodipodi:cy="186.72528"
       sodipodi:rx="0.53459758"
       sodipodi:ry="0.53437382"
       sodipodi:start="0"
       sodipodi:end="6.2820508"
       sodipodi:open="true"
       sodipodi:arc-type="arc"
       d="m 121.53669,186.72528 a 0.53459758,0.53437382 0 0 1 -0.53445,0.53437 0.53459758,0.53437382 0 0 1 -0.53475,-0.53407 0.53459758,0.53437382 0 0 1 0.53415,-0.53467 0.53459758,0.53437382 0 0 1 0.53505,0.53376" />
    <path
       style="fill:#000000;fill-opacity:1;stroke:#000000;stroke-width:0;stroke-miterlimit:4;stroke-dasharray:none;stroke-opacity:1;marker-start:none;marker-end:none"
       id="path341-5-3"
       sodipodi:type="arc"
       sodipodi:cx="103.75394"
       sodipodi:cy="188.90848"
       sodipodi:rx="0.53459758"
       sodipodi:ry="0.53437382"
       sodipodi:start="0"
       sodipodi:end="6.2820508"
       sodipodi:open="true"
       sodipodi:arc-type="arc"
       d="m 104.28853,188.90848 a 0.53459758,0.53437382 0 0 1 -0.53444,0.53437 0.53459758,0.53437382 0 0 1 -0.53475,-0.53407 0.53459758,0.53437382 0 0 1 0.53414,-0.53468 0.53459758,0.53437382 0 0 1 0.53505,0.53377" />
    <path
       style="fill:#000000;fill-opacity:1;stroke:#000000;stroke-width:0;stroke-miterlimit:4;stroke-dasharray:none;stroke-opacity:1;marker-start:none;marker-end:none"
       id="path341-5-5"
       sodipodi:type="arc"
       sodipodi:cx="104.61364"
       sodipodi:cy="193.32202"
       sodipodi:rx="0.53459758"
       sodipodi:ry="0.53437382"
       sodipodi:start="0"
       sodipodi:end="6.2820508"
       sodipodi:open="true"
       sodipodi:arc-type="arc"
       d="m 105.14824,193.32202 a 0.53459758,0.53437382 0 0 1 -0.53445,0.53438 0.53459758,0.53437382 0 0 1 -0.53475,-0.53408 0.53459758,0.53437382 0 0 1 0.53414,-0.53467 0.53459758,0.53437382 0 0 1 0.53506,0.53377" />
    <path
       style="fill:#000000;fill-opacity:1;stroke:#000000;stroke-width:0;stroke-miterlimit:4;stroke-dasharray:none;stroke-opacity:1;marker-start:none;marker-end:none"
       id="path341-5-6"
       sodipodi:type="arc"
       sodipodi:cx="121.7599"
       sodipodi:cy="201.35777"
       sodipodi:rx="0.53459758"
       sodipodi:ry="0.53437382"
       sodipodi:start="0"
       sodipodi:end="6.2820508"
       sodipodi:open="true"
       sodipodi:arc-type="arc"
       d="m 122.2945,201.35777 a 0.53459758,0.53437382 0 0 1 -0.53445,0.53438 0.53459758,0.53437382 0 0 1 -0.53474,-0.53407 0.53459758,0.53437382 0 0 1 0.53414,-0.53468 0.53459758,0.53437382 0 0 1 0.53505,0.53377" />
    <text
       style="font-size:3.175px;font-family:Iosevka;-inkscape-font-specification:'Iosevka, Normal';fill:#000000;fill-opacity:1;stroke:none;stroke-width:0.264583"
       xml:space="preserve"
       id="text6584"
       y="181.1165"
       x="125.99022"><tspan
         sodipodi:role="line"
         id="tspan6582"
         style="stroke-width:0.264583"
         x="125.99022"
         y="181.1165">$W$</tspan></text>
    <text
       style="font-size:3.175px;font-family:Iosevka;-inkscape-font-specification:'Iosevka, Normal';fill:#000000;fill-opacity:1;stroke:none;stroke-width:0.264583"
       xml:space="preserve"
       id="text6596"
       y="187.57417"
       x="79.271805"><tspan
         sodipodi:role="line"
         id="tspan6594"
         style="stroke-width:0.264583"
         x="79.271805"
         y="187.57417">$C$</tspan></text>
    <text
       style="font-size:3.175px;font-family:Iosevka;-inkscape-font-specification:'Iosevka, Normal';fill:#000000;fill-opacity:1;stroke:none;stroke-width:0.264583"
       xml:space="preserve"
       id="text6608"
       y="187.6443"
       x="103.69223"><tspan
         sodipodi:role="line"
         id="tspan6606"
         style="stroke-width:0.264583"
         x="103.69223"
         y="187.6443">$v_i$</tspan></text>
    <text
       style="font-size:3.175px;font-family:Iosevka;-inkscape-font-specification:'Iosevka, Normal';fill:#000000;fill-opacity:1;stroke:none;stroke-width:0.264583"
       xml:space="preserve"
       id="text6620"
       y="192.43837"
       x="105.15296"><tspan
         sodipodi:role="line"
         id="tspan6618"
         style="stroke-width:0.264583"
         x="105.15296"
         y="192.43837">$v_{i+1}$</tspan></text>
    <text
       style="font-size:3.175px;font-family:Iosevka;-inkscape-font-specification:'Iosevka, Normal';fill:#000000;fill-opacity:1;stroke:none;stroke-width:0.264583"
       xml:space="preserve"
       id="text6632"
       y="194.82248"
       x="120.82422"><tspan
         sodipodi:role="line"
         id="tspan6630"
         style="stroke-width:0.264583"
         x="120.82422"
         y="194.82248">$P$</tspan></text>
    <text
       style="font-size:3.175px;font-family:Iosevka;-inkscape-font-specification:'Iosevka, Normal';fill:#000000;fill-opacity:1;stroke:none;stroke-width:0.264583"
       xml:space="preserve"
       id="text6644"
       y="185.83177"
       x="121.4364"><tspan
         sodipodi:role="line"
         id="tspan6642"
         style="stroke-width:0.264583"
         x="121.4364"
         y="185.83177">$w$</tspan></text>
    <text
       style="font-size:3.175px;font-family:Iosevka;-inkscape-font-specification:'Iosevka, Normal';fill:#000000;fill-opacity:1;stroke:none;stroke-width:0.264583"
       xml:space="preserve"
       id="text6656"
       y="203.44585"
       x="122.61388"><tspan
         sodipodi:role="line"
         id="tspan6654"
         style="stroke-width:0.264583"
         x="122.61388"
         y="203.44585">$w'$</tspan></text>
    <path
       style="fill:#000000;fill-opacity:1;stroke:#000000;stroke-width:0;stroke-miterlimit:4;stroke-dasharray:none;stroke-opacity:1;marker-start:none;marker-end:none"
       id="path341-5-36"
       sodipodi:type="arc"
       sodipodi:cx="101.30209"
       sodipodi:cy="201.56323"
       sodipodi:rx="0.53459758"
       sodipodi:ry="0.53437382"
       sodipodi:start="0"
       sodipodi:end="6.2820508"
       sodipodi:open="true"
       sodipodi:arc-type="arc"
       d="m 101.83669,201.56323 a 0.53459758,0.53437382 0 0 1 -0.53444,0.53438 0.53459758,0.53437382 0 0 1 -0.53475,-0.53407 0.53459758,0.53437382 0 0 1 0.53414,-0.53468 0.53459758,0.53437382 0 0 1 0.53505,0.53377" />
    <path
       style="fill:#000000;fill-opacity:1;stroke:#000000;stroke-width:0;stroke-miterlimit:4;stroke-dasharray:none;stroke-opacity:1;marker-start:none;marker-end:none"
       id="path341-5-7"
       sodipodi:type="arc"
       sodipodi:cx="97.033478"
       sodipodi:cy="204.65778"
       sodipodi:rx="0.53459758"
       sodipodi:ry="0.53437382"
       sodipodi:start="0"
       sodipodi:end="6.2820508"
       sodipodi:open="true"
       sodipodi:arc-type="arc"
       d="m 97.568075,204.65778 a 0.53459758,0.53437382 0 0 1 -0.534446,0.53437 0.53459758,0.53437382 0 0 1 -0.534749,-0.53407 0.53459758,0.53437382 0 0 1 0.534143,-0.53468 0.53459758,0.53437382 0 0 1 0.535052,0.53377" />
    <text
       style="font-size:3.175px;font-family:Iosevka;-inkscape-font-specification:'Iosevka, Normal';fill:#000000;fill-opacity:1;stroke:none;stroke-width:0.264583"
       xml:space="preserve"
       id="text314"
       y="203.88213"
       x="101.63574"><tspan
         sodipodi:role="line"
         id="tspan312"
         style="stroke-width:0.264583"
         x="101.63574"
         y="203.88213">$v_j$</tspan></text>
    <text
       style="font-size:3.175px;font-family:Iosevka;-inkscape-font-specification:'Iosevka, Normal';fill:#000000;fill-opacity:1;stroke:none;stroke-width:0.264583"
       xml:space="preserve"
       id="text644"
       y="206.58578"
       x="97.229805"><tspan
         sodipodi:role="line"
         id="tspan642"
         style="stroke-width:0.264583"
         x="97.229805"
         y="206.58578">$v_{j+1}$</tspan></text>
  </g>
</svg>
