<?xml version="1.0" encoding="UTF-8" standalone="no"?>
<!-- Created with Inkscape (http://www.inkscape.org/) -->

<svg
   xmlns:dc="http://purl.org/dc/elements/1.1/"
   xmlns:cc="http://creativecommons.org/ns#"
   xmlns:rdf="http://www.w3.org/1999/02/22-rdf-syntax-ns#"
   xmlns:svg="http://www.w3.org/2000/svg"
   xmlns="http://www.w3.org/2000/svg"
   xmlns:sodipodi="http://sodipodi.sourceforge.net/DTD/sodipodi-0.dtd"
   xmlns:inkscape="http://www.inkscape.org/namespaces/inkscape"
   width="240mm"
   height="120mm"
   viewBox="0 0 240 120"
   version="1.1"
   id="svg8"
   inkscape:version="0.92.1 r15371"
   sodipodi:docname="img_int.svg">
  <defs
     id="defs2">
    <inkscape:path-effect
       effect="bspline"
       id="path-effect4509"
       is_visible="true"
       weight="33.333333"
       steps="2"
       helper_size="0"
       apply_no_weight="true"
       apply_with_weight="true"
       only_selected="false" />
    <inkscape:path-effect
       effect="bspline"
       id="path-effect4505"
       is_visible="true"
       weight="33.333333"
       steps="2"
       helper_size="0"
       apply_no_weight="true"
       apply_with_weight="true"
       only_selected="false" />
    <inkscape:path-effect
       effect="bspline"
       id="path-effect4501"
       is_visible="true"
       weight="33.333333"
       steps="2"
       helper_size="0"
       apply_no_weight="true"
       apply_with_weight="true"
       only_selected="false" />
    <inkscape:path-effect
       effect="bspline"
       id="path-effect4497"
       is_visible="true"
       weight="33.333333"
       steps="2"
       helper_size="0"
       apply_no_weight="true"
       apply_with_weight="true"
       only_selected="false" />
    <inkscape:path-effect
       effect="bspline"
       id="path-effect4493"
       is_visible="true"
       weight="33.333333"
       steps="2"
       helper_size="0"
       apply_no_weight="true"
       apply_with_weight="true"
       only_selected="false" />
    <inkscape:path-effect
       effect="bspline"
       id="path-effect4489"
       is_visible="true"
       weight="33.333333"
       steps="2"
       helper_size="0"
       apply_no_weight="true"
       apply_with_weight="true"
       only_selected="false" />
    <inkscape:path-effect
       effect="bspline"
       id="path-effect4485"
       is_visible="true"
       weight="33.333333"
       steps="2"
       helper_size="0"
       apply_no_weight="true"
       apply_with_weight="true"
       only_selected="false" />
  </defs>
  <sodipodi:namedview
     id="base"
     pagecolor="#ffffff"
     bordercolor="#666666"
     borderopacity="1.0"
     inkscape:pageopacity="0.0"
     inkscape:pageshadow="2"
     inkscape:zoom="0.35156426"
     inkscape:cx="481.01568"
     inkscape:cy="384.34658"
     inkscape:document-units="mm"
     inkscape:current-layer="layer1"
     showgrid="true"
     showborder="true"
     width="200mm"
     showguides="true"
     inkscape:guide-bbox="true"
     inkscape:window-width="512"
     inkscape:window-height="581"
     inkscape:window-x="512"
     inkscape:window-y="19"
     inkscape:window-maximized="0">
    <inkscape:grid
       type="xygrid"
       id="grid815"
       units="mm"
       spacingx="10"
       spacingy="10"
       empspacing="4"
       dotted="false" />
  </sodipodi:namedview>
  <metadata
     id="metadata5">
    <rdf:RDF>
      <cc:Work
         rdf:about="">
        <dc:format>image/svg+xml</dc:format>
        <dc:type
           rdf:resource="http://purl.org/dc/dcmitype/StillImage" />
        <dc:title />
      </cc:Work>
    </rdf:RDF>
  </metadata>
  <g
     inkscape:label="Layer 1"
     inkscape:groupmode="layer"
     id="layer1"
     transform="translate(0,-177)">
    <path
       style="fill:none;stroke:#000000;stroke-width:0.26458332px;stroke-linecap:butt;stroke-linejoin:miter;stroke-opacity:1"
       d="M 39.999999,267 C 39.999999,267 210,267 210,267"
       id="path4487"
       inkscape:connector-curvature="0"
       inkscape:path-effect="#path-effect4489"
       inkscape:original-d="M 39.999999,267 H 210" />
    <path
       style="fill:none;stroke:#000000;stroke-width:0.26458332px;stroke-linecap:butt;stroke-linejoin:miter;stroke-opacity:1"
       d="m 50,277 c 0,0 0,-80 0,-80"
       id="path4495"
       inkscape:connector-curvature="0"
       inkscape:path-effect="#path-effect4497"
       inkscape:original-d="M 50,277 V 197" />
    <path
       style="fill:none;stroke:#000000;stroke-width:0.26458332px;stroke-linecap:butt;stroke-linejoin:miter;stroke-opacity:1"
       d="m 59.999998,207 c 2.326547,2.90648 4.653347,5.81329 7.072041,7.6434 2.418693,1.83011 4.927325,2.58269 6.808109,3.46059 1.880784,0.87789 3.135097,1.88135 5.14218,3.26118 2.007084,1.37983 4.766577,3.13587 7.27548,4.51568 2.508902,1.3798 4.766667,2.38325 6.271535,3.13577 1.504867,0.75252 2.257459,1.25424 3.136108,1.63057 0.878648,0.37632 1.882102,0.62718 2.76051,0.75238 0.878409,0.1252 1.630999,0.1252 2.507909,0.50165 0.87691,0.37646 1.88036,1.12904 3.01005,1.63082 1.12969,0.50177 2.384,0.75263 3.76352,1.12899 1.37952,0.37635 2.8847,0.87808 4.26434,1.37981 1.37964,0.50173 2.63395,1.00346 3.76268,1.50518 1.12873,0.50172 2.13218,1.00344 3.13643,1.25404 1.00424,0.2506 2.00769,0.2506 3.01076,0.37627 1.00306,0.12566 2.00651,0.37652 2.88492,0.50172 0.87841,0.1252 1.631,0.1252 2.50823,0.37633 0.87722,0.25113 1.88067,0.75285 2.63326,1.12914 0.75259,0.3763 1.25432,0.62716 2.0077,0.75232 0.75338,0.12517 1.75683,0.12517 2.75949,0.3763 1.00267,0.25113 2.00611,0.75285 3.01036,1.00345 1.00424,0.2506 2.00769,0.2506 3.01076,0.37627 1.00306,0.12566 2.00651,0.37652 2.88492,0.50172 0.87841,0.1252 1.631,0.1252 2.38257,0.37627 0.75157,0.25106 1.50416,0.75279 2.88492,1.00345 1.38077,0.25066 3.38767,0.25066 4.76688,0.37635 1.37922,0.1257 2.13181,0.37656 3.00997,0.6274 0.87816,0.25083 1.88161,0.50169 3.01025,0.87803 1.12863,0.37633 2.38294,0.87805 3.38704,1.12864 1.00409,0.25059 1.75668,0.25059 2.75982,0.37623 1.00315,0.12563 2.25746,0.37649 3.26069,0.62742 1.00323,0.25092 1.75582,0.50179 2.63398,0.75262 0.87816,0.25083 1.88161,0.50169 2.75949,0.75259 0.87788,0.25089 1.63047,0.50176 2.38359,0.62692 0.75312,0.12517 1.50571,0.12517 3.13632,0.12517 1.63061,0 4.13923,0 5.89527,0 1.75605,0 2.7595,0 3.76256,0.12567 1.00306,0.12566 2.00651,0.37652 3.26122,0.50172 1.2547,0.1252 2.75988,0.1252 5.26851,0.1252 2.50863,0 6.02071,0 8.65477,0 2.63406,0 4.3901,0 5.39355,0 1.00346,0 1.25432,0 1.50518,0 0.25086,0 0.50173,0 -0.12079,0.73248 C 212.99455,254.06222 211.49861,255.5298 210,257"
       id="path4499"
       inkscape:connector-curvature="0"
       inkscape:path-effect="#path-effect4501"
       inkscape:original-d="m 59.999998,207 c 2.32945,2.90416 4.656252,5.81096 6.980407,8.72041 2.511274,0.74994 5.019905,1.50253 7.525888,2.25776 1.256961,1.00081 2.511276,2.00426 3.762943,3.01036 2.762139,1.75339 5.521632,3.50943 8.278479,5.26812 2.260413,1.00081 4.518179,2.00426 6.773299,3.01036 0.755235,0.49907 1.507824,1.0008 2.257767,1.50517 1.006096,0.24822 2.00955,0.49908 3.010355,0.75259 0.755234,-0.003 1.507824,-0.003 2.257764,0 1.0061,0.74994 2.00955,1.50253 3.01036,2.25777 1.25696,0.24821 2.51127,0.49908 3.76294,0.75259 1.50782,0.49908 3.013,1.0008 4.51553,1.50517 1.25696,0.49909 2.51128,1.00081 3.76295,1.50518 1.0061,0.49908 2.00955,1.00081 3.01035,1.50518 1.0061,-0.003 2.00955,-0.003 3.01036,0 1.0061,0.24822 2.00955,0.49908 3.01035,0.75259 0.75524,-0.003 1.50783,-0.003 2.25777,0 1.0061,0.49908 2.00955,1.0008 3.01036,1.50518 0.50437,0.24821 1.00609,0.49908 1.50517,0.75258 1.0061,-0.003 2.00955,-0.003 3.01036,0 1.0061,0.49909 2.00955,1.00081 3.01035,1.50518 1.0061,-0.003 2.00955,-0.003 3.01036,0 1.0061,0.24822 2.00955,0.49908 3.01035,0.75259 0.75524,-0.003 1.50783,-0.003 2.25777,0 0.75523,0.49908 1.50782,1.00081 2.25777,1.50518 2.00955,-0.003 4.01645,-0.003 6.02071,0 0.75523,0.24821 1.50782,0.49908 2.25777,0.75259 1.00609,0.24822 2.00954,0.49908 3.01035,0.75259 1.25696,0.49908 2.51127,1.0008 3.76294,1.50517 0.75524,-0.003 1.50783,-0.003 2.25777,0 1.25696,0.24822 2.51127,0.49908 3.76294,0.75259 0.75524,0.24822 1.50783,0.49908 2.25777,0.75259 1.0061,0.24822 2.00955,0.49908 3.01036,0.75259 0.75523,0.24822 1.50782,0.49908 2.25776,0.75259 0.75524,-0.003 1.50783,-0.003 2.25777,0 2.51128,-0.003 5.0199,-0.003 7.52589,0 1.0061,-0.003 2.00955,-0.003 3.01035,0 1.0061,0.24822 2.00955,0.49908 3.01036,0.75259 1.50782,-0.003 3.013,-0.003 4.51553,0 3.51473,-0.003 7.02681,-0.003 10.53624,0 1.75869,-0.003 3.51473,-0.003 5.26813,0 0.25351,-0.003 0.50437,-0.003 0.75258,0 0.25351,-0.003 0.50438,-0.003 0.7526,0 -1.4933,1.46493 -2.98924,2.93251 -4.48782,4.40274" />
    <path
       style="fill:none;stroke:#000000;stroke-width:0.26458332px;stroke-linecap:butt;stroke-linejoin:miter;stroke-opacity:1"
       d="m 140,267 c 0.24543,-1.04107 0.49014,-2.07904 0.61212,-4.6047 0.12199,-2.52566 0.12199,-6.53947 0.12199,-9.29897 0,-2.75949 0,-4.26466 -0.25033,-5.14109 -0.25034,-0.87643 -0.75207,-1.1273 -0.87449,-1.18217 -0.12242,-0.0549 0.1346,0.0863 0.39071,0.22693"
       id="path4503"
       inkscape:connector-curvature="0"
       inkscape:path-effect="#path-effect4505"
       inkscape:original-d="m 140,267 c 0.24735,-1.04062 0.49205,-2.07859 0.73411,-3.11391 0.003,-4.01645 0.003,-8.03026 0,-12.04142 0.003,-1.50783 0.003,-3.013 0,-4.51553 -0.49908,-0.25351 -1.00081,-0.50437 -1.50518,-0.75259 0.25967,0.1385 0.51669,0.27965 0.77107,0.42345" />
    <path
       style="fill:none;stroke:#000000;stroke-width:0.26458332px;stroke-linecap:butt;stroke-linejoin:miter;stroke-opacity:1"
       d="m 200,267 c 1.0687,-1.2917 2.13503,-2.58054 2.667,-3.72657 0.53198,-1.14603 0.53198,-2.14948 0.53198,-2.90207 0,-0.75259 0,-1.25431 0,-2.0069 0,-0.75259 0,-1.75604 0,-2.3832 0,-0.62716 0,-0.87802 0,-0.87802 0,0 0,0.25086 0,0.12543 0,-0.12543 0,-0.62715 -0.12543,-1.00212 -0.12543,-0.37497 -0.3763,-0.62584 -0.50173,-1.00346 -0.12543,-0.37761 -0.12543,-0.87934 -0.53343,-1.93685 C 201.6304,250.22873 200.81493,248.61384 200,247"
       id="path4507"
       inkscape:connector-curvature="0"
       inkscape:path-effect="#path-effect4509"
       inkscape:original-d="m 200,267 c 1.06897,-1.29148 2.1353,-2.58031 3.19898,-3.8665 0.003,-1.0061 0.003,-2.00955 0,-3.01035 0.003,-0.50438 0.003,-1.0061 0,-1.50518 0.003,-1.0061 0.003,-2.00955 0,-3.01036 0.003,-0.25351 0.003,-0.50437 0,-0.75259 0.003,0.24822 0.003,0.49908 0,0.75259 0.003,-0.50437 0.003,-1.00609 0,-1.50518 -0.24821,-0.2535 -0.49908,-0.50437 -0.75259,-0.75258 0.003,-0.50437 0.003,-1.0061 0,-1.50518 C 201.63357,250.22713 200.81811,248.61224 200,247" />
  </g>
</svg>
