<?xml version="1.0" encoding="UTF-8" standalone="no"?>
<!-- Created with Inkscape (http://www.inkscape.org/) -->

<svg
   xmlns:dc="http://purl.org/dc/elements/1.1/"
   xmlns:cc="http://creativecommons.org/ns#"
   xmlns:rdf="http://www.w3.org/1999/02/22-rdf-syntax-ns#"
   xmlns:svg="http://www.w3.org/2000/svg"
   xmlns="http://www.w3.org/2000/svg"
   xmlns:sodipodi="http://sodipodi.sourceforge.net/DTD/sodipodi-0.dtd"
   xmlns:inkscape="http://www.inkscape.org/namespaces/inkscape"
   width="240mm"
   height="120mm"
   viewBox="0 0 240 120"
   version="1.1"
   id="svg8"
   inkscape:version="0.92.1 r15371"
   sodipodi:docname="sector.svg">
  <defs
     id="defs2">
    <inkscape:path-effect
       effect="bspline"
       id="path-effect4509"
       is_visible="true"
       weight="33.333333"
       steps="2"
       helper_size="0"
       apply_no_weight="true"
       apply_with_weight="true"
       only_selected="false" />
    <inkscape:path-effect
       effect="bspline"
       id="path-effect4505"
       is_visible="true"
       weight="33.333333"
       steps="2"
       helper_size="0"
       apply_no_weight="true"
       apply_with_weight="true"
       only_selected="false" />
    <inkscape:path-effect
       effect="bspline"
       id="path-effect4501"
       is_visible="true"
       weight="33.333333"
       steps="2"
       helper_size="0"
       apply_no_weight="true"
       apply_with_weight="true"
       only_selected="false" />
    <inkscape:path-effect
       effect="bspline"
       id="path-effect4497"
       is_visible="true"
       weight="33.333333"
       steps="2"
       helper_size="0"
       apply_no_weight="true"
       apply_with_weight="true"
       only_selected="false" />
    <inkscape:path-effect
       effect="bspline"
       id="path-effect4493"
       is_visible="true"
       weight="33.333333"
       steps="2"
       helper_size="0"
       apply_no_weight="true"
       apply_with_weight="true"
       only_selected="false" />
    <inkscape:path-effect
       effect="bspline"
       id="path-effect4485"
       is_visible="true"
       weight="33.333333"
       steps="2"
       helper_size="0"
       apply_no_weight="true"
       apply_with_weight="true"
       only_selected="false" />
  </defs>
  <sodipodi:namedview
     id="base"
     pagecolor="#ffffff"
     bordercolor="#666666"
     borderopacity="1.0"
     inkscape:pageopacity="0.0"
     inkscape:pageshadow="2"
     inkscape:zoom="0.99437388"
     inkscape:cx="387.35621"
     inkscape:cy="222.94687"
     inkscape:document-units="mm"
     inkscape:current-layer="layer1"
     showgrid="true"
     showborder="true"
     width="200mm"
     showguides="true"
     inkscape:guide-bbox="true"
     inkscape:window-width="1024"
     inkscape:window-height="600"
     inkscape:window-x="0"
     inkscape:window-y="0"
     inkscape:window-maximized="0">
    <inkscape:grid
       type="xygrid"
       id="grid815"
       units="mm"
       spacingx="10"
       spacingy="10"
       empspacing="4"
       dotted="false" />
  </sodipodi:namedview>
  <metadata
     id="metadata5">
    <rdf:RDF>
      <cc:Work
         rdf:about="">
        <dc:format>image/svg+xml</dc:format>
        <dc:type
           rdf:resource="http://purl.org/dc/dcmitype/StillImage" />
        <dc:title></dc:title>
      </cc:Work>
    </rdf:RDF>
  </metadata>
  <g
     inkscape:label="Layer 1"
     inkscape:groupmode="layer"
     id="layer1"
     transform="translate(0,-177)">
    <path
       style="fill:none;stroke:#000000;stroke-width:0.26458332px;stroke-linecap:butt;stroke-linejoin:miter;stroke-opacity:1"
       d="m 100,277 c 0,0 0,-90 0,-90"
       id="path4483"
       inkscape:connector-curvature="0"
       inkscape:path-effect="#path-effect4485"
       inkscape:original-d="M 100,277 V 187" />
    <path
       style="fill:none;stroke:#000000;stroke-width:0.26458332px;stroke-linecap:butt;stroke-linejoin:miter;stroke-opacity:1"
       d="m 100,257 c 0,0 100,0 100,0"
       id="path4491"
       inkscape:connector-curvature="0"
       inkscape:path-effect="#path-effect4493"
       inkscape:original-d="M 100,257 H 200" />
    <path
       style="fill:none;stroke:#000000;stroke-width:0.26458332px;stroke-linecap:butt;stroke-linejoin:miter;stroke-opacity:1"
       d="m 50,207 c 0,0 50,50 50,50"
       id="path4495"
       inkscape:connector-curvature="0"
       inkscape:path-effect="#path-effect4497"
       inkscape:original-d="m 50,207 50,50" />
    <path
       style="fill:none;stroke:#000000;stroke-width:0.26458332px;stroke-linecap:butt;stroke-linejoin:miter;stroke-opacity:1"
       d="m 100,257 c 0,0 30,-50 30,-50"
       id="path4499"
       inkscape:connector-curvature="0"
       inkscape:path-effect="#path-effect4501"
       inkscape:original-d="m 100,257 30,-50" />
    <path
       style="fill:none;stroke:#000000;stroke-width:0.26458332px;stroke-linecap:butt;stroke-linejoin:miter;stroke-opacity:1"
       d="m 130,207 c -0.4938,-0.33275 -0.9882,-0.66591 -1.32386,-0.87677 -0.33565,-0.21086 -0.51306,-0.29956 -0.60228,-0.47853 -0.0892,-0.17898 -0.0892,-0.44506 -0.22196,-0.66527 -0.13274,-0.22021 -0.39881,-0.39759 -0.57677,-0.62033 -0.17796,-0.22274 -0.26664,-0.4888 -0.3981,-0.62105 -0.13145,-0.13225 -0.30884,-0.13225 -0.66514,-0.53167 -0.3563,-0.39943 -0.88847,-1.19767 -1.28738,-1.72953 -0.39892,-0.53185 -0.665,-0.79793 -0.84104,-0.93097 -0.17604,-0.13304 -0.26478,-0.13304 -0.35478,-0.17737 -0.09,-0.0443 -0.17873,-0.13305 -0.35627,-0.355 -0.17755,-0.22195 -0.44362,-0.57672 -0.75337,-0.84232 -0.30974,-0.26561 -0.66451,-0.44299 -0.88677,-0.5763 -0.22227,-0.13331 -0.31096,-0.222 -0.44346,-0.31042 -0.1325,-0.0884 -0.30991,-0.17713 -0.44375,-0.31098 -0.13384,-0.13384 -0.22252,-0.3112 -0.44305,-0.44348 -0.22053,-0.13228 -0.57531,-0.22098 -0.841,-0.26556 -0.26569,-0.0446 -0.44308,-0.0446 -0.57771,-0.13381 -0.13463,-0.0892 -0.22331,-0.26659 -0.48811,-0.3989 -0.26479,-0.13231 -0.70827,-0.22101 -0.97537,-0.30991 -0.2671,-0.0889 -0.35579,-0.17759 -0.62055,-0.22193 -0.26476,-0.0444 -0.70822,-0.0444 -0.97561,-0.0887 -0.26738,-0.0443 -0.35612,-0.13306 -0.79826,-0.17741 -0.44214,-0.0444 -1.24038,-0.0444 -1.7282,-0.0444 -0.48781,0 -0.6652,0 -0.93166,-0.0441 -0.26647,-0.0441 -0.62125,-0.13281 -0.93129,-0.17739 -0.31004,-0.0446 -0.57612,-0.0446 -0.88655,-0.0446 -0.31042,0 -0.6652,0 -1.41909,0 -0.75389,0 -1.90691,0 -3.32601,0 -1.41909,0 -3.10426,0 -4.3902,0.0442 -1.28594,0.0442 -2.172871,0.1329 -2.705457,0.3089 -0.532586,0.17601 -0.709972,0.44209 -0.975483,0.66456 -0.265511,0.22246 -0.620283,0.39985 -0.842291,0.53237 -0.222008,0.13252 -0.310681,0.2212 -0.487863,0.35454 -0.177183,0.13335 -0.443261,0.31074 -0.665504,0.53196 -0.222243,0.22122 -0.399629,0.4873 -0.665403,0.79793 -0.265775,0.31063 -0.620552,0.66541 -0.799261,0.88717 -0.17871,0.22176 -0.17871,0.3104 -0.26661,0.53187 -0.0879,0.22147 -0.265287,0.57624 -0.442145,0.84259 -0.176858,0.26634 -0.354246,0.44373 -0.488079,0.6652 -0.133833,0.22146 -0.222529,0.48755 -0.35508,0.75369 -0.132552,0.26614 -0.309939,0.53222 -0.399649,0.70984 -0.08971,0.17761 -0.08971,0.26625 -0.08971,0.39929 0,0.13304 0,0.31043 -0.0879,0.57625 -0.0879,0.26581 -0.265291,0.62059 -0.398594,0.93102 -0.133303,0.31042 -0.221995,0.5765 -0.266871,0.7985 -0.04488,0.222 -0.04488,0.39938 -0.132246,0.4894 -0.08737,0.09 -0.264758,0.09 -0.575055,0.26624 -0.310296,0.17623 -0.753766,0.531 -1.241504,0.88592 -0.487739,0.35492 -1.019902,0.70969 -1.331062,0.9752 -0.31116,0.26551 -0.399855,0.4429 -0.532364,0.53318 -0.13251,0.0903 -0.309897,0.0903 -0.531427,0.17796 -0.221531,0.0877 -0.487613,0.26506 -0.798086,0.4867 -0.310472,0.22164 -0.665241,0.48772 -1.108603,0.71003 -0.443362,0.22232 -0.975525,0.39971 -1.507949,0.48893 -0.532425,0.0892 -1.064586,0.0892 -1.463502,0.1769 -0.398917,0.0877 -0.664999,0.26506 -0.975629,0.35477 -0.310629,0.0897 -0.665403,0.0897 -0.93123,0.13327 -0.265827,0.0436 -0.443192,0.13224 -0.620843,0.17738 -0.177651,0.0451 -0.355039,0.0451 -0.75416,0.0451 -0.399121,0 -1.019974,0 -1.729681,-0.0442 -0.709706,-0.0442 -1.50795,-0.13291 -2.174183,-0.39901 -0.666232,-0.2661 -1.198395,-0.70957 -1.553501,-1.06475 -0.355105,-0.35519 -0.532496,-0.62127 -0.841698,-0.79815 -0.309202,-0.17688 -0.752674,-0.26557 -0.975426,-0.44448 -0.222752,-0.17892 -0.222752,-0.445 -0.399929,-0.7096 -0.177176,-0.26459 -0.53195,-0.53067 -0.842746,-0.84147 -0.310797,-0.3108 -0.576881,-0.66557 -0.886619,-0.93118 -0.309739,-0.2656 -0.66451,-0.44298 -0.931121,-0.62064 -0.26661,-0.17765 -0.443992,-0.35504 -0.575711,-0.44373 -0.131719,-0.0887 -0.220411,-0.0887 -0.310418,-0.13304 -0.09001,-0.0443 -0.178718,-0.13305 -0.311759,-0.26609 -0.13304,-0.13304 -0.310424,-0.31042 -0.531359,-0.44319 -0.220936,-0.13278 -0.487028,-0.22148 -0.709019,-0.31017 -0.221991,-0.0887 -0.399393,-0.17739 -0.620856,-0.26608 -0.221463,-0.0887 -0.487555,-0.17739 -0.709546,-0.26608 -0.221991,-0.0887 -0.399393,-0.17739 -0.531636,-0.222 -0.132243,-0.0446 -0.220942,-0.0446 -0.354768,-0.0887 -0.133827,-0.0441 -0.311229,-0.13278 -0.66521,-0.17739 -0.353981,-0.0446 -0.88614,-0.0446 -1.2417,-0.0887 -0.355561,-0.0441 -0.532961,-0.13278 -0.709554,-0.17739 -0.176594,-0.0446 -0.353982,-0.0446 -0.532155,-0.0887 -0.178173,-0.0441 -0.355574,-0.13278 -0.532167,-0.17739 -0.176593,-0.0446 -0.353981,-0.0446 -0.53269,-0.1333 -0.17871,-0.0887 -0.356098,-0.26608 -0.576508,-0.35478 -0.22041,-0.0887 -0.486491,-0.0887 -0.974306,-0.0887 -0.487814,0 -1.197361,0 -1.995602,0 -0.798241,0 -1.685175,0 -2.350376,0 -0.665201,0 -1.108669,0 -1.37475,0 -0.26608,0 -0.354772,0 -0.443467,0 -0.08869,0 -0.177385,0 -0.310425,0.0874 -0.133041,0.0874 -0.31043,0.26476 -0.400446,0.39782 -0.09002,0.13307 -0.09002,0.22171 -0.134057,0.48759 -0.04404,0.26587 -0.132734,0.70934 -0.177386,1.10867 -0.04465,0.39932 -0.04465,0.75409 -0.04465,0.97585 0,0.22176 0,0.31041 0,0.39908 0,0.0887 0,0.17741 0,0.17743 0,2e-5 0,-0.0887 -0.0879,0.0441 -0.0879,0.13277 -0.265289,0.48755 -0.397789,0.70954 -0.1325,0.22199 -0.221216,0.3107 -0.314106,0.34578 C 50.194741,207.04367 50.098347,207.02205 50,207"
       id="path4507"
       inkscape:connector-curvature="0"
       inkscape:path-effect="#path-effect4509"
       inkscape:original-d="m 130,207 c -0.49175,-0.3358 -0.98615,-0.66896 -1.4832,-0.99947 -0.17474,-0.0913 -0.35213,-0.18004 -0.53216,-0.26608 0.003,-0.26873 0.003,-0.53481 0,-0.79824 -0.26344,-0.18004 -0.52952,-0.35742 -0.79824,-0.53217 -0.0861,-0.26872 -0.17474,-0.5348 -0.26608,-0.79824 -0.17474,-0.003 -0.35213,-0.003 -0.53216,0 -0.52952,-0.80088 -1.06168,-1.59913 -1.59649,-2.39472 -0.26343,-0.26873 -0.52951,-0.53481 -0.79824,-0.79824 -0.086,-0.003 -0.17474,-0.003 -0.26608,0 -0.086,-0.0913 -0.17474,-0.18003 -0.26608,-0.26608 -0.26343,-0.35742 -0.52951,-0.71219 -0.79824,-1.06432 -0.35213,-0.18004 -0.7069,-0.35742 -1.06432,-0.53216 -0.0861,-0.0913 -0.17474,-0.18004 -0.26608,-0.26608 -0.17474,-0.0913 -0.35213,-0.18004 -0.53216,-0.26608 -0.0861,-0.18004 -0.17474,-0.35742 -0.26608,-0.53216 -0.35213,-0.0913 -0.7069,-0.18004 -1.06432,-0.26609 -0.17474,-0.003 -0.35213,-0.003 -0.53216,0 -0.0861,-0.18003 -0.17474,-0.35741 -0.26608,-0.53216 -0.44082,-0.0913 -0.88429,-0.18003 -1.3304,-0.26608 -0.0861,-0.0913 -0.17475,-0.18003 -0.26608,-0.26608 -0.44083,-0.003 -0.88429,-0.003 -1.33041,0 -0.086,-0.0913 -0.17474,-0.18003 -0.26608,-0.26608 -0.79559,-0.003 -1.59383,-0.003 -2.39472,0 -0.17474,-0.003 -0.35213,-0.003 -0.53216,0 -0.35213,-0.0913 -0.7069,-0.18003 -1.06432,-0.26608 -0.26344,-0.003 -0.52952,-0.003 -0.79824,0 -0.35213,-0.003 -0.70691,-0.003 -1.06432,0 -1.15037,-0.003 -2.30339,-0.003 -3.45905,0 -1.68253,-0.003 -3.3677,-0.003 -5.05553,0 -0.88428,0.0861 -1.771217,0.17474 -2.660799,0.26608 -0.174741,0.26344 -0.352126,0.52952 -0.532159,0.79824 -0.352128,0.17475 -0.706903,0.35213 -1.064323,0.53216 -0.08604,0.0861 -0.174739,0.17475 -0.266078,0.26609 -0.263435,0.17474 -0.529516,0.35212 -0.798243,0.53216 -0.174741,0.26343 -0.352126,0.52951 -0.532159,0.79824 -0.352129,0.35212 -0.706903,0.7069 -1.064321,1.06432 0.0026,0.0861 0.0026,0.17474 0,0.26608 -0.174741,0.35213 -0.352129,0.7069 -0.532162,1.06432 -0.174741,0.17474 -0.352128,0.35213 -0.532161,0.53216 -0.08605,0.26343 -0.174742,0.52952 -0.266079,0.79824 -0.174741,0.26344 -0.352128,0.52952 -0.532161,0.79824 0.0026,0.0861 0.0026,0.17474 0,0.26608 0.0026,0.17474 0.0026,0.35213 0,0.53216 -0.174742,0.35213 -0.352129,0.70691 -0.532162,1.06432 -0.08605,0.26344 -0.174742,0.52952 -0.266078,0.79825 0.0026,0.17474 0.0026,0.35212 0,0.53216 -0.174742,-0.003 -0.352129,-0.003 -0.532162,0 -0.440822,0.35212 -0.884288,0.7069 -1.330402,1.06432 -0.529516,0.35212 -1.061675,0.7069 -1.596482,1.06432 -0.08605,0.17474 -0.174742,0.35213 -0.266081,0.53216 -0.174739,-0.003 -0.352126,-0.003 -0.532159,0 -0.263435,0.17474 -0.529516,0.35213 -0.798243,0.53216 -0.352126,0.26344 -0.7069,0.52951 -1.064321,0.79824 -0.529513,0.17474 -1.061675,0.35213 -1.596482,0.53216 -0.529514,-0.003 -1.061675,-0.003 -1.59648,0 -0.263435,0.17474 -0.529516,0.35213 -0.798243,0.53216 -0.352126,-0.003 -0.7069,-0.003 -1.064321,0 -0.174741,0.0861 -0.352128,0.17474 -0.532159,0.26608 -0.174741,-0.003 -0.352129,-0.003 -0.532162,0 -0.618209,-0.003 -1.239062,-0.003 -1.862563,0 -0.795594,-0.0913 -1.593834,-0.18003 -2.394723,-0.26608 -0.529513,-0.44611 -1.061675,-0.88958 -1.596482,-1.3304 -0.174739,-0.26872 -0.352126,-0.53481 -0.532159,-0.79824 -0.440823,-0.0913 -0.884288,-0.18003 -1.330402,-0.26608 0.0026,-0.26873 0.0026,-0.53481 0,-0.79824 -0.352129,-0.26873 -0.706903,-0.53481 -1.064321,-0.79824 -0.263435,-0.35742 -0.529516,-0.7122 -0.798243,-1.06432 -0.352126,-0.18004 -0.7069,-0.35742 -1.06432,-0.53216 -0.174742,-0.18004 -0.352129,-0.35742 -0.532159,-0.53217 -0.08605,-0.003 -0.174742,-0.003 -0.266081,0 -0.08605,-0.0913 -0.174742,-0.18003 -0.266081,-0.26608 -0.174742,-0.18003 -0.352129,-0.35741 -0.532162,-0.53216 -0.263432,-0.0913 -0.529513,-0.18003 -0.79824,-0.26608 -0.174741,-0.0913 -0.352129,-0.18003 -0.532162,-0.26608 -0.263432,-0.0913 -0.529513,-0.18003 -0.79824,-0.26608 -0.174741,-0.0913 -0.352128,-0.18003 -0.532161,-0.26608 -0.08604,-0.003 -0.174739,-0.003 -0.266079,0 -0.174741,-0.0913 -0.352128,-0.18003 -0.532161,-0.26608 -0.529516,-0.003 -1.061675,-0.003 -1.596483,0 -0.174741,-0.0913 -0.352126,-0.18003 -0.532159,-0.26608 -0.174741,-0.003 -0.352129,-0.003 -0.532162,0 -0.174741,-0.0913 -0.352128,-0.18003 -0.532159,-0.26608 -0.174741,-0.003 -0.352129,-0.003 -0.532162,0 -0.174741,-0.18003 -0.352128,-0.35742 -0.532161,-0.53216 -0.263433,-0.003 -0.529514,-0.003 -0.79824,0 -0.706903,-0.003 -1.41645,-0.003 -2.128642,0 -0.88429,-0.003 -1.771224,-0.003 -2.660803,0 -0.440823,-0.003 -0.884291,-0.003 -1.330402,0 -0.08605,-0.003 -0.174742,-0.003 -0.266081,0 -0.08605,-0.003 -0.174741,-0.003 -0.266081,0 -0.174741,0.17474 -0.352129,0.35213 -0.532162,0.53216 0.0026,0.0861 0.0026,0.17474 0,0.26608 -0.08604,0.44082 -0.174738,0.88429 -0.266078,1.3304 0.0026,0.35213 0.0026,0.7069 0,1.06432 0.0026,0.0861 0.0026,0.17475 0,0.26609 0.0026,0.086 0.0026,0.17474 0,0.26608 0.0026,-0.0913 0.0026,-0.18004 0,-0.26608 -0.174741,0.35212 -0.352128,0.7069 -0.532162,1.06432 -0.08605,0.086 -0.174741,0.17474 -0.26608,0.26608 C 50.195434,207.04058 50.099039,207.01897 50,207" />
  </g>
</svg>
