<?xml version="1.0" encoding="UTF-8" standalone="no"?>
<!-- Created with Inkscape (http://www.inkscape.org/) -->

<svg
   xmlns:dc="http://purl.org/dc/elements/1.1/"
   xmlns:cc="http://creativecommons.org/ns#"
   xmlns:rdf="http://www.w3.org/1999/02/22-rdf-syntax-ns#"
   xmlns:svg="http://www.w3.org/2000/svg"
   xmlns="http://www.w3.org/2000/svg"
   xmlns:sodipodi="http://sodipodi.sourceforge.net/DTD/sodipodi-0.dtd"
   xmlns:inkscape="http://www.inkscape.org/namespaces/inkscape"
   width="240mm"
   height="120mm"
   viewBox="0 0 240 120"
   version="1.1"
   id="svg8"
   inkscape:version="0.92.1 r15371"
   sodipodi:docname="kek.svg">
  <defs
     id="defs2">
    <inkscape:path-effect
       effect="bspline"
       id="path-effect4485"
       is_visible="true"
       weight="33.333333"
       steps="2"
       helper_size="0"
       apply_no_weight="true"
       apply_with_weight="true"
       only_selected="false" />
  </defs>
  <sodipodi:namedview
     id="base"
     pagecolor="#ffffff"
     bordercolor="#666666"
     borderopacity="1.0"
     inkscape:pageopacity="0.0"
     inkscape:pageshadow="2"
     inkscape:zoom="0.99437388"
     inkscape:cx="80.32056"
     inkscape:cy="182.72055"
     inkscape:document-units="mm"
     inkscape:current-layer="layer1"
     showgrid="false"
     showborder="true"
     width="200mm"
     showguides="true"
     inkscape:guide-bbox="true"
     inkscape:window-width="1020"
     inkscape:window-height="578"
     inkscape:window-x="0"
     inkscape:window-y="20"
     inkscape:window-maximized="0">
    <inkscape:grid
       type="xygrid"
       id="grid815"
       units="mm"
       spacingx="10"
       spacingy="10"
       empspacing="4"
       dotted="false" />
  </sodipodi:namedview>
  <metadata
     id="metadata5">
    <rdf:RDF>
      <cc:Work
         rdf:about="">
        <dc:format>image/svg+xml</dc:format>
        <dc:type
           rdf:resource="http://purl.org/dc/dcmitype/StillImage" />
        <dc:title />
      </cc:Work>
    </rdf:RDF>
  </metadata>
  <g
     inkscape:label="Layer 1"
     inkscape:groupmode="layer"
     id="layer1"
     transform="translate(0,-177)">
    <path
       style="fill:none;stroke:#000000;stroke-width:0.26458332px;stroke-linecap:butt;stroke-linejoin:miter;stroke-opacity:1"
       d="m 21.020346,226.48871 c -0.531306,1.94812 -1.063467,3.89938 -1.374177,5.3186 -0.31071,1.41922 -0.399403,2.30615 -0.488175,3.68096 -0.08877,1.37481 -0.177465,3.23737 -0.221877,6.11997 -0.04441,2.88259 -0.04441,6.78511 -0.04441,9.17983 0,2.39472 0,3.28166 0,3.9912 0,0.70955 0,1.24171 0.221624,1.77506 0.221624,0.53336 0.665091,1.06552 1.330562,1.68663 0.665471,0.62111 1.552408,1.33066 2.307255,1.72981 0.754847,0.39915 1.375694,0.48784 1.996077,0.66535 0.620383,0.1775 1.241237,0.44358 1.818427,0.57634 0.57719,0.13277 1.109352,0.13277 1.685859,0.13277 0.576507,0 1.19736,0 2.306029,0 1.108669,0 2.705149,0 3.946857,0 1.241708,0 2.128644,0 3.104271,0 0.975628,0 2.039949,0 3.547975,-0.57743 1.508026,-0.57743 3.459282,-1.73044 5.366179,-2.88349 1.906898,-1.15305 3.769455,-2.30607 5.099836,-3.14872 1.330381,-0.84264 2.128622,-1.3748 3.015471,-2.04016 0.886848,-0.66536 1.862477,-1.46361 2.438183,-2.08488 0.575706,-0.62127 0.753093,-1.06474 0.930635,-1.46385 0.177542,-0.39911 0.354928,-0.75388 0.442829,-1.24143 0.0879,-0.48755 0.0879,-1.10841 0.0879,-1.8623 0,-0.75389 0,-1.64083 0,-2.39473 0,-0.75389 0,-1.37474 0,-1.81821 0,-0.44346 0,-0.70955 -0.132734,-0.92975 -0.132735,-0.22021 -0.398817,-0.3976 -1.285097,-0.66365 -0.886281,-0.26606 -2.394069,-0.62084 -3.724337,-0.88697 -1.330268,-0.26614 -2.483281,-0.44353 -3.325639,-0.53239 -0.842359,-0.0889 -1.374519,-0.0889 -2.305801,-0.0889 -0.931281,0 -2.261683,0 -3.015577,0 -0.753895,0 -0.931282,0 -1.021298,0.17606 -0.09002,0.17606 -0.09002,0.53084 -0.17846,1.24021 -0.08844,0.70936 -0.265828,1.77368 -0.354772,2.74949 -0.08894,0.97581 -0.08894,1.86274 -0.08894,2.79402 0,0.93129 0,1.90692 0,4.21294 0,2.30603 0,5.94246 0,8.64761 0,2.70515 0,4.47902 0,5.54334 0,1.06433 0,1.4191 0.177182,1.86358 0.177183,0.44449 0.531961,0.97665 0.842895,1.33193 0.310934,0.35528 0.577017,0.53267 1.020095,0.97584 0.443079,0.44317 1.063935,1.15272 1.729144,1.90662 0.66521,0.75391 1.374756,1.55215 1.951499,2.12887 0.576743,0.57672 1.020209,0.9315 1.596426,1.55206 0.576218,0.62056 1.285764,1.50749 1.952209,1.99563 0.666444,0.48813 1.287294,0.57682 1.640722,0.79747 0.353428,0.22064 0.44212,0.57541 0.931344,0.7982 0.489224,0.22279 1.376165,0.31148 1.864123,0.3557 0.487958,0.0442 0.576651,0.0442 0.619675,-0.0901 0.04302,-0.13436 0.04302,-0.40044 0.22105,-0.97722 0.178025,-0.57679 0.532798,-1.46372 0.754198,-2.12885 0.221401,-0.66513 0.310095,-1.1086 0.621075,-1.81819 0.31098,-0.7096 0.843141,-1.68523 1.419318,-3.10433 0.576177,-1.41911 1.197034,-3.28168 1.729129,-4.96684 0.532094,-1.68517 0.975559,-3.19295 1.19683,-3.99092 0.221271,-0.79797 0.221271,-0.8867 0.221271,-1.24148 0,-0.35477 0,-0.97562 0.133276,-2.12881 0.133276,-1.15318 0.399356,-2.83836 0.576757,-3.94704 0.1774,-1.10867 0.266094,-1.64083 0.310191,-1.99542 0.0441,-0.3546 0.0441,-0.53199 0.08859,-1.06427 0.04449,-0.53228 0.133184,-1.41921 0.177386,-3.10427 0.0442,-1.68506 0.0442,-4.16847 0.0442,-6.34146 0,-2.17299 0,-4.03555 0,-5.89547"
       id="path4483"
       inkscape:connector-curvature="0"
       inkscape:path-effect="#path-effect4485"
       inkscape:original-d="m 21.020346,226.48871 c -0.529515,1.94861 -1.061676,3.89987 -1.596482,5.85377 -0.08605,0.88429 -0.174741,1.77122 -0.26608,2.6608 -0.08605,1.85992 -0.174741,3.72248 -0.26608,5.58769 0.0026,3.89986 0.0026,7.80238 0,11.70753 0.0026,0.88429 0.0026,1.77123 0,2.66081 0.0026,0.52951 0.0026,1.06167 0,1.59648 0.446112,0.52951 0.88958,1.06167 1.330401,1.59648 0.88958,0.7069 1.776515,1.41645 2.660803,2.12864 0.6235,0.0861 1.244354,0.17474 1.862563,0.26608 0.6235,0.26344 1.244354,0.52952 1.862563,0.79824 0.534805,-0.003 1.066967,-0.003 1.59648,0 0.623501,-0.003 1.244354,-0.003 1.862564,0 1.599128,-0.003 3.195608,-0.003 4.789445,0 0.889579,-0.003 1.776515,-0.003 2.660803,0 1.066967,-0.003 2.131288,-0.003 3.192965,0 1.953901,-1.15566 3.905158,-2.30867 5.853766,-3.45904 1.86521,-1.15566 3.72777,-2.30867 5.587688,-3.45905 0.800886,-0.5348 1.599128,-1.06696 2.394723,-1.59648 0.978273,-0.80088 1.953902,-1.59912 2.926884,-2.39472 0.180033,-0.44611 0.357418,-0.88958 0.532159,-1.3304 0.180033,-0.35742 0.35742,-0.71219 0.532162,-1.06432 0.0026,-0.6235 0.0026,-1.24436 0,-1.86256 0.0026,-0.88958 0.0026,-1.77652 0,-2.66081 0.0026,-0.6235 0.0026,-1.24435 0,-1.86256 0.0026,-0.26872 0.0026,-0.53481 0,-0.79824 -0.263435,-0.18003 -0.529516,-0.35742 -0.79824,-0.53216 -1.505143,-0.35742 -3.012932,-0.71219 -4.523367,-1.06432 -1.150369,-0.18004 -2.303383,-0.35742 -3.459044,-0.53216 -0.529515,-0.003 -1.061675,-0.003 -1.596482,0 -1.327756,-0.003 -2.658158,-0.003 -3.991205,0 -0.174742,-0.003 -0.352129,-0.003 -0.532162,0 0.0026,0.35212 0.0026,0.7069 0,1.06432 -0.174739,1.06167 -0.352126,2.12599 -0.532159,3.19296 0.0026,0.88429 0.0026,1.77122 0,2.6608 0.0026,0.97299 0.0026,1.94862 0,2.92689 0.0026,3.63378 0.0026,7.27021 0,10.90929 0.0026,1.77122 0.0026,3.54509 0,5.32161 0.0026,0.35213 0.0026,0.7069 0,1.06432 0.35742,0.52951 0.712192,1.06168 1.064321,1.59648 0.268726,0.17474 0.534807,0.35213 0.79824,0.53216 0.623501,0.7069 1.244354,1.41645 1.862563,2.12864 0.712192,0.7956 1.421741,1.59384 2.128642,2.39473 0.446114,0.35213 0.889582,0.7069 1.330402,1.06432 0.712194,0.88429 1.421741,1.77122 2.128644,2.6608 0.623498,0.0861 1.244354,0.17475 1.862561,0.26608 0.09134,0.35213 0.180033,0.7069 0.266081,1.06433 0.889579,0.086 1.776515,0.17474 2.660803,0.26607 0.09134,-0.003 0.180033,-0.003 0.266081,0 0.0026,-0.26872 0.0026,-0.5348 0,-0.79824 0.357418,-0.88958 0.712192,-1.77651 1.064321,-2.6608 0.09134,-0.44611 0.180033,-0.88958 0.266081,-1.3304 0.534805,-0.97827 1.066966,-1.9539 1.596482,-2.92689 0.623499,-1.8652 1.244354,-3.72777 1.862561,-5.58768 0.446114,-1.51044 0.889579,-3.01822 1.330402,-4.52337 0.0026,-0.0913 0.0026,-0.18003 0,-0.26608 0.0026,-0.6235 0.0026,-1.24435 0,-1.86256 0.268726,-1.68782 0.534807,-3.373 0.79824,-5.05553 0.09134,-0.5348 0.180033,-1.06696 0.266081,-1.59648 0.0026,-0.18003 0.0026,-0.35742 0,-0.53216 0.09134,-0.88958 0.180033,-1.77651 0.26608,-2.6608 0.0026,-2.48607 0.0026,-4.96948 0,-7.45025 0.0026,-1.86521 0.0026,-3.72777 0,-5.58769" />
    <text
       xml:space="preserve"
       style="font-style:normal;font-weight:normal;font-size:10.58333302px;line-height:1.25;font-family:sans-serif;letter-spacing:0px;word-spacing:0px;fill:#000000;fill-opacity:1;stroke:none;stroke-width:0.26458332"
       x="47.362301"
       y="221.69926"
       id="text4487"><tspan
         sodipodi:role="line"
         id="tspan4485"
         x="47.362301"
         y="221.69926"
         style="stroke-width:0.26458332">$kek$</tspan></text>
  </g>
</svg>
