<?xml version="1.0" encoding="UTF-8" standalone="no"?>
<svg
   xmlns:osb="http://www.openswatchbook.org/uri/2009/osb"
   xmlns:dc="http://purl.org/dc/elements/1.1/"
   xmlns:cc="http://creativecommons.org/ns#"
   xmlns:rdf="http://www.w3.org/1999/02/22-rdf-syntax-ns#"
   xmlns:svg="http://www.w3.org/2000/svg"
   xmlns="http://www.w3.org/2000/svg"
   xmlns:sodipodi="http://sodipodi.sourceforge.net/DTD/sodipodi-0.dtd"
   xmlns:inkscape="http://www.inkscape.org/namespaces/inkscape"
   sodipodi:docname="img1.svg"
   inkscape:version="1.0 (4035a4fb49, 2020-05-01)"
   id="svg8"
   version="1.1"
   viewBox="0 0 240 120"
   height="120mm"
   width="240mm">
  <defs
     id="defs2">
    <marker
       inkscape:isstock="true"
       style="overflow:visible"
       id="marker3704"
       refX="0"
       refY="0"
       orient="auto"
       inkscape:stockid="TriangleOutL">
      <path
         transform="scale(0.8)"
         style="fill:#800080;fill-opacity:1;fill-rule:evenodd;stroke:#800080;stroke-width:1pt;stroke-opacity:1"
         d="M 5.77,0 -2.88,5 V -5 Z"
         id="path3702" />
    </marker>
    <marker
       inkscape:isstock="true"
       style="overflow:visible"
       id="marker3033"
       refX="0.0"
       refY="0.0"
       orient="auto"
       inkscape:stockid="TriangleOutL">
      <path
         transform="scale(0.8)"
         style="fill-rule:evenodd;stroke:#008000;stroke-width:1pt;stroke-opacity:1;fill:#008000;fill-opacity:1"
         d="M 5.77,0.0 L -2.88,5.0 L -2.88,-5.0 L 5.77,0.0 z "
         id="path3031" />
    </marker>
    <marker
       inkscape:collect="always"
       inkscape:stockid="TriangleOutL"
       orient="auto"
       refY="0.0"
       refX="0.0"
       id="marker2670"
       style="overflow:visible"
       inkscape:isstock="true">
      <path
         id="path2668"
         d="M 5.77,0.0 L -2.88,5.0 L -2.88,-5.0 L 5.77,0.0 z "
         style="fill-rule:evenodd;stroke:#803300;stroke-width:1pt;stroke-opacity:1;fill:#803300;fill-opacity:1"
         transform="scale(0.8)" />
    </marker>
    <marker
       inkscape:isstock="true"
       style="overflow:visible"
       id="TriangleInL"
       refX="0.0"
       refY="0.0"
       orient="auto"
       inkscape:stockid="TriangleInL">
      <path
         transform="scale(-0.8)"
         style="fill-rule:evenodd;stroke:#e66100;stroke-width:1pt;stroke-opacity:1;fill:#e66100;fill-opacity:1"
         d="M 5.77,0.0 L -2.88,5.0 L -2.88,-5.0 L 5.77,0.0 z "
         id="path2132" />
    </marker>
    <marker
       inkscape:isstock="true"
       style="overflow:visible;"
       id="Arrow2Lend"
       refX="0.0"
       refY="0.0"
       orient="auto"
       inkscape:stockid="Arrow2Lend">
      <path
         transform="scale(1.1) rotate(180) translate(1,0)"
         d="M 8.7185878,4.0337352 L -2.2072895,0.016013256 L 8.7185884,-4.0017078 C 6.9730900,-1.6296469 6.9831476,1.6157441 8.7185878,4.0337352 z "
         style="fill-rule:evenodd;stroke-width:0.625;stroke-linejoin:round;stroke:#803300;stroke-opacity:1;fill:#803300;fill-opacity:1"
         id="path2020" />
    </marker>
    <marker
       inkscape:isstock="true"
       style="overflow:visible;"
       id="Arrow2Mend"
       refX="0.0"
       refY="0.0"
       orient="auto"
       inkscape:stockid="Arrow2Mend">
      <path
         transform="scale(0.6) rotate(180) translate(0,0)"
         d="M 8.7185878,4.0337352 L -2.2072895,0.016013256 L 8.7185884,-4.0017078 C 6.9730900,-1.6296469 6.9831476,1.6157441 8.7185878,4.0337352 z "
         style="fill-rule:evenodd;stroke-width:0.625;stroke-linejoin:round;stroke:#000000;stroke-opacity:1;fill:#000000;fill-opacity:1"
         id="path2026" />
    </marker>
    <linearGradient
       osb:paint="solid"
       id="linearGradient2972">
      <stop
         id="stop2970"
         offset="0"
         style="stop-color:#000000;stop-opacity:1;" />
    </linearGradient>
    <linearGradient
       osb:paint="solid"
       id="linearGradient2936">
      <stop
         id="stop2934"
         offset="0"
         style="stop-color:#800080;stop-opacity:1;" />
    </linearGradient>
    <pattern
       id="pattern2987"
       patternTransform="translate(453.09609,188.75277)"
       height="76.037764"
       width="38.689702"
       patternUnits="userSpaceOnUse">
      <path
         style="fill:none;stroke:#0000ff;stroke-width:0.999999px;stroke-linecap:butt;stroke-linejoin:miter;stroke-opacity:1"
         d="M 0.44721302,75.814158 38.242489,0.22360651"
         id="path2985" />
    </pattern>
    <pattern
       patternUnits="userSpaceOnUse"
       width="28.070277"
       height="62.857529"
       patternTransform="translate(433.55641,191.22409)"
       id="pattern853">
      <path
         id="path851"
         d="M 27.436644,62.584979 0.63363276,0.27255022 v 0"
         style="fill:none;stroke:#ff0000;stroke-width:1.37953;stroke-linecap:butt;stroke-linejoin:miter;stroke-miterlimit:4;stroke-dasharray:none;stroke-opacity:1" />
    </pattern>
    <pattern
       patternUnits="userSpaceOnUse"
       width="88.001424"
       height="201.46807"
       patternTransform="translate(380.42202,66.790275)"
       id="pattern1830">
      <path
         id="path1828"
         d="M 87.542608,201.26935 0.45881619,0.19871351"
         style="fill:none;stroke:#ff0000;stroke-width:0.999999px;stroke-linecap:butt;stroke-linejoin:miter;stroke-opacity:1" />
    </pattern>
    <pattern
       patternUnits="userSpaceOnUse"
       width="100.65837"
       height="210.89404"
       patternTransform="translate(430.85787,39.200907)"
       id="pattern1841">
      <path
         id="path1839"
         d="M 98.944513,210.09786 1.7138611,0.79617047"
         style="fill:none;stroke:#d40000;stroke-width:3.77953;stroke-linecap:butt;stroke-linejoin:miter;stroke-miterlimit:4;stroke-dasharray:none;stroke-opacity:1" />
    </pattern>
    <pattern
       id="pattern1827"
       patternTransform="translate(453.42047,75.590551)"
       height="188.97638"
       width="0.24566928"
       patternUnits="userSpaceOnUse">
      <path
         style="fill:#ff0000;stroke:#ff0000;stroke-width:0.245669;stroke-linecap:butt;stroke-linejoin:miter;stroke-miterlimit:4;stroke-dasharray:none;stroke-opacity:1"
         d="M 0.12283464,188.97638 V 0"
         id="path1825" />
    </pattern>
    <pattern
       id="pattern1836"
       patternTransform="translate(401.6097,69.235775)"
       height="167.25821"
       width="88.641582"
       patternUnits="userSpaceOnUse">
      <path
         style="fill:none;stroke:#ff0000;stroke-width:0.245669;stroke-linecap:butt;stroke-linejoin:miter;stroke-miterlimit:4;stroke-dasharray:none;stroke-opacity:1"
         d="M 88.533005,167.20077 0.10857675,0.05744074"
         id="path1834" />
    </pattern>
    <pattern
       id="pattern1846"
       patternTransform="translate(400.91361,87.724059)"
       height="170.2966"
       width="91.073551"
       patternUnits="userSpaceOnUse">
      <path
         style="fill:none;stroke:#ff0000;stroke-width:1.00157;stroke-linecap:butt;stroke-linejoin:miter;stroke-miterlimit:4;stroke-dasharray:none;stroke-opacity:1"
         d="M 90.631264,170.06172 0.44228722,0.23488297"
         id="path1844" />
    </pattern>
    <pattern
       id="pattern1893"
       patternTransform="translate(175.47367,34.269026)"
       height="131.75004"
       width="67.120104"
       patternUnits="userSpaceOnUse">
      <path
         style="fill:none;stroke:#0000ff;stroke-width:1.37953;stroke-linecap:butt;stroke-linejoin:miter;stroke-miterlimit:4;stroke-dasharray:none;stroke-opacity:1"
         d="M 0.61633675,131.44035 66.503767,0.30968228"
         id="path1891" />
    </pattern>
    <pattern
       patternUnits="userSpaceOnUse"
       width="38.689702"
       height="76.037764"
       patternTransform="translate(453.09609,188.75277)"
       id="pattern2987-6">
      <path
         id="path2985-7"
         d="M 0.44721302,75.814158 38.242489,0.22360651"
         style="fill:none;stroke:#0000ff;stroke-width:0.999999px;stroke-linecap:butt;stroke-linejoin:miter;stroke-opacity:1" />
    </pattern>
    <marker
       id="marker-arrow-0.5308"
       orient="auto-start-reverse"
       refY="0"
       refX="0"
       markerHeight="1.690"
       markerWidth="0.911">
      <g
         transform="scale(2.153529264004019)"
         id="g1986">
        <path
           d="M -1.55415,2.0722 C -1.42464,1.29512 0,0.1295 0.38852,0 0,-0.1295 -1.42464,-1.29512 -1.55415,-2.0722"
           style="fill:none;stroke:#000000;stroke-width:0.6;stroke-linecap:round;stroke-linejoin:round;stroke-miterlimit:10;stroke-dasharray:none;stroke-opacity:1"
           inkscape:connector-curvature="0"
           id="path1984" />
      </g>
    </marker>
    <marker
       id="marker-arrow-1.5923999999999998"
       orient="auto-start-reverse"
       refY="0"
       refX="0"
       markerHeight="1.690"
       markerWidth="0.911">
      <g
         transform="scale(1.0733986435568954)"
         id="g2329">
        <path
           d="M -1.55415,2.0722 C -1.42464,1.29512 0,0.1295 0.38852,0 0,-0.1295 -1.42464,-1.29512 -1.55415,-2.0722"
           style="fill:none;stroke:#000000;stroke-width:0.6;stroke-linecap:round;stroke-linejoin:round;stroke-miterlimit:10;stroke-dasharray:none;stroke-opacity:1"
           inkscape:connector-curvature="0"
           id="path2327" />
      </g>
    </marker>
    <marker
       id="marker-arrow-1.5923999999999998-3"
       orient="auto-start-reverse"
       refY="0"
       refX="0"
       markerHeight="1.690"
       markerWidth="0.911">
      <g
         transform="scale(1.0733986435568954)"
         id="g2456">
        <path
           d="M -1.55415,2.0722 C -1.42464,1.29512 0,0.1295 0.38852,0 0,-0.1295 -1.42464,-1.29512 -1.55415,-2.0722"
           style="fill:none;stroke:#000000;stroke-width:0.6;stroke-linecap:round;stroke-linejoin:round;stroke-miterlimit:10;stroke-dasharray:none;stroke-opacity:1"
           inkscape:connector-curvature="0"
           id="path2454" />
      </g>
    </marker>
    <marker
       id="marker-arrow-1.5923999999999998-5"
       orient="auto-start-reverse"
       refY="0"
       refX="0"
       markerHeight="1.690"
       markerWidth="0.911">
      <g
         transform="scale(1.0733986435568954)"
         id="g2595">
        <path
           d="M -1.55415,2.0722 C -1.42464,1.29512 0,0.1295 0.38852,0 0,-0.1295 -1.42464,-1.29512 -1.55415,-2.0722"
           style="fill:none;stroke:#000000;stroke-width:0.6;stroke-linecap:round;stroke-linejoin:round;stroke-miterlimit:10;stroke-dasharray:none;stroke-opacity:1"
           inkscape:connector-curvature="0"
           id="path2593" />
      </g>
    </marker>
    <marker
       inkscape:collect="always"
       inkscape:stockid="TriangleOutL"
       orient="auto"
       refY="0"
       refX="0"
       id="TriangleOutL-6"
       style="overflow:visible"
       inkscape:isstock="true">
      <path
         id="path2141-2"
         d="M 5.77,0 -2.88,5 V -5 Z"
         style="fill:#800080;fill-opacity:1;fill-rule:evenodd;stroke:#800080;stroke-width:1pt;stroke-opacity:1"
         transform="scale(0.8)" />
    </marker>
    <marker
       id="marker-arrow-1.5923999999999998-1"
       orient="auto-start-reverse"
       refY="0"
       refX="0"
       markerHeight="1.690"
       markerWidth="0.911">
      <g
         transform="scale(1.0733986435568954)"
         id="g2937">
        <path
           d="M -1.55415,2.0722 C -1.42464,1.29512 0,0.1295 0.38852,0 0,-0.1295 -1.42464,-1.29512 -1.55415,-2.0722"
           style="fill:none;stroke:#000000;stroke-width:0.6;stroke-linecap:round;stroke-linejoin:round;stroke-miterlimit:10;stroke-dasharray:none;stroke-opacity:1"
           inkscape:connector-curvature="0"
           id="path2935" />
      </g>
    </marker>
    <marker
       inkscape:stockid="TriangleOutL"
       orient="auto"
       refY="0"
       refX="0"
       id="marker3033-2"
       style="overflow:visible"
       inkscape:isstock="true">
      <path
         id="path3031-7"
         d="M 5.77,0 -2.88,5 V -5 Z"
         style="fill:#008000;fill-opacity:1;fill-rule:evenodd;stroke:#008000;stroke-width:1pt;stroke-opacity:1"
         transform="scale(0.8)" />
    </marker>
    <marker
       inkscape:stockid="TriangleOutL"
       orient="auto"
       refY="0"
       refX="0"
       id="marker3033-9"
       style="overflow:visible"
       inkscape:isstock="true">
      <path
         id="path3031-3"
         d="M 5.77,0 -2.88,5 V -5 Z"
         style="fill:#008000;fill-opacity:1;fill-rule:evenodd;stroke:#008000;stroke-width:1pt;stroke-opacity:1"
         transform="scale(0.8)" />
    </marker>
    <marker
       id="marker-arrow-1.5923999999999998-4"
       orient="auto-start-reverse"
       refY="0"
       refX="0"
       markerHeight="1.690"
       markerWidth="0.911">
      <g
         transform="scale(1.0733986435568954)"
         id="g4456">
        <path
           d="M -1.55415,2.0722 C -1.42464,1.29512 0,0.1295 0.38852,0 0,-0.1295 -1.42464,-1.29512 -1.55415,-2.0722"
           style="fill:none;stroke:#000000;stroke-width:0.6;stroke-linecap:round;stroke-linejoin:round;stroke-miterlimit:10;stroke-dasharray:none;stroke-opacity:1"
           inkscape:connector-curvature="0"
           id="path4454" />
      </g>
    </marker>
    <marker
       inkscape:stockid="TriangleInL"
       orient="auto"
       refY="0"
       refX="0"
       id="TriangleInL-6"
       style="overflow:visible"
       inkscape:isstock="true">
      <path
         id="path2132-3"
         d="M 5.77,0 -2.88,5 V -5 Z"
         style="fill:#ff7800;fill-opacity:1;fill-rule:evenodd;stroke:#ff7800;stroke-width:1pt;stroke-opacity:1"
         transform="scale(-0.8)" />
    </marker>
    <marker
       inkscape:isstock="true"
       style="overflow:visible"
       id="TriangleInL-6-0"
       refX="0"
       refY="0"
       orient="auto"
       inkscape:stockid="TriangleInL">
      <path
         transform="scale(-0.8)"
         style="fill:#ff7800;fill-opacity:1;fill-rule:evenodd;stroke:#ff7800;stroke-width:1pt;stroke-opacity:1"
         d="M 5.77,0 -2.88,5 V -5 Z"
         id="path2132-3-6" />
    </marker>
    <marker
       inkscape:isstock="true"
       style="overflow:visible"
       id="TriangleInL-6-5"
       refX="0"
       refY="0"
       orient="auto"
       inkscape:stockid="TriangleInL">
      <path
         transform="scale(-0.8)"
         style="fill:#008000;fill-opacity:1;fill-rule:evenodd;stroke:#008000;stroke-width:1pt;stroke-opacity:1"
         d="M 5.77,0 -2.88,5 V -5 Z"
         id="path2132-3-5" />
    </marker>
    <marker
       inkscape:stockid="TriangleInL"
       orient="auto"
       refY="0"
       refX="0"
       id="TriangleInL-6-0-4"
       style="overflow:visible"
       inkscape:isstock="true">
      <path
         id="path2132-3-6-7"
         d="M 5.77,0 -2.88,5 V -5 Z"
         style="fill:#008000;fill-opacity:1;fill-rule:evenodd;stroke:#008000;stroke-width:1pt;stroke-opacity:1"
         transform="scale(-0.8)" />
    </marker>
    <marker
       inkscape:isstock="true"
       style="overflow:visible"
       id="TriangleInL-6-6"
       refX="0"
       refY="0"
       orient="auto"
       inkscape:stockid="TriangleInL">
      <path
         transform="scale(-0.8)"
         style="fill:#800080;fill-opacity:1;fill-rule:evenodd;stroke:#800080;stroke-width:1pt;stroke-opacity:1"
         d="M 5.77,0 -2.88,5 V -5 Z"
         id="path2132-3-9" />
    </marker>
    <marker
       inkscape:stockid="TriangleInL"
       orient="auto"
       refY="0"
       refX="0"
       id="TriangleInL-6-0-3"
       style="overflow:visible"
       inkscape:isstock="true">
      <path
         id="path2132-3-6-74"
         d="M 5.77,0 -2.88,5 V -5 Z"
         style="fill:#800080;fill-opacity:1;fill-rule:evenodd;stroke:#800080;stroke-width:1pt;stroke-opacity:1"
         transform="scale(-0.8)" />
    </marker>
    <pattern
       patternUnits="userSpaceOnUse"
       width="91.073551"
       height="170.2966"
       patternTransform="translate(400.91361,87.724059)"
       id="pattern1846-3">
      <path
         id="path1844-5"
         d="M 90.631264,170.06172 0.44228722,0.23488297"
         style="fill:none;stroke:#ff0000;stroke-width:1.00157;stroke-linecap:butt;stroke-linejoin:miter;stroke-miterlimit:4;stroke-dasharray:none;stroke-opacity:1" />
    </pattern>
    <marker
       inkscape:isstock="true"
       style="overflow:visible"
       id="TriangleOutL-6-5"
       refX="0"
       refY="0"
       orient="auto"
       inkscape:stockid="TriangleOutL"
       inkscape:collect="always">
      <path
         transform="scale(0.8)"
         style="fill:#800080;fill-opacity:1;fill-rule:evenodd;stroke:#800080;stroke-width:1pt;stroke-opacity:1"
         d="M 5.77,0 -2.88,5 V -5 Z"
         id="path2141-2-3" />
    </marker>
  </defs>
  <sodipodi:namedview
     inkscape:snap-nodes="false"
     inkscape:snap-others="false"
     inkscape:document-rotation="0"
     inkscape:window-maximized="1"
     inkscape:window-y="0"
     inkscape:window-x="0"
     inkscape:window-height="884"
     inkscape:window-width="1440"
     inkscape:guide-bbox="true"
     showguides="true"
     width="200mm"
     showborder="true"
     showgrid="false"
     inkscape:current-layer="layer1"
     inkscape:document-units="mm"
     inkscape:cy="395.64952"
     inkscape:cx="473.79257"
     inkscape:zoom="2.814285"
     inkscape:pageshadow="2"
     inkscape:pageopacity="0.0"
     borderopacity="1.0"
     bordercolor="#666666"
     pagecolor="#ffffff"
     id="base">
    <inkscape:grid
       dotted="false"
       empspacing="4"
       spacingy="10"
       spacingx="10"
       units="mm"
       id="grid815"
       type="xygrid" />
  </sodipodi:namedview>
  <metadata
     id="metadata5">
    <rdf:RDF>
      <cc:Work
         rdf:about="">
        <dc:format>image/svg+xml</dc:format>
        <dc:type
           rdf:resource="http://purl.org/dc/dcmitype/StillImage" />
        <dc:title></dc:title>
      </cc:Work>
    </rdf:RDF>
  </metadata>
  <g
     transform="translate(0,-177)"
     id="layer1"
     inkscape:groupmode="layer"
     inkscape:label="Layer 1">
    <path
       id="path18-7"
       style="fill:none;stroke:#800080;stroke-width:0.5;stroke-miterlimit:4;stroke-dasharray:none"
       d="m 126.99065,224.22665 a 7.513478,7.5088228 0 0 0 -7.51341,7.50875 h 15.02696 a 7.513478,7.5088228 0 0 0 -7.51355,-7.50875 z" />
    <path
       d="m 149.50421,216.63742 a 15,15.070913 0 0 0 -14.99987,15.07077 h 29.99999 a 15,15.070913 0 0 0 -15.00012,-15.07077 z"
       style="fill:none;stroke:#008000;stroke-width:0.5;stroke-miterlimit:4;stroke-dasharray:none"
       id="path18" />
    <path
       id="path18-3"
       style="fill:none;stroke:#008000;stroke-width:0.5;stroke-miterlimit:4;stroke-dasharray:none"
       d="m 119.50419,216.63742 a 15,15.070914 0 0 0 -14.99987,15.07077 h 30 a 15,15.070914 0 0 0 -15.00013,-15.07077 z" />
    <path
       id="path18-6"
       style="fill:none;stroke:#008000;stroke-width:0.5;stroke-miterlimit:4;stroke-dasharray:none"
       d="m 89.504171,216.63742 a 15,15.070914 0 0 0 -14.99986,15.07077 H 104.5043 A 15,15.070914 0 0 0 89.504171,216.63742 Z" />
    <path
       d="m 116.99069,229.17336 a 2.4887781,2.5643247 0 0 0 -2.48875,2.5643 h 4.97755 a 2.4887781,2.5643247 0 0 0 -2.4888,-2.5643 z"
       style="fill:none;stroke:#800080;stroke-width:0.5;stroke-miterlimit:4;stroke-dasharray:none"
       id="path18-7-3" />
    <path
       d="m 109.50418,226.68469 a 5.0000475,5.023545 0 0 0 -5,5.0235 h 10.0001 a 5.0000475,5.023545 0 0 0 -5.0001,-5.0235 z"
       style="fill:none;stroke:#008000;stroke-width:0.5;stroke-miterlimit:4;stroke-dasharray:none"
       id="path18-3-6" />
    <path
       d="m 111.96594,224.2289 a 7.513478,7.5088228 0 0 0 -7.51341,7.50876 h 15.02696 a 7.513478,7.5088228 0 0 0 -7.51355,-7.50876 z"
       style="fill:none;stroke:#e66100;stroke-width:0.5;stroke-miterlimit:4;stroke-dasharray:none"
       id="path18-7-2" />
    <path
       id="path12"
       d="M 64.504171,231.70833 H 174.50421 v 0"
       style="fill:none;stroke:#1a5fb4;stroke-width:0.5;stroke-linecap:butt;stroke-linejoin:miter;stroke-miterlimit:4;stroke-dasharray:none;stroke-opacity:1" />
    <path
       id="path953"
       d="M 104.50418,231.70833 V 181.47195"
       style="fill:#0000ff;stroke:#e66100;stroke-width:0.5;stroke-linecap:butt;stroke-linejoin:miter;stroke-miterlimit:4;stroke-dasharray:none;stroke-opacity:1" />
    <path
       style="fill:#0000ff;stroke:#800080;stroke-width:0.5;stroke-linecap:butt;stroke-linejoin:miter;stroke-miterlimit:4;stroke-dasharray:none;stroke-opacity:1"
       d="M 134.55837,231.68109 V 181.44471"
       id="path953-9" />
    <path
       style="fill:#800080;stroke:#800080;stroke-width:0.5;stroke-linecap:butt;stroke-linejoin:miter;stroke-miterlimit:4;stroke-dasharray:none;stroke-opacity:1"
       d="M 74.50417,231.46971 V 181.23333"
       id="path953-1" />
    <path
       style="fill:#0000ff;stroke:#803300;stroke-width:0.5;stroke-linecap:butt;stroke-linejoin:miter;stroke-miterlimit:4;stroke-dasharray:none;stroke-opacity:1"
       d="M 164.50421,231.70833 V 181.47195"
       id="path953-2" />
    <path
       id="path984"
       d="m 114.40086,230.22366 c -0.27831,-1.04887 -1.09312,-2.13944 -2.10061,-2.81154 -0.77725,-0.5185 -1.49438,-0.74272 -2.53026,-0.7911 -1.53228,-0.0716 -2.68623,0.35106 -3.77933,1.38412 -0.35045,0.3312 -0.63718,0.55996 -0.63718,0.50834 0,-0.25097 0.98799,-1.56368 1.62835,-2.16352 1.55835,-1.45975 3.72304,-2.18354 5.77922,-1.93235 2.51655,0.30743 4.60718,1.75244 5.75504,3.97778 0.29092,0.56401 0.66621,1.56248 0.66621,1.77247 0,0.0203 -0.14222,-0.11468 -0.31605,-0.29986 -0.17383,-0.18519 -0.55971,-0.44878 -0.85751,-0.58576 -0.46226,-0.21263 -0.63276,-0.24248 -1.16561,-0.20404 -0.93343,0.0673 -1.60107,0.49114 -2.17803,1.3826 -0.14153,0.21868 -0.14384,0.21661 -0.26424,-0.23714 z"
       style="opacity:0.5;mix-blend-mode:normal;fill:#99c1f1;fill-opacity:1;fill-rule:evenodd;stroke:none;stroke-width:0.5;stroke-miterlimit:4;stroke-dasharray:none" />
    <path
       style="fill:#f66151;fill-opacity:1;fill-rule:evenodd;stroke:none;stroke-width:0.5;stroke-miterlimit:4;stroke-dasharray:none;opacity:0.5"
       d="m 119.33623,229.72312 c -0.29495,-1.28383 -1.34197,-2.92211 -2.464,-3.85546 -0.75634,-0.62915 -2.06369,-1.28825 -3.04968,-1.53749 -1.00579,-0.25425 -2.63753,-0.2563 -3.67735,-0.005 -2.05632,0.49771 -3.69988,1.74063 -4.88179,3.69177 l -0.25765,0.42533 0.062,-0.33081 c 0.21838,-1.16495 1.09423,-3.20339 1.92904,-4.48962 2.20877,-3.40317 5.56456,-5.70192 9.61604,-6.5871 0.8216,-0.1795 1.24933,-0.21065 2.89268,-0.21065 1.639,0 2.07205,0.0314 2.88471,0.20902 2.11587,0.46252 4.02952,1.29129 5.67599,2.45817 1.08567,0.76943 2.77189,2.44275 3.49634,3.46958 1.05244,1.49174 1.78589,3.01356 2.2462,4.66061 0.34877,1.24796 0.34632,1.3394 -0.0169,0.63177 -0.39597,-0.77144 -0.58297,-1.02796 -1.29975,-1.78305 -1.47764,-1.5566 -3.27153,-2.3285 -5.41144,-2.3285 -1.25409,0 -1.92287,0.11224 -2.88506,0.48419 -1.68655,0.65197 -3.18685,2.01838 -4.03468,3.67462 -0.11975,0.23393 -0.32911,0.75931 -0.46523,1.1675 l -0.24751,0.74217 z"
       id="path1835" />
    <path
       id="path863"
       d="m 74.637032,205.05742 -0.0046,-23.7633 7.972738,0.0628 c 4.385006,0.0345 11.073639,0.0628 14.86363,0.0628 l 6.8909,6e-5 -0.004,23.65322 -0.005,23.65321 -0.22723,-0.86284 c -1.6619,-6.31052 -7.07531,-10.82684 -13.516394,-11.27652 -2.82001,-0.19687 -5.504016,0.34599 -7.972318,1.61246 -3.888273,1.99505 -6.652074,5.46977 -7.771695,9.77076 l -0.221443,0.85066 z"
       style="fill:#f66151;fill-opacity:1;fill-rule:evenodd;stroke:none;stroke-width:0.5;opacity:0.5;stroke-miterlimit:4;stroke-dasharray:none" />
    <path
       id="path1873"
       d="m 134.28754,228.57768 c -0.29871,-1.63007 -1.14668,-3.65446 -2.20738,-5.26975 -2.25931,-3.44058 -5.72767,-5.73931 -9.87659,-6.54592 -0.88184,-0.17144 -2.67882,-0.25408 -3.80911,-0.17517 -6.42972,0.44889 -11.8744,4.99631 -13.51608,11.2887 l -0.22194,0.85066 -0.007,-23.66799 -0.007,-23.66799 14.88581,0.0686 c 8.18719,0.0377 14.89708,0.0799 14.91086,0.0937 0.0138,0.0139 0.0144,10.75816 0.001,23.87624 -0.0204,20.50457 -0.0417,23.75256 -0.15237,23.14894 z"
       style="fill:#99c1f1;fill-opacity:1;fill-rule:evenodd;stroke:none;stroke-width:0.5;stroke-miterlimit:4;stroke-dasharray:none;opacity:0.5" />
    <path
       id="path2933"
       d="m 89.50417,211.61378 v 10.04727"
       style="fill:none;fill-opacity:1;stroke:#008000;stroke-width:0.5;stroke-linecap:butt;stroke-linejoin:miter;stroke-dasharray:none;stroke-opacity:1;marker-start:none;marker-end:url(#marker3033);stroke-miterlimit:4" />
    <path
       style="fill:none;fill-opacity:1;stroke:#008000;stroke-width:0.5;stroke-linecap:butt;stroke-linejoin:miter;stroke-dasharray:none;stroke-opacity:1;marker-start:none;marker-end:url(#marker3033-2);stroke-miterlimit:4"
       d="M 120,211.70833 V 221.7556"
       id="path2933-0" />
    <text
       x="117.47051"
       y="206.95027"
       style="font-size:2.64583px;font-family:Hack;-inkscape-font-specification:'Hack, Normal';opacity:0.951626;fill:#000000;fill-opacity:1;stroke:none;stroke-width:0.5;stroke-miterlimit:4;stroke-dasharray:none;"
       xml:space="preserve"
       id="text4233"><tspan
         style="stroke-width:0.5;stroke-miterlimit:4;stroke-dasharray:none;fill:#000000;fill-opacity:1;"
         y="206.95027"
         x="117.47051"
         sodipodi:role="line"
         id="tspan4231">$\Pi$</tspan></text>
    <ellipse
       ry="0.76667827"
       rx="0.77061647"
       cy="231.65933"
       cx="104.49194"
       id="path4317"
       style="fill:#1a5fb4;fill-opacity:1;fill-rule:evenodd;stroke:#1a5fb4;stroke-width:0.5;stroke-miterlimit:4;stroke-dasharray:none;stroke-opacity:1;marker-start:none" />
    <text
       x="102.98561"
       y="238.36101"
       style="font-size:2.64583px;font-family:Hack;-inkscape-font-specification:'Hack, Normal';fill:#000000;fill-opacity:1;stroke:none;stroke-width:0.5;stroke-miterlimit:4;stroke-dasharray:none"
       xml:space="preserve"
       id="text4336"><tspan
         style="stroke-width:0.5;stroke-miterlimit:4;stroke-dasharray:none"
         y="238.36101"
         x="102.98561"
         sodipodi:role="line"
         id="tspan4334">$0$</tspan></text>
    <text
       x="132.8577"
       y="238.46838"
       style="font-size:2.64583px;font-family:Hack;-inkscape-font-specification:'Hack, Normal';fill:#000000;fill-opacity:1;stroke:none;stroke-width:0.5;stroke-miterlimit:4;stroke-dasharray:none"
       xml:space="preserve"
       id="text4350"><tspan
         style="stroke-width:0.5;stroke-miterlimit:4;stroke-dasharray:none"
         y="238.46838"
         x="132.8577"
         sodipodi:role="line"
         id="tspan4348">$1$</tspan></text>
    <path
       id="path4452"
       d="m 120,237 v 10"
       style="fill:none;stroke:black;stroke-width:0.5;stroke-linecap:butt;stroke-linejoin:miter;stroke-opacity:1;fill-opacity:1;marker-end:url(#marker-arrow-1.5923999999999998);marker-start:none;stroke-dasharray:none;stroke-miterlimit:4" />
    <text
       x="121.8712"
       y="242.74553"
       style="font-size:2.64583px;font-family:Hack;-inkscape-font-specification:'Hack, Normal';fill:#000000;fill-opacity:1;stroke:none;stroke-width:0.5;stroke-miterlimit:4;stroke-dasharray:none"
       xml:space="preserve"
       id="text4579"><tspan
         style="stroke-width:0.5;stroke-miterlimit:4;stroke-dasharray:none"
         y="242.74553"
         x="121.8712"
         sodipodi:role="line"
         id="tspan4577">$\phi_0$</tspan></text>
    <path
       id="path4635"
       d="M 65.237499,272.76664 H 105.2375"
       style="fill:#803300;fill-opacity:1;stroke:#ff7800;stroke-width:0.5;stroke-linecap:butt;stroke-linejoin:miter;stroke-dasharray:none;stroke-opacity:1;marker-start:none;marker-end:none;stroke-miterlimit:4" />
    <path
       id="path4660"
       d="m 104.7083,272.76664 h 30"
       style="fill:none;fill-opacity:1;stroke:#008000;stroke-width:0.5;stroke-linecap:butt;stroke-linejoin:miter;stroke-dasharray:none;stroke-opacity:1;marker-start:none;marker-end:none;stroke-miterlimit:4" />
    <path
       id="path4670"
       d="m 134.7083,272.76664 h 39.76045"
       style="fill:none;fill-opacity:1;stroke:#800080;stroke-width:0.5;stroke-linecap:butt;stroke-linejoin:miter;stroke-dasharray:none;stroke-opacity:1;marker-start:none;marker-end:none;stroke-miterlimit:4" />
    <path
       id="path4697"
       d="m 65.828089,272.39604 c 0.216054,-0.27353 4.987044,-5.26827 7.065388,-7.39673 7.516487,-7.69776 11.275007,-9.98923 17.778325,-10.83897 2.872214,-0.3753 4.790686,-0.41632 18.879818,-0.40372 7.53198,0.007 16.26722,-0.0385 19.41164,-0.10058 7.28538,-0.14378 18.45409,-0.14737 21.09626,-0.007 5.17771,0.27552 7.34771,0.72352 8.93269,1.84419 2.53905,1.79525 7.41939,7.20143 13.35956,14.799 l 1.74497,2.23185 h -19.40118 c -12.7907,0 -19.42917,-0.035 -19.48335,-0.10262 -0.10654,-0.13304 -0.69119,-0.13304 -0.79773,0 -0.13101,0.1636 -28.8455,0.13932 -29.18575,-0.0247 -0.21021,-0.10132 -0.31801,-0.10132 -0.52822,0 -0.38907,0.18753 -39.020545,0.18656 -38.872421,-10e-4 z"
       style="fill:#99c1f1;fill-opacity:1;fill-rule:evenodd;stroke:none;stroke-width:0.5;stroke-miterlimit:4;stroke-dasharray:none;stroke-opacity:1;marker-start:none;marker-end:none;opacity:0.5" />
    <path
       id="path4703"
       d="M 93.336932,288.71204 C 86.044563,288.57463 82.736168,288.1896 79.90833,287.14919 75.755864,285.62143 72.937279,282.91807 66.836263,274.6115 l -1.146466,-1.56092 19.573933,0.0408 c 10.765662,0.0224 19.63376,0.0409 19.70689,0.0411 0.0731,1.4e-4 6.7023,-0.0183 14.73149,-0.0411 9.97428,-0.0282 14.68069,-0.002 14.85788,0.0816 0.17952,0.0851 0.33877,0.0853 0.51736,7e-4 0.17583,-0.0833 6.4217,-0.11278 19.61031,-0.0925 l 19.3523,0.0298 -1.56799,2.35494 c -4.97363,7.46977 -8.75458,12.10854 -10.45021,12.82112 -0.32334,0.13589 -1.13782,0.23609 -2.63368,0.32401 -2.55321,0.15008 -58.87539,0.23617 -66.051148,0.10097 z"
       style="fill:#f66151;fill-opacity:1;fill-rule:evenodd;stroke:none;stroke-width:0.5;stroke-miterlimit:4;stroke-dasharray:none;stroke-opacity:1;marker-start:none;marker-end:none;opacity:0.5" />
    <path
       style="fill:none;fill-opacity:1;stroke:#ff7800;stroke-width:0.5;stroke-linecap:butt;stroke-linejoin:miter;stroke-miterlimit:4;stroke-dasharray:none;stroke-opacity:1;marker-start:url(#TriangleInL-6)"
       d="m 87.55733,277.22094 0.04045,-9.99993 v 0"
       id="path1982-2" />
    <path
       id="path1982-2-1"
       d="m 90.928931,268.20377 0.103974,9.99947 v 0"
       style="fill:none;fill-opacity:1;stroke:#ff7800;stroke-width:0.5;stroke-linecap:butt;stroke-linejoin:miter;stroke-miterlimit:4;stroke-dasharray:none;stroke-opacity:1;marker-start:url(#TriangleInL-6-0)" />
    <path
       id="path1982-2-6"
       d="m 119.95708,277.37016 0.0404,-9.99993 v 0"
       style="fill:none;fill-opacity:1;stroke:#008000;stroke-width:0.5;stroke-linecap:butt;stroke-linejoin:miter;stroke-miterlimit:4;stroke-dasharray:none;stroke-opacity:1;marker-start:url(#TriangleInL-6-5)" />
    <path
       id="path1982-2-5"
       d="m 148.81394,277.2372 0.0404,-9.99993 v 0"
       style="fill:none;fill-opacity:1;stroke:#800080;stroke-width:0.5;stroke-linecap:butt;stroke-linejoin:miter;stroke-miterlimit:4;stroke-dasharray:none;stroke-opacity:1;marker-start:url(#TriangleInL-6-6)" />
    <path
       style="fill:none;fill-opacity:1;stroke:#800080;stroke-width:0.5;stroke-linecap:butt;stroke-linejoin:miter;stroke-miterlimit:4;stroke-dasharray:none;stroke-opacity:1;marker-start:url(#TriangleInL-6-0-3)"
       d="m 152.18555,268.22003 0.10397,9.99947 v 0"
       id="path1982-2-1-2" />
    <text
       x="116.38326"
       y="263.08228"
       style="font-size:2.64583px;font-family:Hack;-inkscape-font-specification:'Hack, Normal';fill:#000000;fill-opacity:1;stroke:none;stroke-width:0.5;stroke-miterlimit:4;stroke-dasharray:none"
       xml:space="preserve"
       id="text5959"><tspan
         style="stroke-width:0.5;stroke-miterlimit:4;stroke-dasharray:none"
         y="263.08228"
         x="116.38326"
         sodipodi:role="line"
         id="tspan5957">$\mathbb{C}_{+}$</tspan></text>
    <ellipse
       style="fill:#1a5fb4;fill-opacity:1;fill-rule:evenodd;stroke:#1a5fb4;stroke-width:0.5;stroke-miterlimit:4;stroke-dasharray:none;stroke-opacity:1;marker-start:none"
       id="path4317-2"
       cx="134.48761"
       cy="231.66937"
       rx="0.77061647"
       ry="0.76667827" />
    <ellipse
       style="fill:#1a5fb4;fill-opacity:1;fill-rule:evenodd;stroke:#1a5fb4;stroke-width:0.5;stroke-miterlimit:4;stroke-dasharray:none;stroke-opacity:1;marker-start:none"
       id="path4317-9"
       cx="134.7834"
       cy="272.72476"
       rx="0.77061647"
       ry="0.76667827" />
    <ellipse
       style="fill:#1a5fb4;fill-opacity:1;fill-rule:evenodd;stroke:#1a5fb4;stroke-width:0.5;stroke-miterlimit:4;stroke-dasharray:none;stroke-opacity:1;marker-start:none"
       id="path4317-1"
       cx="104.77263"
       cy="272.82904"
       rx="0.77061647"
       ry="0.76667827" />
    <path
       transform="matrix(0.26458333,0,0,0.26458333,0,177)"
       id="path2897"
       d="m 619.56611,188.09492 c -6.23794,-19.27348 -23.11402,-34.03605 -43.65319,-38.18617 -5.69308,-1.15034 -16.43934,-1.13332 -21.93373,0.0347 -20.53427,4.36539 -36.63592,18.41936 -43.3666,37.85159 l -0.99615,2.876 -0.0267,-86.66854 -0.0267,-86.668527 8.58546,0.234499 c 4.722,0.128975 29.74612,0.234499 55.60915,0.234499 h 47.02369 v 46.548235 46.548234 h -9.06091 -9.06092 v 0.88833 0.88832 h 9.06092 9.06091 v 39.26397 c 0,21.59518 -0.047,39.26397 -0.10442,39.26397 -0.0574,0 -0.55726,-1.39911 -1.11071,-3.10914 z"
       style="opacity:0.5;fill:#f66151;fill-opacity:1;fill-rule:evenodd;stroke:none;stroke-width:1.8897638;stroke-miterlimit:4;stroke-dasharray:none" />
    <path
       style="fill:none;fill-opacity:1;stroke:#008000;stroke-width:0.5;stroke-linecap:butt;stroke-linejoin:miter;stroke-miterlimit:4;stroke-dasharray:none;stroke-opacity:1;marker-start:none;marker-end:url(#marker3033-9)"
       d="m 150,210.64999 v 10.04727"
       id="path2933-6" />
    <path
       id="path1982"
       d="m 100.70109,206.59014 h 10.00001 v 0"
       style="fill:none;fill-opacity:1;stroke:#e66100;stroke-width:0.5;stroke-linecap:butt;stroke-linejoin:miter;stroke-miterlimit:4;stroke-dasharray:none;stroke-opacity:1;marker-start:url(#TriangleInL)" />
    <path
       id="path2452-9-5"
       d="m 128.42842,206.57546 9.99997,0.0239"
       style="fill:none;fill-opacity:1;stroke:#800080;stroke-width:0.5;stroke-linecap:butt;stroke-linejoin:miter;stroke-miterlimit:4;stroke-dasharray:none;stroke-opacity:1;marker-start:none;marker-end:url(#TriangleOutL-6-5)" />
    <rect
       y="181.59695"
       x="164.50433"
       height="50.111233"
       width="9.972744"
       id="rect4017"
       style="opacity:0.5;fill:#99c1f1;fill-opacity:1;fill-rule:evenodd;stroke:none;stroke-width:0.5;stroke-miterlimit:4;stroke-dasharray:none" />
    <rect
       y="181.30612"
       x="64.553482"
       height="50.402069"
       width="9.9508286"
       id="rect4019"
       style="opacity:0.5;fill:#99c1f1;fill-opacity:1;fill-rule:evenodd;stroke:none;stroke-width:0.5;stroke-miterlimit:4;stroke-dasharray:none" />
    <path
       style="fill:none;fill-opacity:1;stroke:#800080;stroke-width:0.5;stroke-linecap:butt;stroke-linejoin:miter;stroke-dasharray:none;stroke-opacity:1;marker-start:none;marker-end:url(#TriangleOutL-6);stroke-miterlimit:4"
       d="m 80.17192,206.59014 h -10"
       id="path2452-9" />
    <path
       id="path2591"
       d="m 159.50421,206.59014 h 10"
       style="fill:none;fill-opacity:1;stroke:#803300;stroke-width:0.5;stroke-linecap:butt;stroke-linejoin:miter;stroke-dasharray:none;stroke-opacity:1;marker-start:none;marker-end:url(#marker2670);stroke-miterlimit:4" />
    <text
       id="text4336-2"
       xml:space="preserve"
       style="font-size:2.64583px;font-family:Hack;-inkscape-font-specification:'Hack, Normal';fill:#000000;fill-opacity:1;stroke:none;stroke-width:0.5;stroke-miterlimit:4;stroke-dasharray:none"
       y="279.405"
       x="103.17315"><tspan
         id="tspan4334-7"
         sodipodi:role="line"
         x="103.17315"
         y="279.405"
         style="stroke-width:0.5;stroke-miterlimit:4;stroke-dasharray:none">$0$</tspan></text>
    <text
       id="text4350-0"
       xml:space="preserve"
       style="font-size:2.64583px;font-family:Hack;-inkscape-font-specification:'Hack, Normal';fill:#000000;fill-opacity:1;stroke:none;stroke-width:0.5;stroke-miterlimit:4;stroke-dasharray:none"
       y="279.58612"
       x="133.46045"><tspan
         id="tspan4348-9"
         sodipodi:role="line"
         x="133.46045"
         y="279.58612"
         style="stroke-width:0.5;stroke-miterlimit:4;stroke-dasharray:none">$1$</tspan></text>
  </g>
</svg>
