<?xml version="1.0" encoding="UTF-8" standalone="no"?>
<!-- Created with Inkscape (http://www.inkscape.org/) -->

<svg
   xmlns:dc="http://purl.org/dc/elements/1.1/"
   xmlns:cc="http://creativecommons.org/ns#"
   xmlns:rdf="http://www.w3.org/1999/02/22-rdf-syntax-ns#"
   xmlns:svg="http://www.w3.org/2000/svg"
   xmlns="http://www.w3.org/2000/svg"
   xmlns:sodipodi="http://sodipodi.sourceforge.net/DTD/sodipodi-0.dtd"
   xmlns:inkscape="http://www.inkscape.org/namespaces/inkscape"
   width="240mm"
   height="120mm"
   viewBox="0 0 240 120"
   version="1.1"
   id="svg8"
   inkscape:version="0.92.3 (2405546, 2018-03-11)"
   sodipodi:docname="img.svg">
  <defs
     id="defs2">
    <inkscape:path-effect
       effect="bspline"
       id="path-effect4545"
       is_visible="true"
       weight="33.333333"
       steps="2"
       helper_size="0"
       apply_no_weight="true"
       apply_with_weight="true"
       only_selected="false" />
    <inkscape:path-effect
       effect="bspline"
       id="path-effect4541"
       is_visible="true"
       weight="33.333333"
       steps="2"
       helper_size="0"
       apply_no_weight="true"
       apply_with_weight="true"
       only_selected="false" />
    <inkscape:path-effect
       effect="bspline"
       id="path-effect4537"
       is_visible="true"
       weight="33.333333"
       steps="2"
       helper_size="0"
       apply_no_weight="true"
       apply_with_weight="true"
       only_selected="false" />
    <inkscape:path-effect
       effect="bspline"
       id="path-effect4533"
       is_visible="true"
       weight="33.333333"
       steps="2"
       helper_size="0"
       apply_no_weight="true"
       apply_with_weight="true"
       only_selected="false" />
    <inkscape:path-effect
       effect="bspline"
       id="path-effect4521"
       is_visible="true"
       weight="33.333333"
       steps="2"
       helper_size="0"
       apply_no_weight="true"
       apply_with_weight="true"
       only_selected="false" />
    <inkscape:path-effect
       effect="bspline"
       id="path-effect4517"
       is_visible="true"
       weight="33.333333"
       steps="2"
       helper_size="0"
       apply_no_weight="true"
       apply_with_weight="true"
       only_selected="false" />
    <inkscape:path-effect
       effect="bspline"
       id="path-effect4513"
       is_visible="true"
       weight="33.333333"
       steps="2"
       helper_size="0"
       apply_no_weight="true"
       apply_with_weight="true"
       only_selected="false" />
    <inkscape:path-effect
       effect="bspline"
       id="path-effect4509"
       is_visible="true"
       weight="33.333333"
       steps="2"
       helper_size="0"
       apply_no_weight="true"
       apply_with_weight="true"
       only_selected="false" />
    <inkscape:path-effect
       effect="bspline"
       id="path-effect4503"
       is_visible="true"
       weight="33.333333"
       steps="2"
       helper_size="0"
       apply_no_weight="true"
       apply_with_weight="true"
       only_selected="false" />
  </defs>
  <sodipodi:namedview
     id="base"
     pagecolor="#ffffff"
     bordercolor="#666666"
     borderopacity="1.0"
     inkscape:pageopacity="0.0"
     inkscape:pageshadow="2"
     inkscape:zoom="1.406257"
     inkscape:cx="346.56172"
     inkscape:cy="220.26901"
     inkscape:document-units="mm"
     inkscape:current-layer="layer1"
     showgrid="false"
     showborder="true"
     width="200mm"
     showguides="true"
     inkscape:guide-bbox="true"
     inkscape:window-width="1916"
     inkscape:window-height="1039"
     inkscape:window-x="0"
     inkscape:window-y="39"
     inkscape:window-maximized="0">
    <inkscape:grid
       type="xygrid"
       id="grid815"
       units="mm"
       spacingx="10"
       spacingy="10"
       empspacing="4"
       dotted="false" />
  </sodipodi:namedview>
  <metadata
     id="metadata5">
    <rdf:RDF>
      <cc:Work
         rdf:about="">
        <dc:format>image/svg+xml</dc:format>
        <dc:type
           rdf:resource="http://purl.org/dc/dcmitype/StillImage" />
        <dc:title></dc:title>
      </cc:Work>
    </rdf:RDF>
  </metadata>
  <g
     inkscape:label="Layer 1"
     inkscape:groupmode="layer"
     id="layer1"
     transform="translate(0,-177)">
    <rect
       style="fill:#000000;fill-opacity:0.31203009;stroke:#000000;stroke-width:0.34728903;stroke-miterlimit:4;stroke-dasharray:none;stroke-dashoffset:0;stroke-opacity:1"
       id="rect4499"
       width="74.579987"
       height="60.868366"
       x="86.982445"
       y="206.97713" />
    <path
       style="fill:none;stroke:#000000;stroke-width:0.56720293px;stroke-linecap:butt;stroke-linejoin:miter;stroke-opacity:1"
       d="m 106.30678,234.14871 c -0.0967,-1.11754 -0.0967,-2.42054 -0.0967,-3.53739 0,-1.11685 0,-2.04755 0,-2.60593 0,-0.55837 0,-0.74462 0.58532,-1.48939 0.58532,-0.74477 1.75064,-2.04776 2.72243,-2.79015 0.97179,-0.74239 1.74867,-0.92854 2.23373,-1.11663 0.48506,-0.1881 0.67931,-0.37427 0.97117,-0.55928 0.29185,-0.185 0.68032,-0.37116 0.97109,-0.55841 0.29076,-0.18725 0.48502,-0.37343 1.16514,-0.55732 0.68012,-0.18388 1.84544,-0.37002 2.42484,-0.55838 0.5794,-0.18836 0.5794,-0.37458 1.16496,-0.46488 0.58555,-0.0903 1.75086,-0.0903 3.59594,-0.0903 1.84508,0 4.36992,0 6.11789,0 1.74796,0 2.71906,0 3.30172,0 0.58266,0 0.77687,0 0.97109,0 0.19422,0 0.38844,0 0.7741,0.27933 0.38567,0.27933 0.96831,0.83775 1.35678,1.21006 0.38847,0.37231 0.58264,0.5584 0.87674,0.65136 0.2941,0.093 0.68253,0.093 0.97058,0.64917 0.28805,0.55623 0.48227,1.67308 0.87085,2.60567 0.38857,0.93259 0.97123,1.67717 1.2628,2.32621 0.29157,0.64903 0.29157,1.20745 0.38878,1.58261 0.0972,0.37516 0.29147,0.56134 0.38846,1.02381 0.097,0.46246 0.097,1.20702 0.097,2.60308 0,1.39606 0,3.44363 0,5.58426 0,2.14063 0,4.37433 0,5.86346 0,1.48913 0,2.23371 0,2.69912 0,0.46541 0,0.65144 -0.38553,1.11679 -0.38554,0.46535 -1.16242,1.20993 -1.55376,1.67534 -0.39133,0.46541 -0.39133,0.65143 -0.58213,0.83872 -0.19081,0.18728 -0.57921,0.3734 -1.3562,0.83828 -0.77699,0.46488 -1.9423,1.20945 -2.7196,1.58386 -0.7773,0.3744 -1.16573,0.3744 -1.65086,0.55842 -0.48513,0.18402 -1.06779,0.55631 -1.84468,0.83701 -0.7769,0.2807 -1.74797,0.46683 -2.52473,0.65252 -0.77677,0.18568 -1.3594,0.37181 -1.7484,0.5563 -0.389,0.18449 -0.58316,0.37057 -0.87448,0.46642 -0.29133,0.0958 -0.67977,0.0958 -1.26197,0.18812 -0.58219,0.0923 -1.35905,0.2784 -1.94217,0.37227 -0.58313,0.0939 -0.97157,0.0939 -1.55422,0.0939 -0.58266,0 -1.35953,0 -2.33063,0 -0.9711,0 -2.13641,0 -2.81617,0 -0.67977,0 -0.87398,0 -1.07161,-0.18713 -0.19764,-0.18714 -0.39186,-0.55943 -0.58542,-0.8375 -0.19356,-0.27808 -0.38782,-0.46426 -0.48505,-0.74637 -0.0972,-0.28211 -0.0972,-0.65439 -0.19489,-1.11854 -0.0976,-0.46415 -0.29187,-1.02257 -0.38843,-1.76834 -0.0966,-0.74577 -0.0966,-1.67649 -0.0966,-3.16562 0,-1.48913 0,-3.53669 0,-5.1189 0,-1.58221 0,-2.69906 -0.097,-3.34764 -0.097,-0.64859 -0.29122,-0.83477 -0.48542,-1.02089 -0.1942,-0.18612 -0.38846,-0.3723 -0.57991,-0.46549 -0.19145,-0.0932 -0.38566,-0.0932 -0.48566,-0.18899 -0.10001,-0.0958 -0.10001,-0.28203 -0.29133,-0.37233 -0.19133,-0.0903 -0.57976,-0.0903 -0.97097,-0.27632 -0.39121,-0.18602 -0.77966,-0.55831 -1.06821,-0.74457 -0.28856,-0.18626 -0.48277,-0.18626 -0.68032,-0.65369 -0.19755,-0.46743 -0.39177,-1.39815 -0.48844,-2.5157 z"
       id="path4501"
       inkscape:connector-curvature="0"
       inkscape:path-effect="#path-effect4503"
       inkscape:original-d="m 106.2101,234.33972 c 0.006,-1.30855 0.006,-2.61155 0,-3.90897 0.006,-0.93628 0.006,-1.86698 0,-2.79213 0.006,-0.1916 0.006,-0.37785 0,-0.55844 1.17111,-1.30853 2.33642,-2.61153 3.49594,-3.90897 0.78267,-0.19162 1.55954,-0.37784 2.33062,-0.55843 0.20002,-0.19161 0.39423,-0.37783 0.58266,-0.55842 0.39423,-0.19162 0.78267,-0.37784 1.16531,-0.55843 0.20001,-0.19161 0.39423,-0.37783 0.58265,-0.55842 1.17111,-0.19162 2.33642,-0.37784 3.49594,-0.55842 0.006,-0.19162 0.006,-0.37784 0,-0.55843 1.17111,-0.006 2.33642,-0.006 3.49594,0 2.53064,-0.006 5.05548,-0.006 7.57453,0 0.97688,-0.006 1.94798,-0.006 2.91328,0 0.20002,-0.006 0.39423,-0.006 0.58266,0 0.20001,-0.006 0.39423,-0.006 0.58265,0 0.58845,0.55288 1.17111,1.11128 1.74797,1.67527 0.20002,0.1807 0.39424,0.36673 0.58266,0.55843 0.39423,-0.006 0.78266,-0.006 1.16531,0 0.20001,1.11131 0.39423,2.22816 0.58266,3.35055 0.58845,0.73901 1.17111,1.48359 1.74796,2.23371 0.006,0.55287 0.006,1.11129 0,1.67528 0.20002,0.18049 0.39423,0.36672 0.58266,0.55842 0.006,0.73902 0.006,1.48358 0,2.2337 0.006,2.042 0.006,4.08957 0,6.14267 0.006,2.22816 0.006,4.46186 0,6.70113 0.006,0.73899 0.006,1.48357 0,2.2337 0.006,0.18069 0.006,0.36672 0,0.55842 -0.77108,0.73899 -1.54795,1.48358 -2.33062,2.2337 0.006,0.1807 0.006,0.36672 0,0.55842 -0.38265,0.1807 -0.77109,0.36673 -1.16532,0.55843 -1.15951,0.73901 -2.32483,1.48357 -3.49593,2.2337 -0.38265,-0.006 -0.77108,-0.006 -1.16532,0 -0.57686,0.36672 -1.15952,0.73901 -1.74797,1.11685 -0.9653,0.18069 -1.93639,0.36672 -2.91328,0.55842 -0.57686,0.1807 -1.15952,0.36673 -1.74797,0.55843 -0.18843,0.18069 -0.38264,0.36672 -0.58265,0.55842 -0.38264,-0.006 -0.77108,-0.006 -1.16531,0 -0.77108,0.1807 -1.54796,0.36673 -2.33062,0.55842 -0.38265,-0.006 -0.77109,-0.006 -1.16532,0 -0.77108,-0.006 -1.54795,-0.006 -2.33062,0 -1.15953,-0.006 -2.32484,-0.006 -3.49594,0 -0.18843,-0.006 -0.38264,-0.006 -0.58265,0 -0.18843,-0.37783 -0.38265,-0.75012 -0.58266,-1.11684 -0.18843,-0.19162 -0.38265,-0.37784 -0.58266,-0.55843 0.006,-0.37784 0.006,-0.75012 0,-1.11685 -0.18843,-0.56396 -0.38264,-1.12239 -0.58265,-1.67527 0.006,-0.93626 0.006,-1.86698 0,-2.79213 0.006,-2.05311 0.006,-4.10067 0,-6.1427 0.006,-1.12239 0.006,-2.23924 0,-3.35054 -0.18843,-0.19161 -0.38265,-0.37783 -0.58266,-0.55843 -0.18843,-0.1916 -0.38264,-0.37783 -0.58266,-0.55842 -0.18843,-0.006 -0.38264,-0.006 -0.58265,0 0.006,-0.19161 0.006,-0.37783 0,-0.55843 -0.38265,-0.006 -0.77108,-0.006 -1.16532,0 -0.38264,-0.37782 -0.77108,-0.75012 -1.16531,-1.11685 -0.18843,-0.006 -0.38264,-0.006 -0.58265,0 -0.18843,-0.93625 -0.38265,-1.86697 -0.58266,-2.79212 z" />
    <rect
       style="fill:#000000;fill-opacity:0.31203009;stroke:#000000;stroke-width:0.34728903;stroke-miterlimit:4;stroke-dasharray:none;stroke-dashoffset:0;stroke-opacity:1"
       id="rect4505"
       width="29.036146"
       height="7.6268997"
       x="107.46557"
       y="227.63258" />
    <path
       style="fill:none;stroke:#000000;stroke-width:2.78016686;stroke-linecap:butt;stroke-linejoin:miter;stroke-miterlimit:4;stroke-dasharray:none;stroke-opacity:1"
       d="m 108.54072,267.84525 c 0,0 28.16948,0 28.16948,0"
       id="path4507"
       inkscape:connector-curvature="0"
       inkscape:path-effect="#path-effect4509"
       inkscape:original-d="M 108.54072,267.84525 H 136.7102" />
    <path
       style="fill:none;stroke:#000000;stroke-width:2.06500006;stroke-linecap:butt;stroke-linejoin:miter;stroke-miterlimit:4;stroke-dasharray:none;stroke-opacity:1"
       d="m 86.334989,235.00627 c 0,-0.44611 0,-0.88958 0,-1.68782 0,-0.79824 0,-1.95125 0,-2.79384 0,-0.84259 0,-1.37475 0,-1.68516 0,-0.31041 0,-0.39914 0,-0.48781 0,-0.0887 0,-0.17741 0,-0.17738 0,2e-5 0,0.0887 0,0.18"
       id="path4519"
       inkscape:connector-curvature="0"
       inkscape:path-effect="#path-effect4521"
       inkscape:original-d="m 86.334989,235.00627 c 0.003,-0.44611 0.003,-0.88958 0,-1.3304 0.003,-1.15566 0.003,-2.30867 0,-3.45904 0.003,-0.53481 0.003,-1.06697 0,-1.59649 0.003,-0.0913 0.003,-0.18003 0,-0.26608 0.003,-0.0913 0.003,-0.18003 0,-0.26608 0.003,0.0861 0.003,0.17474 0,0.26608" />
    <text
       xml:space="preserve"
       style="font-style:normal;font-weight:normal;font-size:10.58333302px;line-height:1.25;font-family:sans-serif;letter-spacing:0px;word-spacing:0px;fill:#000000;fill-opacity:1;stroke:none;stroke-width:0.26458332"
       x="111.08053"
       y="279.43869"
       id="text4525"><tspan
         sodipodi:role="line"
         id="tspan4523"
         x="111.08053"
         y="279.43869"
         style="stroke-width:0.26458332">$A$</tspan></text>
    <text
       xml:space="preserve"
       style="font-style:normal;font-weight:normal;font-size:10.58333302px;line-height:1.25;font-family:sans-serif;letter-spacing:0px;word-spacing:0px;fill:#000000;fill-opacity:1;stroke:none;stroke-width:0.26458332"
       x="72.903275"
       y="235.23198"
       id="text4529"><tspan
         sodipodi:role="line"
         id="tspan4527"
         x="72.903275"
         y="235.23198"
         style="stroke-width:0.26458332">$B$</tspan></text>
    <text
       xml:space="preserve"
       style="font-style:normal;font-weight:normal;font-size:10.58333302px;line-height:1.25;font-family:sans-serif;letter-spacing:0px;word-spacing:0px;fill:#000000;fill-opacity:1;stroke:none;stroke-width:0.26458332"
       x="126.13457"
       y="263.73996"
       id="text4549"><tspan
         sodipodi:role="line"
         id="tspan4547"
         x="126.13457"
         y="263.73996"
         style="stroke-width:0.26458332">$a$</tspan></text>
    <text
       xml:space="preserve"
       style="font-style:normal;font-weight:normal;font-size:10.58333302px;line-height:1.25;font-family:sans-serif;letter-spacing:0px;word-spacing:0px;fill:#000000;fill-opacity:1;stroke:none;stroke-width:0.26458332"
       x="87.893684"
       y="226.70798"
       id="text4553"><tspan
         sodipodi:role="line"
         id="tspan4551"
         x="87.893684"
         y="226.70798"
         style="stroke-width:0.26458332">$b$</tspan></text>
    <path
       style="fill:none;stroke:#ff0000;stroke-width:0.69190407;stroke-linecap:butt;stroke-linejoin:miter;stroke-miterlimit:4;stroke-dasharray:0.69190406, 1.38380811;stroke-dashoffset:0;stroke-opacity:1"
       d="m 125.66184,268.01852 -0.20376,-35.54633 H 86.540633"
       id="path844"
       inkscape:connector-curvature="0" />
  </g>
</svg>
