<?xml version="1.0" encoding="UTF-8" standalone="no"?>
<!-- Created with Inkscape (http://www.inkscape.org/) -->

<svg
   xmlns:dc="http://purl.org/dc/elements/1.1/"
   xmlns:cc="http://creativecommons.org/ns#"
   xmlns:rdf="http://www.w3.org/1999/02/22-rdf-syntax-ns#"
   xmlns:svg="http://www.w3.org/2000/svg"
   xmlns="http://www.w3.org/2000/svg"
   xmlns:sodipodi="http://sodipodi.sourceforge.net/DTD/sodipodi-0.dtd"
   xmlns:inkscape="http://www.inkscape.org/namespaces/inkscape"
   width="240mm"
   height="62mm"
   viewBox="0 0 240 62"
   version="1.1"
   id="svg8"
   inkscape:version="0.92.5 (2060ec1f9f, 2020-04-08)"
   sodipodi:docname="kolmo-thm.svg">
  <defs
     id="defs2">
    <marker
       markerWidth="0.91100001"
       markerHeight="1.6900001"
       refX="0"
       refY="0"
       orient="auto-start-reverse"
       id="marker-arrow-1.5923999999999998">
      <g
         id="g820"
         transform="scale(1.0733986)">
        <path
           id="path818"
           inkscape:connector-curvature="0"
           style="fill:none;stroke:#000000;stroke-width:0.60000002;stroke-linecap:round;stroke-linejoin:round;stroke-miterlimit:10;stroke-dasharray:none;stroke-opacity:1"
           d="M -1.55415,2.0722 C -1.42464,1.29512 0,0.1295 0.38852,0 0,-0.1295 -1.42464,-1.29512 -1.55415,-2.0722" />
      </g>
    </marker>
    <marker
       markerWidth="0.91100001"
       markerHeight="1.6900001"
       refX="0"
       refY="0"
       orient="auto-start-reverse"
       id="marker-arrow-1.0616">
      <g
         id="g844"
         transform="scale(1.3434313)">
        <path
           id="path842"
           inkscape:connector-curvature="0"
           style="fill:none;stroke:#000000;stroke-width:0.60000002;stroke-linecap:round;stroke-linejoin:round;stroke-miterlimit:10;stroke-dasharray:none;stroke-opacity:1"
           d="M -1.55415,2.0722 C -1.42464,1.29512 0,0.1295 0.38852,0 0,-0.1295 -1.42464,-1.29512 -1.55415,-2.0722" />
      </g>
    </marker>
    <marker
       markerWidth="0.91100001"
       markerHeight="1.6900001"
       refX="0"
       refY="0"
       orient="auto-start-reverse"
       id="marker-arrow-1.0616-3">
      <g
         id="g879"
         transform="scale(1.3434313)">
        <path
           id="path877"
           inkscape:connector-curvature="0"
           style="fill:none;stroke:#000000;stroke-width:0.60000002;stroke-linecap:round;stroke-linejoin:round;stroke-miterlimit:10;stroke-dasharray:none;stroke-opacity:1"
           d="M -1.55415,2.0722 C -1.42464,1.29512 0,0.1295 0.38852,0 0,-0.1295 -1.42464,-1.29512 -1.55415,-2.0722" />
      </g>
    </marker>
  </defs>
  <sodipodi:namedview
     id="base"
     pagecolor="#ffffff"
     bordercolor="#666666"
     borderopacity="1.0"
     inkscape:pageopacity="0.0"
     inkscape:pageshadow="2"
     inkscape:zoom="0.9943739"
     inkscape:cx="408.1552"
     inkscape:cy="297.52362"
     inkscape:document-units="mm"
     inkscape:current-layer="layer1"
     showgrid="true"
     showborder="true"
     width="200mm"
     showguides="true"
     inkscape:guide-bbox="true"
     inkscape:window-width="1908"
     inkscape:window-height="1042"
     inkscape:window-x="1926"
     inkscape:window-y="32"
     inkscape:window-maximized="0">
    <inkscape:grid
       type="xygrid"
       id="grid815"
       units="mm"
       spacingx="10"
       spacingy="10"
       empspacing="4"
       dotted="false" />
  </sodipodi:namedview>
  <metadata
     id="metadata5">
    <rdf:RDF>
      <cc:Work
         rdf:about="">
        <dc:format>image/svg+xml</dc:format>
        <dc:type
           rdf:resource="http://purl.org/dc/dcmitype/StillImage" />
        <dc:title></dc:title>
      </cc:Work>
    </rdf:RDF>
  </metadata>
  <g
     inkscape:label="Layer 1"
     inkscape:groupmode="layer"
     id="layer1"
     transform="translate(0,-235)">
    <path
       style="fill:none;fill-opacity:1;stroke:#000000;stroke-width:0.28088167;stroke-linecap:butt;stroke-linejoin:miter;stroke-dasharray:none;stroke-opacity:1;marker-start:none;marker-end:url(#marker-arrow-1.0616)"
       d="m 94.124996,296.1042 v -60"
       id="path816"
       inkscape:connector-curvature="0" />
    <path
       style="fill:none;fill-opacity:1;stroke:#000000;stroke-width:0.28088167;stroke-linecap:butt;stroke-linejoin:miter;stroke-dasharray:none;stroke-opacity:1;marker-start:none;marker-end:url(#marker-arrow-1.0616)"
       d="M 84.124999,286.1042 H 154.12499"
       id="path875"
       inkscape:connector-curvature="0" />
    <path
       style="fill:none;stroke:#000000;stroke-width:0.26458332px;stroke-linecap:butt;stroke-linejoin:miter;stroke-opacity:1"
       d="m 105.98978,272.88813 -1.59648,-1.59648 c -0.17739,-0.17739 -0.38165,-0.33147 -0.53216,-0.53216 -0.119,-0.15866 -0.15607,-0.36714 -0.26608,-0.53216 -0.0696,-0.10436 -0.17739,-0.17739 -0.26608,-0.26608 -0.0887,-0.17739 -0.15607,-0.36714 -0.26608,-0.53216 -0.32457,-0.48686 -0.33924,-0.0266 -0.53216,-0.79824 -0.043,-0.17209 0.0348,-0.35822 0,-0.53216 -0.27684,-1.38421 -0.17739,-0.26608 -0.53216,-1.33041 -0.028,-0.0841 0,-0.17738 0,-0.26607 0,-0.17739 0.0292,-0.35719 0,-0.53217 -0.0601,-0.36071 -0.19436,-0.70573 -0.26609,-1.06432 -0.0599,-0.29973 0,-0.74212 0,-1.06432 v -2.12864 -5.85377 -3.19296 c 0,-0.8163 -0.11263,-1.63729 0.26609,-2.39473 0.0561,-0.11218 0.1965,-0.16171 0.26608,-0.26608 0.11001,-0.16501 0.12584,-0.39192 0.26608,-0.53216 0.14023,-0.14023 0.36714,-0.15607 0.53216,-0.26608 0.10436,-0.0696 0.16171,-0.1965 0.26608,-0.26608 0.21055,-0.14036 1.36157,-0.71994 1.59648,-0.79824 0.0841,-0.028 0.17911,0.0174 0.26608,0 0.35859,-0.0717 0.71739,-0.15044 1.06432,-0.26608 1.65159,-0.55053 -0.88432,0.0215 1.3304,-0.53216 0.0861,-0.0215 0.17739,0 0.26608,0 h 0.53216 1.86257 4.25728 l 9.62064,-1.24022 -1.81211,0.25766 c -0.31702,0.0451 1.51241,-0.31756 1.81211,-0.25766 0.27503,0.055 -0.27502,-0.055 0,0 0,0 -0.17394,-0.0348 0,0 0.27503,0.055 1.02257,1.68369 1.28865,1.77238 0.26609,0.0887 0.53783,0.16192 0.79825,0.26608 0.18414,0.0737 0.34401,0.20337 0.53216,0.26608 0.0841,0.0281 0.18003,-0.0215 0.26608,0 0.2721,0.068 0.53216,0.17739 0.79824,0.26608 0.26608,0.0887 0.53783,0.16192 0.79824,0.26608 0.18414,0.0737 0.35477,0.17739 0.53216,0.26608 0.17739,0.0887 0.36715,0.15607 0.53216,0.26608 0.10437,0.0696 0.16172,0.19651 0.26608,0.26608 0.16502,0.11001 0.34402,0.20337 0.53216,0.26608 0.0841,0.0281 0.18004,-0.0215 0.26608,0 0.13855,0.0346 1.14689,0.34866 1.3304,0.53217 0.14024,0.14023 0.12585,0.39192 0.26608,0.53215 0.14024,0.14024 0.35478,0.17739 0.53217,0.26609 0.2258,0.1129 1.47424,0.676 1.59648,0.79824 0.14023,0.14023 0.12584,0.39192 0.26608,0.53216 0.14023,0.14023 0.39192,0.12584 0.53216,0.26608 0.14024,0.14023 0.12584,0.39192 0.26608,0.53216 1.35977,1.35977 -0.37111,-1.11567 1.06432,0.79824 0.11899,0.15866 0.14708,0.3735 0.26608,0.53216 0.15052,0.20069 0.35477,0.35477 0.53216,0.53216 0.17739,0.17739 0.33147,0.38164 0.53216,0.53216 0.15866,0.119 0.39192,0.12585 0.53216,0.26608 0.14024,0.14024 0.16405,0.3621 0.26608,0.53216 1.96146,2.94219 -0.42904,-0.71507 0.79824,1.3304 0.16453,0.27422 0.38915,0.51222 0.53216,0.79825 0.12543,0.25086 0.17739,0.53216 0.26608,0.79824 0.17518,0.52551 0.35699,1.07096 0.53216,1.59648 0.0887,0.26608 0.14065,0.54738 0.26608,0.79824 0.14302,0.28603 0.36763,0.52402 0.53217,0.79824 0.20407,0.34012 0.35477,0.70955 0.53215,1.06432 0.0887,0.17739 0.17739,0.35477 0.26609,0.53216 0.0887,0.17739 0.14708,0.3735 0.26608,0.53216 0.15052,0.20069 0.38164,0.33147 0.53216,0.53216 0.11899,0.15866 0.17738,0.35478 0.26608,0.53216 0.0887,0.17739 0.17738,0.35478 0.26608,0.53217 0.17738,0.35477 0.35477,0.70954 0.53216,1.06432 0.0887,0.17738 0.20336,0.34401 0.26608,0.53216 0.0841,0.25242 -0.0522,0.53732 0,0.79824 -0.0611,0.53432 0.41632,0.86703 0.53216,1.3304 0.043,0.17209 -0.0348,0.35822 0,0.53216 0.055,0.27503 0.21107,0.52322 0.26608,0.79824 0.0348,0.17394 0,0.35477 0,0.53216 v 1.3304 1.59649 c 0,0.17738 0.043,0.36007 0,0.53216 -0.11869,0.47477 -0.47528,0.74136 -0.79824,1.06432 -0.38615,0.38615 -0.77189,0.92469 -1.3304,1.06432 -0.17209,0.043 -0.35822,-0.0348 -0.53216,0 -0.27503,0.055 -0.52615,0.19806 -0.79824,0.26608 -0.0861,0.0215 -0.17739,0 -0.26608,0 h -0.53217 -1.59648 -3.72512 -0.79824 c -0.17739,0 -0.35822,0.0348 -0.53216,0 -0.27503,-0.055 -0.52322,-0.21108 -0.79824,-0.26608 -0.34789,-0.0696 -0.71438,0.0583 -1.06433,0 -0.36071,-0.0601 -0.71739,-0.15044 -1.06432,-0.26608 -0.18814,-0.0627 -0.34401,-0.20337 -0.53216,-0.26608 -0.0841,-0.0281 -0.18003,0.0215 -0.26608,0 -0.2721,-0.068 -0.52321,-0.21108 -0.79824,-0.26608 -0.43485,-0.087 -0.89036,0.055 -1.3304,0 -1.96146,-0.24519 -0.68056,-0.17014 -2.12864,-0.53216 -0.0861,-0.0215 -0.18004,0.0215 -0.26608,0 -0.2721,-0.068 -0.52615,-0.19806 -0.79825,-0.26608 -0.086,-0.0215 -0.17738,0 -0.26608,0 h -1.3304 -3.72512 -2.66081 c -0.48457,0 -1.13153,0.0581 -1.59648,0 -3.5181,-0.43977 0.28483,-0.0495 -2.12864,-0.53216 -0.17394,-0.0348 -0.35656,0.0251 -0.53216,0 -0.4477,-0.064 -0.8827,-0.20213 -1.3304,-0.26608 -1.03476,-0.14783 0,0.22173 -1.3304,0 -1.10737,-0.18456 -0.46184,-0.24264 -1.3304,-0.53217 -0.25218,-0.084 -1.07823,0.0841 -1.33041,0 -0.18814,-0.0627 -0.34401,-0.20336 -0.53216,-0.26608 -0.16828,-0.0561 -0.3735,0.0793 -0.53216,0 -0.11219,-0.0561 -0.17738,-0.17738 -0.26608,-0.26607 -0.52466,-0.52467 -0.23566,-0.1444 -0.53216,-1.33041 z"
       id="path919"
       inkscape:connector-curvature="0"
       sodipodi:nodetypes="cscccccccsccsccsccsccccccsccccscccccccccccccccscsscsccsccccccccccsccccccccccscscscccscccscccccccccccsccsccccscccccc" />
    <ellipse
       style="opacity:1;fill:#000000;fill-opacity:1;stroke:none;stroke-width:0.14044084;stroke-linecap:round;stroke-linejoin:round;stroke-miterlimit:4;stroke-dasharray:none;stroke-dashoffset:0;stroke-opacity:1;marker-start:none;marker-end:none"
       id="path2825"
       cx="124.10821"
       cy="256.13724"
       rx="0.64171779"
       ry="0.64457119" />
    <path
       style="fill:none;fill-opacity:1;stroke:#000000;stroke-width:0.14044084;stroke-linecap:butt;stroke-linejoin:miter;stroke-dasharray:1.05330625, 1.05330625;stroke-opacity:1;marker-start:none;marker-end:none"
       d="M 94.124996,256.1042 H 124.12499"
       id="path927"
       inkscape:connector-curvature="0" />
    <path
       style="fill:none;fill-opacity:1;stroke:#000000;stroke-width:0.14044084;stroke-linecap:butt;stroke-linejoin:miter;stroke-dasharray:1.05330625, 1.05330625;stroke-opacity:1;marker-start:none;marker-end:none"
       d="m 124.12499,286.1042 v -30"
       id="path937"
       inkscape:connector-curvature="0" />
    <path
       style="fill:none;fill-opacity:1;stroke:#000000;stroke-width:0.42132249;stroke-linecap:butt;stroke-linejoin:miter;stroke-dasharray:none;stroke-opacity:1;marker-start:none;marker-end:none"
       d="m 124.12499,246.1042 v 30"
       id="path947"
       inkscape:connector-curvature="0" />
    <text
       id="text973"
       xml:space="preserve"
       style="font-size:3.70416665px;font-family:'Iosevka Term';-inkscape-font-specification:'Iosevka Term, Normal';fill:#000000;fill-opacity:1;stroke:none;stroke-width:0.26458332"
       y="289.20825"
       x="123.92126"><tspan
         id="tspan971"
         sodipodi:role="line"
         x="123.92126"
         y="289.20825"
         style="stroke-width:0.26458332">$x$</tspan></text>
    <text
       id="text987"
       xml:space="preserve"
       style="font-size:3.70416665px;font-family:'Iosevka Term';-inkscape-font-specification:'Iosevka Term, Normal';fill:#000000;fill-opacity:1;stroke:none;stroke-width:0.26458332"
       y="257.51495"
       x="87.119774"><tspan
         id="tspan985"
         sodipodi:role="line"
         x="87.119774"
         y="257.51495"
         style="stroke-width:0.26458332">$y$</tspan></text>
    <text
       id="text1001"
       xml:space="preserve"
       style="font-size:3.70416665px;font-family:'Iosevka Term';-inkscape-font-specification:'Iosevka Term, Normal';fill:#000000;fill-opacity:1;stroke:none;stroke-width:0.26458332"
       y="262.9054"
       x="125.44527"><tspan
         id="tspan999"
         sodipodi:role="line"
         x="125.44527"
         y="262.9054"
         style="stroke-width:0.26458332">$S_x$</tspan></text>
  </g>
</svg>
